{
.formatVersion = 3;
axes = (
{
name = Weight;
tag = wght;
},
{
name = Width;
tag = wdth;
}
);
classes = (
{
code = "zero one two three four five six seven eight nine zero one two three four five six seven eight nine";
name = case;
},
{
code = "zero.osf one.osf two.osf three.osf four.osf five.osf six.osf seven.osf eight.osf nine.osf zero.tosf one.tosf two.tosf three.tosf four.tosf five.tosf six.tosf seven.tosf eight.tosf nine.tosf";
name = case_lnum_onum;
},
{
code = "gravecomb acutecomb circumflexcomb tildecomb macroncomb brevecomb dotaccentcomb dieresiscomb ringcomb hungarumlautcomb caroncomb commaturnedabovecomb hookabovecomb";
name = ccmp;
},
{
code = "zero.dnom one.dnom two.dnom three.dnom four.dnom five.dnom six.dnom seven.dnom eight.dnom nine.dnom";
name = dnom_frac;
},
{
code = "zero one two three four five six seven eight nine";
name = dnom_frac_numr_ordn_sups;
},
{
code = "fraction zero.dnom one.dnom two.dnom three.dnom four.dnom five.dnom six.dnom seven.dnom eight.dnom nine.dnom";
name = frac;
},
{
code = "zero.numr one.numr two.numr three.numr four.numr five.numr six.numr seven.numr eight.numr nine.numr";
name = frac_numr;
},
{
code = "zero one two three four five six seven eight nine zero.tlf one.tlf two.tlf three.tlf four.tlf five.tlf six.tlf seven.tlf eight.tlf nine.tlf";
name = lnum_onum;
},
{
code = "Cacute Nacute Oacute Sacute Zacute cacute nacute oacute sacute zacute acutecomb";
name = locl;
},
{
code = "Cacute.loclPLK Nacute.loclPLK Oacute.loclPLK Sacute.loclPLK Zacute.loclPLK cacute.loclPLK nacute.loclPLK oacute.loclPLK sacute.loclPLK zacute.loclPLK acutecomb.loclPLK";
name = locl2;
},
{
code = "commaaccentcomb cedillacomb dotbelowcomb dieresisbelowcomb ringbelowcomb macronbelowcomb circumflexbelowcomb brevebelowcomb caronbelowcomb commaaccentcomb.loclMAH";
name = mkmk;
},
{

glyphs = (
{
glyphname = .notdef;
layers = (
{
layerId = "1B3EF96C-8CB6-4FB7-BF3A-0EF12B3D4F9E";
name = "#instance";
shapes = (
{
closed = 1;
nodes = (
(54,0,l),
(461,0,l),
(461,707,l),
(54,707,l)
);
},
{
closed = 1;
nodes = (
(89,35,l),
(89,672,l),
(426,672,l),
(426,35,l)
);
}
);
width = 515;
},
{
layerId = "A4AEBACF-46F5-4C7E-8680-4ABD111F4CF9";
shapes = (
{
closed = 1;
nodes = (
(65,0,l),
(472,0,l),
(472,707,l),
(65,707,l)
);
},
{
closed = 1;
nodes = (
(100,35,l),
(100,672,l),
(437,672,l),
(437,35,l)
);
}
);
width = 537;
},
{
layerId = "9252B17A-7510-4296-BE17-39E6376BAFDF";
shapes = (
{
closed = 1;
nodes = (
(66,0,l),
(473,0,l),
(473,707,l),
(66,707,l)
);
},
{
closed = 1;
nodes = (
(101,35,l),
(101,672,l),
(438,672,l),
(438,35,l)
);
}
);
width = 539;
},
{
layerId = "5E600FEC-E230-456C-858E-F50E50395600";
shapes = (
{
closed = 1;
nodes = (
(58,0,l),
(465,0,l),
(465,707,l),
(58,707,l)
);
},
{
closed = 1;
nodes = (
(93,35,l),
(93,672,l),
(430,672,l),
(430,35,l)
);
}
);
width = 523;
},
{
layerId = "5F4732EF-903E-4848-ACC1-4EB306E3746F";
shapes = (
{
closed = 1;
nodes = (
(68,0,l),
(475,0,l),
(475,707,l),
(68,707,l)
);
},
{
closed = 1;
nodes = (
(103,35,l),
(103,672,l),
(440,672,l),
(440,35,l)
);
}
);
width = 543;
},
{
layerId = "E645874F-62C6-4FA6-A4CB-DCB795EB9F1B";
shapes = (
{
closed = 1;
nodes = (
(54,0,l),
(461,0,l),
(461,707,l),
(54,707,l)
);
},
{
closed = 1;
nodes = (
(89,35,l),
(89,672,l),
(426,672,l),
(426,35,l)
);
}
);
width = 515;
}
);
},
{
glyphname = A;
layers = (
{
anchors = (
{
name = b.uni0324_2;
position = "{264, 0}";
},
{
name = m.uni0308_1;
position = "{352, 700}";
},
{
name = m.uni0328;
position = "{523, 10}";
}
);
layerId = "A4AEBACF-46F5-4C7E-8680-4ABD111F4CF9";
shapes = (
{
closed = 1;
nodes = (
(-26,0,l),
(151,0,l),
(198,115,l),
(398,115,l),
(414,0,l),
(593,0,l),
(440,700,l),
(302,700,l)
);
},
{
closed = 1;
nodes = (
(260,260,l),
(339,458,l),
(371,260,l)
);
}
);
width = 620;
},
{
anchors = (
{
name = b.uni0324_2;
position = "{256, 0}";
},
{
name = m.uni0308_1;
position = "{344, 700}";
},
{
name = m.uni0328;
position = "{484, 7}";
}
);
layerId = "9252B17A-7510-4296-BE17-39E6376BAFDF";
shapes = (
{
closed = 1;
nodes = (
(-32,0,l),
(129,0,l),
(160,107,l),
(290,107,l),
(293,0,l),
(453,0,l),
(375,700,l),
(223,700,l)
);
},
{
closed = 1;
nodes = (
(205,250,l),
(274,495,l),
(281,250,l)
);
}
);
width = 494;
},
{
anchors = (
{
name = b.uni0324_2;
position = "{265, 0}";
},
{
name = m.uni0308_1;
position = "{353, 700}";
},
{
name = m.uni0328;
position = "{523, 10}";
}
);
layerId = "EA56A89A-B866-4D06-B6B2-64326ABDBB58";
shapes = (
{
closed = 1;
nodes = (
(-33,0,l),
(104,0,l),
(163,137,l),
(400,137,l),
(425,0,l),
(564,0,l),
(406,700,l),
(299,700,l)
);
},
{
closed = 1;
nodes = (
(213,249,l),
(328,513,l),
(379,249,l)
);
}
);
width = 602;
},
{
anchors = (
{
name = b.uni0324_2;
position = "{219, 0}";
},
{
name = m.uni0308_1;
position = "{307, 700}";
},
{
name = m.uni0328;
position = "{398, 10}";
}
);
layerId = "134B4203-AF9A-4952-80B5-5BBA28114A85";
shapes = (
{
closed = 1;
nodes = (
(-30,0,l),
(97,0,l),
(142,136,l),
(301,136,l),
(311,0,l),
(438,0,l),
(351,700,l),
(233,700,l)
);
},
{
closed = 1;
nodes = (
(178,248,l),
(271,532,l),
(292,248,l)
);
}
);
width = 480;
},
{
anchors = (
{
name = b.uni0324_2;
position = "{266, 0}";
},
{
name = m.uni0308_1;
position = "{354, 700}";
},
{
name = m.uni0328;
position = "{524, 10}";
}
);
layerId = "5E600FEC-E230-456C-858E-F50E50395600";
shapes = (
{
closed = 1;
nodes = (
(-30,0,l),
(47,0,l),
(125,170,l),
(418,170,l),
(455,0,l),
(532,0,l),
(370,700,l),
(308,700,l)
);
},
{
closed = 1;
nodes = (
(155,233,l),
(325,595,l),
(405,233,l)
);
}
);
width = 574;
},
{
anchors = (
{
name = b.uni0324_2;
position = "{162, 0}";
},
{
name = m.uni0308_1;
position = "{250, 700}";
},
{
name = m.uni0328;
position = "{270, 15}";
}
);
layerId = "CE7D5885-7D4C-4AC1-9EEB-BF5BBC0FBEB6";
shapes = (
{
closed = 1;
nodes = (
(-28,0,l),
(48,0,l),
(114,180,l),
(316,180,l),
(337,0,l),
(414,0,l),
(314,700,l),
(248,700,l)
);
},
{
closed = 1;
nodes = (
(138,245,l),
(267,587,l),
(309,245,l)
);
}
);
width = 458;
},
{
anchors = (
{
name = b.uni0324_2;
position = "{266, 0}";
},
{
name = m.uni0308_1;
position = "{354, 700}";
},
{
name = m.uni0328;
position = "{525, 10}";
}
);
layerId = "5F4732EF-903E-4848-ACC1-4EB306E3746F";
shapes = (
{
closed = 1;
nodes = (
(-27,0,l),
(10,0,l),
(101,192,l),
(431,192,l),
(477,0,l),
(513,0,l),
(346,700,l),
(315,700,l)
);
},
{
closed = 1;
nodes = (
(118,222,l),
(324,650,l),
(424,222,l)
);
}
);
width = 556;
},
{
anchors = (
{
name = b.uni0324_2;
position = "{125, 0}";
},
{
name = m.uni0308_1;
position = "{213, 700}";
},
{
name = m.uni0328;
position = "{184, 18}";
}
);
layerId = "E645874F-62C6-4FA6-A4CB-DCB795EB9F1B";
shapes = (
{
closed = 1;
nodes = (
(-26,0,l),
(16,0,l),
(96,209,l),
(327,209,l),
(355,0,l),
(399,0,l),
(289,700,l),
(257,700,l)
);
},
{
closed = 1;
nodes = (
(111,243,l),
(263,624,l),
(320,243,l)
);
}
);
width = 444;
}
);
leftKerningGroup = A2;
rightKerningGroup = A;
unicode = 65;
},
{
glyphname = B;
layers = (
{
layerId = "1B3EF96C-8CB6-4FB7-BF3A-0EF12B3D4F9E";
name = "#instance";
shapes = (
{
closed = 1;
nodes = (
(37,0,l),
(207,0,ls),
(277,0,o),
(333,26,o),
(368,83,cs),
(386,111,o),
(397,145,o),
(403,186,c),
(409,236,o),
(404,276,o),
(388,306,cs),
(373,336,o),
(348,354,o),
(314,360,c),
(384,380,o),
(424,436,o),
(435,521,cs),
(450,641,o),
(405,700,o),
(292,700,cs),
(125,700,l)
);
},
{
closed = 1;
nodes = (
(81,35,l),
(120,343,l),
(249,343,ls),
(335,343,o),
(377,289,o),
(364,189,cs),
(358,138,o),
(341,100,o),
(315,74,cs),
(290,48,o),
(254,35,o),
(210,35,cs)
);
},
{
closed = 1;
nodes = (
(125,379,l),
(160,665,l),
(289,665,ls),
(375,665,o),
(409,623,o),
(396,520,cs),
(385,431,o),
(333,379,o),
(251,379,cs)
);
}
);
width = 479;
},
{
layerId = "A4AEBACF-46F5-4C7E-8680-4ABD111F4CF9";
shapes = (
{
closed = 1;
nodes = (
(6,0,l),
(295,0,ls),
(385,0,o),
(453,32,o),
(496,95,cs),
(516,126,o),
(529,164,o),
(535,207,cs),
(539,242,o),
(536,273,o),
(526,299,cs),
(515,325,o),
(498,345,o),
(473,360,c),
(521,392,o),
(557,445,o),
(563,498,cs),
(580,629,o),
(511,700,o),
(369,700,cs),
(93,700,l)
);
},
{
closed = 1;
nodes = (
(195,149,l),
(212,280,l),
(315,280,ls),
(355,280,o),
(372,256,o),
(368,219,cs),
(365,197,o),
(358,180,o),
(348,168,cs),
(336,155,o),
(320,149,o),
(298,149,cs)
);
},
{
closed = 1;
nodes = (
(230,430,l),
(245,551,l),
(339,551,ls),
(381,551,o),
(397,531,o),
(392,488,cs),
(387,451,o),
(368,430,o),
(324,430,cs)
);
}
);
width = 581;
},
{
layerId = "9252B17A-7510-4296-BE17-39E6376BAFDF";
shapes = (
{
closed = 1;
nodes = (
(-7,0,l),
(183,0,ls),
(290,0,o),
(347,35,o),
(374,95,cs),
(387,124,o),
(397,163,o),
(403,210,cs),
(408,253,o),
(408,287,o),
(405,311,cs),
(401,335,o),
(386,355,o),
(360,370,c),
(410,399,o),
(432,440,o),
(441,507,cs),
(458,646,o),
(411,700,o),
(272,700,cs),
(81,700,l)
);
},
{
closed = 1;
nodes = (
(164,143,l),
(184,298,l),
(202,298,ls),
(248,298,o),
(256,278,o),
(249,221,cs),
(245,189,o),
(239,168,o),
(231,158,cs),
(223,148,o),
(207,143,o),
(183,143,cs)
);
},
{
closed = 1;
nodes = (
(201,435,l),
(216,557,l),
(235,557,ls),
(279,557,o),
(290,543,o),
(284,496,cs),
(278,448,o),
(267,435,o),
(221,435,cs)
);
}
);
width = 438;
},
{
layerId = "EA56A89A-B866-4D06-B6B2-64326ABDBB58";
shapes = (
{
closed = 1;
nodes = (
(22,0,l),
(298,0,ls),
(387,0,o),
(455,32,o),
(496,93,cs),
(517,123,o),
(530,159,o),
(535,201,cs),
(540,239,o),
(536,272,o),
(523,299,cs),
(510,326,o),
(489,347,o),
(459,360,c),
(517,388,o),
(557,444,o),
(564,505,cs),
(580,630,o),
(512,700,o),
(375,700,cs),
(109,700,l)
);
},
{
closed = 1;
nodes = (
(168,116,l),
(190,298,l),
(323,298,ls),
(384,298,o),
(413,266,o),
(406,210,cs),
(402,180,o),
(391,157,o),
(374,141,cs),
(356,124,o),
(331,116,o),
(300,116,cs)
);
},
{
closed = 1;
nodes = (
(205,414,l),
(226,584,l),
(351,584,ls),
(412,584,o),
(439,556,o),
(432,497,cs),
(425,444,o),
(391,414,o),
(330,414,cs)
);
}
);
width = 594;
},
{
layerId = "134B4203-AF9A-4952-80B5-5BBA28114A85";
shapes = (
{
closed = 1;
nodes = (
(6,0,l),
(190,0,ls),
(287,0,o),
(342,32,o),
(372,91,cs),
(387,120,o),
(397,158,o),
(403,203,cs),
(408,248,o),
(408,284,o),
(401,310,c),
(393,335,o),
(375,354,o),
(347,367,c),
(402,394,o),
(430,439,o),
(439,511,cs),
(456,644,o),
(409,700,o),
(278,700,cs),
(93,700,l)
);
},
{
closed = 1;
nodes = (
(141,112,l),
(166,311,l),
(215,311,ls),
(273,311,o),
(291,281,o),
(282,212,cs),
(277,175,o),
(268,149,o),
(256,134,c),
(242,119,o),
(221,112,o),
(191,112,cs)
);
},
{
closed = 1;
nodes = (
(179,419,l),
(200,588,l),
(251,588,ls),
(307,588,o),
(324,566,o),
(316,503,cs),
(309,443,o),
(285,419,o),
(230,419,cs)
);
}
);
width = 450;
},
{
layerId = "5E600FEC-E230-456C-858E-F50E50395600";
shapes = (
{
closed = 1;
nodes = (
(44,0,l),
(302,0,ls),
(388,0,o),
(457,31,o),
(498,89,cs),
(518,118,o),
(530,152,o),
(535,192,cs),
(540,234,o),
(535,270,o),
(519,299,c),
(502,328,o),
(476,349,o),
(439,360,c),
(508,383,o),
(555,443,o),
(564,515,cs),
(579,632,o),
(513,700,o),
(384,700,cs),
(132,700,l)
);
},
{
closed = 1;
nodes = (
(125,66,l),
(158,325,l),
(336,325,ls),
(428,325,o),
(473,280,o),
(463,197,cs),
(457,155,o),
(440,123,o),
(414,100,c),
(385,77,o),
(347,66,o),
(302,66,cs)
);
},
{
closed = 1;
nodes = (
(166,390,l),
(196,634,l),
(369,634,ls),
(458,634,o),
(501,592,o),
(491,511,cs),
(481,432,o),
(424,390,o),
(338,390,cs)
);
}
);
width = 612;
},
{
layerId = "CE7D5885-7D4C-4AC1-9EEB-BF5BBC0FBEB6";
shapes = (
{
closed = 1;
nodes = (
(24,0,l),
(200,0,ls),
(281,0,o),
(336,29,o),
(370,86,c),
(386,115,o),
(397,150,o),
(402,193,cs),
(408,241,o),
(405,279,o),
(393,308,c),
(380,336,o),
(358,354,o),
(327,363,c),
(392,386,o),
(426,437,o),
(436,517,cs),
(452,642,o),
(406,700,o),
(287,700,cs),
(112,700,l)
);
},
{
closed = 1;
nodes = (
(105,66,l),
(138,330,l),
(235,330,ls),
(309,330,o),
(342,286,o),
(331,198,cs),
(325,153,o),
(312,119,o),
(291,98,cs),
(270,77,o),
(240,66,o),
(202,66,cs)
);
},
{
closed = 1;
nodes = (
(146,395,l),
(176,634,l),
(273,634,ls),
(347,634,o),
(374,600,o),
(364,513,cs),
(354,436,o),
(314,395,o),
(243,395,cs)
);
}
);
width = 467;
},
{
layerId = "5F4732EF-903E-4848-ACC1-4EB306E3746F";
shapes = (
{
closed = 1;
nodes = (
(60,0,l),
(305,0,ls),
(390,0,o),
(459,30,o),
(498,86,cs),
(518,114,o),
(530,147,o),
(535,186,cs),
(541,231,o),
(535,268,o),
(516,299,cs),
(498,330,o),
(468,350,o),
(425,360,c),
(503,379,o),
(556,442,o),
(566,522,cs),
(580,634,o),
(514,700,o),
(390,700,cs),
(147,700,l)
);
},
{
closed = 1;
nodes = (
(98,33,l),
(137,343,l),
(343,343,ls),
(456,343,o),
(513,289,o),
(500,188,cs),
(494,138,o),
(474,100,o),
(439,73,cs),
(405,46,o),
(359,33,o),
(304,33,cs)
);
},
{
closed = 1;
nodes = (
(140,374,l),
(177,667,l),
(381,667,ls),
(490,667,o),
(543,617,o),
(531,520,cs),
(519,425,o),
(448,374,o),
(343,374,cs)
);
}
);
width = 625;
},
{
layerId = "E645874F-62C6-4FA6-A4CB-DCB795EB9F1B";
shapes = (
{
closed = 1;
nodes = (
(37,0,l),
(207,0,ls),
(277,0,o),
(333,26,o),
(368,83,cs),
(386,111,o),
(397,145,o),
(403,186,cs),
(409,236,o),
(404,276,o),
(388,306,cs),
(373,336,o),
(348,354,o),
(314,360,c),
(384,380,o),
(424,436,o),
(435,521,cs),
(450,641,o),
(405,700,o),
(292,700,cs),
(125,700,l)
);
},
{
closed = 1;
nodes = (
(81,35,l),
(120,343,l),
(249,343,ls),
(335,343,o),
(377,289,o),
(364,189,cs),
(358,138,o),
(341,100,o),
(315,74,cs),
(290,48,o),
(254,35,o),
(210,35,cs)
);
},
{
closed = 1;
nodes = (
(125,379,l),
(160,665,l),
(289,665,ls),
(375,665,o),
(409,623,o),
(396,520,cs),
(385,431,o),
(333,379,o),
(251,379,cs)
);
}
);
width = 479;
}
);
unicode = 66;
},
{
glyphname = C;
layers = (
{
anchors = (
{
name = b.uni0324_2;
position = "{261, 0}";
},
{
name = m.uni0308_1;
position = "{349, 700}";
}
);
layerId = "A4AEBACF-46F5-4C7E-8680-4ABD111F4CF9";
shapes = (
{
closed = 1;
nodes = (
(370,-8,o),
(452,30,o),
(498,98,cs),
(521,132,o),
(534,172,o),
(540,219,cs),
(541,228,l),
(375,228,l),
(373,217,l),
(369,181,o),
(331,147,o),
(280,147,cs),
(217,147,o),
(195,187,o),
(207,286,cs),
(223,409,ls),
(236,516,o),
(266,557,o),
(328,557,cs),
(383,557,o),
(411,519,o),
(405,474,c),
(405,469,l),
(573,469,l),
(574,475,l),
(586,572,o),
(553,643,o),
(481,680,cs),
(445,699,o),
(401,708,o),
(349,708,cs),
(170,708,o),
(77,610,o),
(53,419,cs),
(36,280,ls),
(12,89,o),
(81,-8,o),
(256,-8,cs)
);
}
);
width = 587;
},
{
anchors = (
{
name = b.uni0324_2;
position = "{234, 0}";
},
{
name = m.uni0308_1;
position = "{322, 702}";
}
);
layerId = "9252B17A-7510-4296-BE17-39E6376BAFDF";
shapes = (
{
closed = 1;
nodes = (
(269,-8,o),
(336,25,o),
(376,86,cs),
(397,117,o),
(409,153,o),
(415,196,cs),
(418,221,l),
(264,221,l),
(261,197,ls),
(256,157,o),
(236,135,o),
(209,135,c),
(178,136,o),
(167,159,o),
(173,208,cs),
(208,486,ls),
(215,539,o),
(227,565,o),
(263,565,cs),
(287,565,o),
(304,544,o),
(299,504,cs),
(295,473,l),
(450,473,l),
(454,504,ls),
(465,593,o),
(442,654,o),
(388,685,cs),
(361,700,o),
(326,708,o),
(286,708,cs),
(162,708,o),
(72,636,o),
(57,515,cs),
(15,186,ls),
(0,59,o),
(63,-8,o),
(184,-8,cs)
);
}
);
width = 454;
},
{
anchors = (
{
name = b.uni0324_2;
position = "{262, 0}";
},
{
name = m.uni0308_1;
position = "{350, 700}";
}
);
layerId = "EA56A89A-B866-4D06-B6B2-64326ABDBB58";
shapes = (
{
closed = 1;
nodes = (
(368,-8,o),
(447,29,o),
(494,96,cs),
(516,129,o),
(531,168,o),
(537,213,c),
(537,220,l),
(409,220,l),
(408,212,ls),
(401,155,o),
(351,112,o),
(280,112,cs),
(197,112,o),
(165,163,o),
(179,275,cs),
(197,419,ls),
(212,540,o),
(255,590,o),
(338,590,cs),
(411,590,o),
(449,545,o),
(441,481,c),
(441,477,l),
(572,477,l),
(572,482,l),
(584,574,o),
(551,644,o),
(481,681,cs),
(446,699,o),
(404,708,o),
(354,708,cs),
(185,708,o),
(90,614,o),
(66,426,cs),
(47,273,ls),
(23,85,o),
(96,-8,o),
(262,-8,cs)
);
}
);
width = 596;
},
{
anchors = (
{
name = b.uni0324_2;
position = "{191, 0}";
},
{
name = m.uni0308_1;
position = "{279, 707}";
}
);
layerId = "134B4203-AF9A-4952-80B5-5BBA28114A85";
shapes = (
{
closed = 1;
nodes = (
(271,-8,o),
(336,24,o),
(375,85,cs),
(395,116,o),
(407,152,o),
(412,195,c),
(415,214,l),
(294,214,l),
(292,196,ls),
(284,136,o),
(254,104,o),
(210,104,c),
(160,105,o),
(141,138,o),
(150,206,cs),
(185,487,ls),
(194,560,o),
(220,595,o),
(271,595,cs),
(314,595,o),
(338,564,o),
(330,503,cs),
(327,482,l),
(449,482,l),
(452,504,ls),
(463,593,o),
(440,654,o),
(387,685,cs),
(361,700,o),
(327,708,o),
(288,708,cs),
(168,708,o),
(81,635,o),
(65,507,cs),
(26,193,ls),
(10,62,o),
(74,-8,o),
(192,-8,cs)
);
}
);
width = 463;
},
{
anchors = (
{
name = b.uni0324_2;
position = "{263, 0}";
},
{
name = m.uni0308_1;
position = "{351, 700}";
}
);
layerId = "5E600FEC-E230-456C-858E-F50E50395600";
shapes = (
{
closed = 1;
nodes = (
(365,-8,o),
(442,29,o),
(489,93,c),
(511,125,o),
(525,162,o),
(531,204,c),
(531,208,l),
(460,208,l),
(460,204,l),
(449,116,o),
(382,60,o),
(281,60,cs),
(167,60,o),
(118,126,o),
(134,258,cs),
(156,434,ls),
(174,578,o),
(239,640,o),
(352,640,cs),
(453,640,o),
(507,584,o),
(496,492,c),
(495,489,l),
(568,489,l),
(569,492,l),
(579,577,o),
(547,645,o),
(481,681,cs),
(447,699,o),
(408,708,o),
(361,708,cs),
(208,708,o),
(108,620,o),
(85,437,cs),
(63,262,ls),
(40,79,o),
(118,-8,o),
(271,-8,cs)
);
}
);
width = 608;
},
{
anchors = (
{
name = b.uni0324_2;
position = "{127, 0}";
},
{
name = m.uni0308_1;
position = "{216, 714}";
}
);
layerId = "CE7D5885-7D4C-4AC1-9EEB-BF5BBC0FBEB6";
shapes = (
{
closed = 1;
nodes = (
(276,-8,o),
(334,23,o),
(372,84,cs),
(391,114,o),
(403,151,o),
(408,194,c),
(410,204,l),
(340,204,l),
(338,195,l),
(327,104,o),
(280,58,o),
(211,58,cs),
(134,59,o),
(102,107,o),
(114,203,cs),
(150,488,ls),
(163,592,o),
(209,640,o),
(284,640,cs),
(354,640,o),
(388,595,o),
(377,502,cs),
(376,495,l),
(448,495,l),
(449,504,ls),
(460,593,o),
(436,654,o),
(385,685,c),
(359,700,o),
(327,708,o),
(291,708,cs),
(175,708,o),
(96,634,o),
(79,495,cs),
(42,204,ls),
(25,67,o),
(89,-8,o),
(203,-8,cs)
);
}
);
width = 475;
},
{
anchors = (
{
name = b.uni0324_2;
position = "{264, 0}";
},
{
name = m.uni0308_1;
position = "{352, 700}";
}
);
layerId = "5F4732EF-903E-4848-ACC1-4EB306E3746F";
shapes = (
{
closed = 1;
nodes = (
(363,-8,o),
(437,28,o),
(484,91,cs),
(508,122,o),
(522,158,o),
(527,198,c),
(527,200,l),
(494,200,l),
(494,199,l),
(480,90,o),
(401,25,o),
(281,25,cs),
(146,25,o),
(88,102,o),
(106,247,cs),
(131,444,ls),
(151,603,o),
(229,673,o),
(362,673,cs),
(480,673,o),
(545,610,o),
(531,499,c),
(531,497,l),
(566,497,l),
(567,499,l),
(577,579,o),
(545,646,o),
(481,682,cs),
(449,699,o),
(410,708,o),
(366,708,cs),
(222,708,o),
(120,624,o),
(98,444,cs),
(74,255,ls),
(51,75,o),
(133,-8,o),
(277,-8,cs)
);
}
);
width = 617;
},
{
anchors = (
{
name = b.uni0324_2;
position = "{84, 0}";
},
{
name = m.uni0308_1;
position = "{174, 719}";
}
);
layerId = "E645874F-62C6-4FA6-A4CB-DCB795EB9F1B";
shapes = (
{
closed = 1;
nodes = (
(278,-8,o),
(335,22,o),
(371,83,c),
(390,113,o),
(401,150,o),
(406,193,c),
(407,197,l),
(370,197,l),
(369,194,l),
(356,83,o),
(298,27,o),
(212,27,cs),
(118,28,o),
(76,86,o),
(91,201,cs),
(127,489,ls),
(142,613,o),
(202,670,o),
(293,670,cs),
(381,670,o),
(422,616,o),
(408,501,c),
(408,504,l),
(447,504,l),
(447,504,l),
(458,593,o),
(434,654,o),
(384,685,cs),
(359,700,o),
(328,708,o),
(293,708,cs),
(181,708,o),
(105,632,o),
(87,487,cs),
(53,211,ls),
(35,70,o),
(99,-8,o),
(211,-8,cs)
);
}
);
width = 484;
}
);
leftKerningGroup = C;
unicode = 67;
},
{
glyphname = Ccedilla;
layers = (
{
layerId = "1B3EF96C-8CB6-4FB7-BF3A-0EF12B3D4F9E";
name = "#instance";
shapes = (
{
closed = 1;
nodes = (
(128,-220,l),
(175,-220,l),
(232,-221,o),
(306,-197,o),
(306,-128,cs),
(306,-85,o),
(271,-58,o),
(213,-54,c),
(233,-7,l),
(341,4,o),
(395,95,o),
(406,193,c),
(407,197,l),
(370,197,l),
(369,194,l),
(356,83,o),
(298,27,o),
(212,27,c),
(101,28,o),
(78,110,o),
(91,201,c),
(127,489,ls),
(142,613,o),
(202,670,o),
(293,670,cs),
(395,670,o),
(421,588,o),
(408,504,cs),
(407,497,l),
(446,497,l),
(447,504,ls),
(463,614,o),
(419,708,o),
(293,708,cs),
(181,708,o),
(105,632,o),
(87,487,cs),
(53,211,l),
(38,105,o),
(74,-3,o),
(200,-8,c),
(176,-61,l),
(174,-83,l),
(193,-83,ls),
(239,-83,o),
(272,-99,o),
(272,-130,cs),
(272,-175,o),
(215,-186,o),
(180,-186,cs),
(133,-186,l)
);
}
);
width = 484;
},
{
layerId = "A4AEBACF-46F5-4C7E-8680-4ABD111F4CF9";
shapes = (
{
closed = 1;
nodes = (
(165,-220,l),
(239,-220,l),
(312,-222,o),
(372,-187,o),
(372,-109,cs),
(372,-66,o),
(349,-39,o),
(300,-34,c),
(313,-5,l),
(446,12,o),
(523,89,o),
(540,219,c),
(541,228,l),
(375,228,l),
(373,217,l),
(369,181,o),
(331,147,o),
(280,147,cs),
(197,147,o),
(199,226,o),
(207,286,cs),
(223,409,ls),
(236,516,o),
(266,557,o),
(328,557,cs),
(383,557,o),
(411,519,o),
(405,474,c),
(405,469,l),
(573,469,l),
(574,475,l),
(596,626,o),
(496,708,o),
(349,708,cs),
(170,708,o),
(77,610,o),
(53,419,cs),
(36,280,ls),
(17,128,o),
(50,3,o),
(234,-7,c),
(214,-52,l),
(210,-85,l),
(256,-85,ls),
(272,-85,o),
(292,-92,o),
(292,-109,cs),
(292,-131,o),
(266,-133,o),
(250,-133,cs),
(176,-133,l)
);
}
);
width = 587;
},
{
layerId = "9252B17A-7510-4296-BE17-39E6376BAFDF";
shapes = (
{
closed = 1;
nodes = (
(78,-220,l),
(152,-220,l),
(225,-222,o),
(285,-187,o),
(285,-109,cs),
(285,-66,o),
(262,-39,o),
(213,-34,c),
(226,-5,l),
(339,11,o),
(400,89,o),
(415,196,cs),
(418,221,l),
(264,221,l),
(261,197,ls),
(256,157,o),
(236,135,o),
(209,135,c),
(178,136,o),
(167,159,o),
(173,208,cs),
(208,486,ls),
(215,539,o),
(227,565,o),
(263,565,cs),
(287,565,o),
(304,544,o),
(299,504,cs),
(295,473,l),
(450,473,l),
(454,504,ls),
(470,625,o),
(420,708,o),
(286,708,cs),
(162,708,o),
(72,636,o),
(57,515,cs),
(15,186,ls),
(7,86,o),
(35,9,o),
(147,-6,c),
(127,-52,l),
(123,-85,l),
(169,-85,ls),
(185,-85,o),
(205,-92,o),
(205,-109,cs),
(205,-131,o),
(179,-133,o),
(163,-133,cs),
(89,-133,l)
);
}
);
width = 454;
},
{
layerId = "EA56A89A-B866-4D06-B6B2-64326ABDBB58";
shapes = (
{
closed = 1;
nodes = (
(173,-220,l),
(241,-220,l),
(311,-221,o),
(373,-189,o),
(373,-113,cs),
(373,-69,o),
(350,-42,o),
(300,-37,c),
(314,-5,l),
(440,11,o),
(521,89,o),
(537,213,c),
(537,220,l),
(409,220,l),
(408,212,l),
(401,155,o),
(351,112,o),
(280,112,cs),
(176,112,o),
(169,196,o),
(179,275,cs),
(197,419,ls),
(212,540,o),
(255,590,o),
(338,590,cs),
(411,590,o),
(449,545,o),
(441,481,c),
(441,477,l),
(572,477,l),
(572,482,l),
(593,627,o),
(495,708,o),
(354,708,cs),
(185,708,o),
(90,614,o),
(66,426,cs),
(47,273,ls),
(28,126,o),
(63,3,o),
(239,-7,c),
(221,-50,l),
(216,-85,l),
(258,-85,ls),
(278,-85,o),
(301,-92,o),
(301,-113,cs),
(301,-139,o),
(271,-143,o),
(251,-143,cs),
(183,-143,l)
);
}
);
width = 596;
},
{
layerId = "134B4203-AF9A-4952-80B5-5BBA28114A85";
shapes = (
{
closed = 1;
nodes = (
(106,-220,l),
(174,-220,l),
(244,-221,o),
(306,-189,o),
(306,-113,cs),
(306,-69,o),
(283,-42,o),
(233,-37,c),
(248,-2,l),
(348,20,o),
(401,98,o),
(412,195,c),
(415,214,l),
(294,214,l),
(292,196,ls),
(284,136,o),
(254,104,o),
(210,104,c),
(145,106,o),
(146,158,o),
(150,206,cs),
(185,487,ls),
(194,560,o),
(220,595,o),
(271,595,cs),
(314,595,o),
(338,564,o),
(330,503,cs),
(327,482,l),
(449,482,l),
(452,504,ls),
(468,622,o),
(421,708,o),
(288,708,cs),
(168,708,o),
(81,635,o),
(65,507,cs),
(26,193,ls),
(10,88,o),
(57,2,o),
(172,-7,c),
(154,-50,l),
(149,-85,l),
(191,-85,ls),
(211,-85,o),
(234,-92,o),
(234,-113,cs),
(234,-139,o),
(204,-143,o),
(184,-143,cs),
(116,-143,l)
);
}
);
width = 463;
},
{
layerId = "5E600FEC-E230-456C-858E-F50E50395600";
shapes = (
{
closed = 1;
nodes = (
(185,-220,l),
(243,-220,ls),
(310,-220,o),
(375,-192,o),
(375,-117,cs),
(375,-72,o),
(349,-47,o),
(301,-42,c),
(316,-5,l),
(434,11,o),
(530,86,o),
(530,204,c),
(531,208,l),
(460,208,l),
(459,204,l),
(459,115,o),
(382,60,o),
(281,60,cs),
(150,60,o),
(120,148,o),
(134,258,cs),
(156,434,ls),
(174,578,o),
(239,640,o),
(352,640,cs),
(443,640,o),
(496,594,o),
(496,492,c),
(495,489,l),
(568,489,l),
(569,492,l),
(569,630,o),
(477,708,o),
(361,708,cs),
(208,708,o),
(108,620,o),
(85,437,cs),
(63,262,ls),
(43,125,o),
(85,4,o),
(246,-7,c),
(229,-48,l),
(224,-85,l),
(260,-85,ls),
(286,-85,o),
(316,-93,o),
(316,-119,cs),
(316,-150,o),
(275,-157,o),
(251,-157,cs),
(193,-157,l)
);
}
);
width = 608;
},
{
layerId = "CE7D5885-7D4C-4AC1-9EEB-BF5BBC0FBEB6";
shapes = (
{
closed = 1;
nodes = (
(118,-220,l),
(176,-220,ls),
(243,-220,o),
(308,-192,o),
(308,-117,cs),
(308,-72,o),
(282,-47,o),
(234,-42,c),
(250,-3,l),
(347,18,o),
(397,101,o),
(408,194,c),
(410,204,l),
(340,204,l),
(338,195,l),
(327,104,o),
(280,58,o),
(211,58,cs),
(122,59,o),
(102,131,o),
(114,203,cs),
(150,488,ls),
(163,592,o),
(209,640,o),
(284,640,cs),
(372,640,o),
(383,572,o),
(377,502,c),
(376,495,l),
(448,495,l),
(449,504,l),
(465,616,o),
(418,708,o),
(291,708,cs),
(175,708,o),
(96,634,o),
(79,495,cs),
(42,204,ls),
(28,103,o),
(62,5,o),
(179,-7,c),
(162,-48,l),
(157,-85,l),
(193,-85,ls),
(219,-85,o),
(249,-93,o),
(249,-119,cs),
(249,-150,o),
(208,-157,o),
(184,-157,cs),
(126,-157,l)
);
}
);
width = 475;
},
{
layerId = "5F4732EF-903E-4848-ACC1-4EB306E3746F";
shapes = (
{
closed = 1;
nodes = (
(186,-220,l),
(233,-220,l),
(290,-221,o),
(364,-197,o),
(364,-128,cs),
(364,-85,o),
(329,-58,o),
(271,-54,c),
(291,-8,l),
(410,-2,o),
(512,78,o),
(527,198,c),
(527,200,l),
(494,200,l),
(494,199,l),
(480,90,o),
(401,25,o),
(281,25,cs),
(133,25,o),
(90,118,o),
(106,247,cs),
(131,444,ls),
(151,603,o),
(229,673,o),
(362,673,cs),
(480,673,o),
(545,610,o),
(531,499,c),
(531,497,l),
(566,497,l),
(567,499,l),
(584,633,o),
(489,708,o),
(366,708,cs),
(222,708,o),
(120,624,o),
(98,444,cs),
(74,255,ls),
(54,119,o),
(99,1,o),
(258,-7,c),
(234,-61,l),
(232,-83,l),
(251,-83,ls),
(297,-83,o),
(330,-99,o),
(330,-130,cs),
(330,-175,o),
(273,-186,o),
(238,-186,cs),
(191,-186,l)
);
}
);
width = 617;
},
{
layerId = "E645874F-62C6-4FA6-A4CB-DCB795EB9F1B";
shapes = (
{
closed = 1;
nodes = (
(128,-220,l),
(175,-220,l),
(232,-221,o),
(306,-197,o),
(306,-128,cs),
(306,-85,o),
(271,-58,o),
(213,-54,c),
(233,-7,l),
(341,4,o),
(395,95,o),
(406,193,c),
(407,197,l),
(370,197,l),
(369,194,l),
(356,83,o),
(298,27,o),
(212,27,cs),
(101,28,o),
(78,110,o),
(91,201,cs),
(127,489,ls),
(142,613,o),
(202,670,o),
(293,670,cs),
(395,670,o),
(421,588,o),
(408,504,c),
(407,497,l),
(446,497,l),
(447,504,l),
(463,614,o),
(419,708,o),
(293,708,cs),
(181,708,o),
(105,632,o),
(87,487,cs),
(53,211,ls),
(38,105,o),
(74,-3,o),
(200,-8,c),
(176,-61,l),
(174,-83,l),
(193,-83,ls),
(239,-83,o),
(272,-99,o),
(272,-130,cs),
(272,-175,o),
(215,-186,o),
(180,-186,cs),
(133,-186,l)
);
}
);
width = 484;
}
);
leftKerningGroup = C;
unicode = 199;
},
{
glyphname = D;
layers = (
{
layerId = "1B3EF96C-8CB6-4FB7-BF3A-0EF12B3D4F9E";
name = "#instance";
shapes = (
{
closed = 1;
nodes = (
(34,0,l),
(212,0,ls),
(321,0,o),
(399,76,o),
(417,223,cs),
(449,477,ls),
(467,620,o),
(410,700,o),
(294,700,cs),
(122,700,l)
);
},
{
closed = 1;
nodes = (
(80,37,l),
(158,664,l),
(292,664,ls),
(385,664,o),
(424,600,o),
(409,479,cs),
(376,212,ls),
(361,93,o),
(304,37,o),
(213,37,cs)
);
}
);
width = 485;
},
{
layerId = "A4AEBACF-46F5-4C7E-8680-4ABD111F4CF9";
shapes = (
{
closed = 1;
nodes = (
(6,0,l),
(247,0,ls),
(425,0,o),
(520,99,o),
(544,290,cs),
(560,412,ls),
(585,612,o),
(506,700,o),
(341,700,cs),
(93,700,l)
);
},
{
closed = 1;
nodes = (
(195,150,l),
(245,550,l),
(320,550,ls),
(384,550,o),
(402,506,o),
(389,403,cs),
(375,294,ls),
(363,195,o),
(328,150,o),
(270,150,cs)
);
}
);
width = 580;
},
{
layerId = "9252B17A-7510-4296-BE17-39E6376BAFDF";
shapes = (
{
closed = 1;
nodes = (
(-6,0,l),
(178,0,ls),
(306,0,o),
(391,72,o),
(406,192,cs),
(446,508,ls),
(461,632,o),
(394,700,o),
(278,700,cs),
(82,700,l)
);
},
{
closed = 1;
nodes = (
(165,142,l),
(217,556,l),
(255,556,ls),
(281,556,o),
(294,531,o),
(287,476,cs),
(254,216,ls),
(249,171,o),
(230,142,o),
(203,142,cs)
);
}
);
width = 447;
},
{
layerId = "EA56A89A-B866-4D06-B6B2-64326ABDBB58";
shapes = (
{
closed = 1;
nodes = (
(22,0,l),
(260,0,ls),
(428,0,o),
(524,95,o),
(547,282,cs),
(564,419,ls),
(588,611,o),
(512,700,o),
(352,700,cs),
(109,700,l)
);
},
{
closed = 1;
nodes = (
(168,117,l),
(226,583,l),
(336,583,ls),
(418,583,o),
(448,531,o),
(433,412,cs),
(417,283,ls),
(403,171,o),
(356,117,o),
(278,117,cs)
);
}
);
width = 596;
},
{
layerId = "134B4203-AF9A-4952-80B5-5BBA28114A85";
shapes = (
{
closed = 1;
nodes = (
(6,0,l),
(188,0,ls),
(310,0,o),
(393,73,o),
(409,201,cs),
(447,499,ls),
(463,628,o),
(399,700,o),
(283,700,cs),
(93,700,l)
);
},
{
closed = 1;
nodes = (
(141,112,l),
(200,587,l),
(266,587,ls),
(311,587,o),
(331,550,o),
(322,477,cs),
(289,215,ls),
(281,148,o),
(252,112,o),
(206,112,cs)
);
}
);
width = 458;
},
{
layerId = "5E600FEC-E230-456C-858E-F50E50395600";
shapes = (
{
closed = 1;
nodes = (
(44,0,l),
(280,0,ls),
(432,0,o),
(529,90,o),
(552,270,cs),
(572,429,ls),
(594,609,o),
(520,700,o),
(368,700,cs),
(132,700,l)
);
},
{
closed = 1;
nodes = (
(127,68,l),
(197,632,l),
(360,632,ls),
(468,632,o),
(516,567,o),
(498,426,cs),
(478,266,ls),
(462,134,o),
(399,68,o),
(290,68,cs)
);
}
);
width = 619;
},
{
layerId = "CE7D5885-7D4C-4AC1-9EEB-BF5BBC0FBEB6";
shapes = (
{
closed = 1;
nodes = (
(22,0,l),
(202,0,ls),
(316,0,o),
(397,75,o),
(414,214,cs),
(448,486,ls),
(465,623,o),
(405,700,o),
(289,700,cs),
(110,700,l)
);
},
{
closed = 1;
nodes = (
(104,67,l),
(175,633,l),
(281,633,ls),
(355,633,o),
(387,581,o),
(374,478,cs),
(341,213,ls),
(329,116,o),
(283,67,o),
(210,67,cs)
);
}
);
width = 474;
},
{
layerId = "5F4732EF-903E-4848-ACC1-4EB306E3746F";
shapes = (
{
closed = 1;
nodes = (
(60,0,l),
(294,0,ls),
(435,0,o),
(532,86,o),
(554,262,cs),
(576,436,ls),
(598,608,o),
(525,700,o),
(378,700,cs),
(147,700,l)
);
},
{
closed = 1;
nodes = (
(99,35,l),
(178,665,l),
(376,665,ls),
(502,665,o),
(562,592,o),
(542,435,cs),
(519,255,ls),
(501,110,o),
(427,35,o),
(297,35,cs)
);
}
);
width = 635;
},
{
layerId = "E645874F-62C6-4FA6-A4CB-DCB795EB9F1B";
shapes = (
{
closed = 1;
nodes = (
(34,0,l),
(212,0,ls),
(321,0,o),
(399,76,o),
(417,223,cs),
(449,477,ls),
(467,620,o),
(410,700,o),
(294,700,cs),
(122,700,l)
);
},
{
closed = 1;
nodes = (
(80,37,l),
(158,664,l),
(292,664,ls),
(385,664,o),
(424,600,o),
(409,479,cs),
(376,212,ls),
(361,93,o),
(304,37,o),
(213,37,cs)
);
}
);
width = 485;
}
);
unicode = 68;
},
{
glyphname = E;
layers = (
{
anchors = (
{
name = b.uni0324_2;
position = "{51, 0}";
},
{
name = m.uni0308_1;
position = "{139, 700}";
},
{
name = m.uni0328;
position = "{120, 10}";
}
);
layerId = "1B3EF96C-8CB6-4FB7-BF3A-0EF12B3D4F9E";
name = "#instance";
shapes = (
{
closed = 1;
nodes = (
(36,0,l),
(319,0,l),
(323,35,l),
(80,35,l),
(117,338,l),
(323,338,l),
(328,374,l),
(122,374,l),
(158,665,l),
(402,665,l),
(406,700,l),
(124,700,l)
);
}
);
width = 397;
},
{
anchors = (
{
name = b.uni0324_2;
position = "{239, 0}";
},
{
name = m.uni0308_1;
position = "{327, 700}";
},
{
name = m.uni0328;
position = "{461, 10}";
}
);
layerId = "A4AEBACF-46F5-4C7E-8680-4ABD111F4CF9";
shapes = (
{
closed = 1;
nodes = (
(5,0,l),
(488,0,l),
(507,150,l),
(194,150,l),
(210,278,l),
(481,278,l),
(500,427,l),
(229,427,l),
(244,550,l),
(557,550,l),
(576,700,l),
(92,700,l)
);
}
);
width = 555;
},
{
anchors = (
{
name = b.uni0324_2;
position = "{216, 0}";
},
{
name = m.uni0308_1;
position = "{304, 700}";
},
{
name = m.uni0328;
position = "{420, 10}";
}
);
layerId = "9252B17A-7510-4296-BE17-39E6376BAFDF";
shapes = (
{
closed = 1;
nodes = (
(-8,0,l),
(347,0,l),
(365,143,l),
(162,143,l),
(180,285,l),
(364,285,l),
(382,427,l),
(198,427,l),
(214,556,l),
(417,556,l),
(435,700,l),
(80,700,l)
);
}
);
width = 401;
},
{
anchors = (
{
name = b.uni0324_2;
position = "{240, 0}";
},
{
name = m.uni0308_1;
position = "{328, 700}";
},
{
name = m.uni0328;
position = "{462, 10}";
}
);
layerId = "EA56A89A-B866-4D06-B6B2-64326ABDBB58";
shapes = (
{
closed = 1;
nodes = (
(21,0,l),
(478,0,l),
(492,117,l),
(167,117,l),
(189,297,l),
(470,297,l),
(485,414,l),
(204,414,l),
(225,583,l),
(551,583,l),
(565,700,l),
(108,700,l)
);
}
);
width = 551;
},
{
anchors = (
{
name = b.uni0324_2;
position = "{169, 0}";
},
{
name = m.uni0308_1;
position = "{257, 700}";
},
{
name = m.uni0328;
position = "{335, 10}";
}
);
layerId = "134B4203-AF9A-4952-80B5-5BBA28114A85";
shapes = (
{
closed = 1;
nodes = (
(5,0,l),
(339,0,l),
(353,112,l),
(139,112,l),
(162,300,l),
(352,300,l),
(366,412,l),
(176,412,l),
(198,587,l),
(413,587,l),
(427,700,l),
(92,700,l)
);
}
);
width = 400;
},
{
anchors = (
{
name = b.uni0324_2;
position = "{241, 0}";
},
{
name = m.uni0308_1;
position = "{329, 700}";
},
{
name = m.uni0328;
position = "{463, 10}";
}
);
layerId = "5E600FEC-E230-456C-858E-F50E50395600";
shapes = (
{
closed = 1;
nodes = (
(43,0,l),
(461,0,l),
(470,68,l),
(125,68,l),
(157,326,l),
(453,326,l),
(461,394,l),
(165,394,l),
(195,632,l),
(540,632,l),
(549,700,l),
(131,700,l)
);
}
);
width = 544;
},
{
anchors = (
{
name = b.uni0324_2;
position = "{98, 0}";
},
{
name = m.uni0308_1;
position = "{186, 700}";
},
{
name = m.uni0328;
position = "{206, 10}";
}
);
layerId = "CE7D5885-7D4C-4AC1-9EEB-BF5BBC0FBEB6";
shapes = (
{
closed = 1;
nodes = (
(23,0,l),
(327,0,l),
(335,66,l),
(103,66,l),
(135,323,l),
(335,323,l),
(343,389,l),
(143,389,l),
(174,634,l),
(406,634,l),
(414,700,l),
(111,700,l)
);
}
);
width = 398;
},
{
anchors = (
{
name = b.uni0324_2;
position = "{242, 0}";
},
{
name = m.uni0308_1;
position = "{330, 700}";
},
{
name = m.uni0328;
position = "{464, 10}";
}
);
layerId = "5F4732EF-903E-4848-ACC1-4EB306E3746F";
shapes = (
{
closed = 1;
nodes = (
(59,0,l),
(451,0,l),
(455,35,l),
(97,35,l),
(136,345,l),
(441,345,l),
(446,381,l),
(140,381,l),
(176,665,l),
(534,665,l),
(538,700,l),
(146,700,l)
);
}
);
width = 540;
},
{
anchors = (
{
name = b.uni0324_2;
position = "{51, 0}";
},
{
name = m.uni0308_1;
position = "{139, 700}";
},
{
name = m.uni0328;
position = "{120, 10}";
}
);
layerId = "E645874F-62C6-4FA6-A4CB-DCB795EB9F1B";
shapes = (
{
closed = 1;
nodes = (
(36,0,l),
(319,0,l),
(323,35,l),
(80,35,l),
(117,338,l),
(323,338,l),
(328,374,l),
(122,374,l),
(158,665,l),
(402,665,l),
(406,700,l),
(124,700,l)
);
}
);
width = 397;
}
);
unicode = 69;
},
{
glyphname = Ecedilla;
layers = (
{
layerId = "1B3EF96C-8CB6-4FB7-BF3A-0EF12B3D4F9E";
name = "#instance";
shapes = (
{
closed = 1;
nodes = (
(36,0,l),
(160,0,l),
(133,-61,l),
(131,-83,l),
(150,-83,ls),
(199,-83,o),
(233,-101,o),
(229,-135,cs),
(225,-169,o),
(186,-186,o),
(137,-186,cs),
(90,-186,l),
(85,-220,l),
(132,-220,l),
(201,-221,o),
(255,-192,o),
(262,-138,cs),
(268,-90,o),
(233,-58,o),
(170,-54,c),
(193,0,l),
(319,0,l),
(323,35,l),
(80,35,l),
(117,338,l),
(323,338,l),
(328,374,l),
(122,374,l),
(158,665,l),
(402,665,l),
(406,700,l),
(124,700,l)
);
}
);
width = 397;
},
{
layerId = "A4AEBACF-46F5-4C7E-8680-4ABD111F4CF9";
shapes = (
{
closed = 1;
nodes = (
(5,0,l),
(222,0,l),
(199,-52,l),
(195,-85,l),
(241,-85,ls),
(258,-85,o),
(279,-93,o),
(277,-113,c),
(274,-132,o),
(247,-133,o),
(235,-133,cs),
(161,-133,l),
(150,-220,l),
(224,-220,l),
(298,-222,o),
(348,-186,o),
(355,-131,cs),
(363,-75,o),
(342,-40,o),
(285,-34,c),
(300,0,l),
(488,0,l),
(507,150,l),
(194,150,l),
(210,278,l),
(481,278,l),
(500,427,l),
(229,427,l),
(244,550,l),
(557,550,l),
(576,700,l),
(92,700,l)
);
}
);
width = 555;
},
{
layerId = "9252B17A-7510-4296-BE17-39E6376BAFDF";
shapes = (
{
closed = 1;
nodes = (
(-8,0,l),
(124,0,l),
(101,-52,l),
(97,-85,l),
(143,-85,ls),
(160,-85,o),
(181,-93,o),
(179,-113,c),
(176,-132,o),
(149,-133,o),
(137,-133,cs),
(63,-133,l),
(52,-220,l),
(126,-220,l),
(200,-222,o),
(250,-186,o),
(257,-131,cs),
(265,-75,o),
(244,-40,o),
(187,-34,c),
(202,0,l),
(347,0,l),
(365,143,l),
(162,143,l),
(180,285,l),
(364,285,l),
(382,427,l),
(198,427,l),
(214,556,l),
(417,556,l),
(435,700,l),
(80,700,l)
);
}
);
width = 401;
},
{
layerId = "EA56A89A-B866-4D06-B6B2-64326ABDBB58";
shapes = (
{
closed = 1;
nodes = (
(21,0,l),
(220,0,l),
(199,-50,l),
(194,-85,l),
(236,-85,ls),
(257,-85,o),
(282,-93,o),
(279,-117,cs),
(277,-139,o),
(246,-143,o),
(229,-143,cs),
(161,-143,l),
(151,-220,l),
(219,-220,l),
(288,-221,o),
(342,-190,o),
(350,-131,cs),
(357,-77,o),
(334,-43,o),
(278,-37,c),
(294,0,l),
(478,0,l),
(492,117,l),
(167,117,l),
(189,297,l),
(470,297,l),
(485,414,l),
(204,414,l),
(225,583,l),
(551,583,l),
(565,700,l),
(108,700,l)
);
}
);
width = 551;
},
{
layerId = "134B4203-AF9A-4952-80B5-5BBA28114A85";
shapes = (
{
closed = 1;
nodes = (
(5,0,l),
(144,0,l),
(123,-50,l),
(118,-85,l),
(160,-85,ls),
(181,-85,o),
(206,-93,o),
(203,-117,cs),
(201,-139,o),
(170,-143,o),
(153,-143,cs),
(85,-143,l),
(75,-220,l),
(143,-220,l),
(212,-221,o),
(266,-190,o),
(274,-131,cs),
(281,-77,o),
(258,-43,o),
(202,-37,c),
(218,0,l),
(339,0,l),
(353,112,l),
(139,112,l),
(162,300,l),
(352,300,l),
(366,412,l),
(176,412,l),
(198,587,l),
(413,587,l),
(427,700,l),
(92,700,l)
);
}
);
width = 400;
},
{
layerId = "5E600FEC-E230-456C-858E-F50E50395600";
shapes = (
{
closed = 1;
nodes = (
(43,0,l),
(218,0,l),
(198,-48,l),
(193,-85,l),
(229,-85,ls),
(256,-85,o),
(288,-94,o),
(285,-123,c),
(281,-150,o),
(246,-157,o),
(220,-157,cs),
(162,-157,l),
(154,-220,l),
(212,-220,ls),
(274,-220,o),
(334,-197,o),
(343,-131,cs),
(349,-78,o),
(323,-47,o),
(270,-42,c),
(287,0,l),
(461,0,l),
(470,68,l),
(125,68,l),
(157,326,l),
(453,326,l),
(461,394,l),
(165,394,l),
(195,632,l),
(540,632,l),
(549,700,l),
(131,700,l)
);
}
);
width = 544;
},
{
layerId = "CE7D5885-7D4C-4AC1-9EEB-BF5BBC0FBEB6";
shapes = (
{
closed = 1;
nodes = (
(23,0,l),
(144,0,l),
(124,-48,l),
(119,-85,l),
(155,-85,ls),
(182,-85,o),
(214,-94,o),
(211,-123,c),
(207,-150,o),
(172,-157,o),
(146,-157,cs),
(88,-157,l),
(80,-220,l),
(138,-220,ls),
(200,-220,o),
(260,-197,o),
(269,-131,cs),
(275,-78,o),
(249,-47,o),
(196,-42,c),
(213,0,l),
(327,0,l),
(335,66,l),
(103,66,l),
(135,323,l),
(335,323,l),
(343,389,l),
(143,389,l),
(174,634,l),
(406,634,l),
(414,700,l),
(111,700,l)
);
}
);
width = 398;
},
{
layerId = "5F4732EF-903E-4848-ACC1-4EB306E3746F";
shapes = (
{
closed = 1;
nodes = (
(59,0,l),
(223,0,l),
(196,-61,l),
(194,-83,l),
(213,-83,ls),
(262,-83,o),
(296,-101,o),
(292,-135,cs),
(288,-169,o),
(249,-186,o),
(200,-186,cs),
(153,-186,l),
(148,-220,l),
(195,-220,l),
(264,-221,o),
(318,-192,o),
(325,-138,cs),
(331,-90,o),
(296,-58,o),
(233,-54,c),
(256,0,l),
(451,0,l),
(455,35,l),
(97,35,l),
(136,345,l),
(441,345,l),
(446,381,l),
(140,381,l),
(176,665,l),
(534,665,l),
(538,700,l),
(146,700,l)
);
}
);
width = 540;
},
{
layerId = "E645874F-62C6-4FA6-A4CB-DCB795EB9F1B";
shapes = (
{
closed = 1;
nodes = (
(36,0,l),
(160,0,l),
(133,-61,l),
(131,-83,l),
(150,-83,ls),
(199,-83,o),
(233,-101,o),
(229,-135,cs),
(225,-169,o),
(186,-186,o),
(137,-186,cs),
(90,-186,l),
(85,-220,l),
(132,-220,l),
(201,-221,o),
(255,-192,o),
(262,-138,cs),
(268,-90,o),
(233,-58,o),
(170,-54,c),
(193,0,l),
(319,0,l),
(323,35,l),
(80,35,l),
(117,338,l),
(323,338,l),
(328,374,l),
(122,374,l),
(158,665,l),
(402,665,l),
(406,700,l),
(124,700,l)
);
}
);
width = 397;
}
);
unicode = 552;
},
{
glyphname = F;
layers = (
{
layerId = "1B3EF96C-8CB6-4FB7-BF3A-0EF12B3D4F9E";
name = "#instance";
shapes = (
{
closed = 1;
nodes = (
(-8,0,l),
(145,0,l),
(181,285,l),
(366,285,l),
(384,429,l),
(199,429,l),
(215,556,l),
(417,556,l),
(435,700,l),
(80,700,l)
);
}
);
width = 411;
},
{
layerId = "A4AEBACF-46F5-4C7E-8680-4ABD111F4CF9";
shapes = (
{
closed = 1;
nodes = (
(5,0,l),
(176,0,l),
(211,278,l),
(484,278,l),
(502,427,l),
(229,427,l),
(245,550,l),
(557,550,l),
(576,700,l),
(93,700,l)
);
}
);
width = 554;
},
{
layerId = "9252B17A-7510-4296-BE17-39E6376BAFDF";
shapes = (
{
closed = 1;
nodes = (
(-8,0,l),
(145,0,l),
(181,285,l),
(366,285,l),
(384,429,l),
(199,429,l),
(215,556,l),
(417,556,l),
(435,700,l),
(80,700,l)
);
}
);
width = 411;
},
{
layerId = "EA56A89A-B866-4D06-B6B2-64326ABDBB58";
shapes = (
{
closed = 1;
nodes = (
(21,0,l),
(152,0,l),
(189,297,l),
(471,297,l),
(486,414,l),
(204,414,l),
(225,583,l),
(551,583,l),
(566,700,l),
(109,700,l)
);
}
);
width = 551;
},
{
layerId = "134B4203-AF9A-4952-80B5-5BBA28114A85";
shapes = (
{
closed = 1;
nodes = (
(5,0,l),
(126,0,l),
(163,299,l),
(353,299,l),
(368,412,l),
(178,412,l),
(199,587,l),
(412,587,l),
(427,700,l),
(93,700,l)
);
}
);
width = 404;
},
{
layerId = "5E600FEC-E230-456C-858E-F50E50395600";
shapes = (
{
closed = 1;
nodes = (
(43,0,l),
(116,0,l),
(157,326,l),
(453,326,l),
(461,394,l),
(165,394,l),
(195,632,l),
(540,632,l),
(549,700,l),
(131,700,l)
);
}
);
width = 545;
},
{
layerId = "CE7D5885-7D4C-4AC1-9EEB-BF5BBC0FBEB6";
shapes = (
{
closed = 1;
nodes = (
(23,0,l),
(96,0,l),
(136,320,l),
(335,320,l),
(343,386,l),
(144,386,l),
(175,634,l),
(406,634,l),
(415,700,l),
(111,700,l)
);
}
);
width = 392;
},
{
layerId = "5F4732EF-903E-4848-ACC1-4EB306E3746F";
shapes = (
{
closed = 1;
nodes = (
(59,0,l),
(93,0,l),
(136,345,l),
(440,345,l),
(445,381,l),
(141,381,l),
(176,665,l),
(534,665,l),
(539,700,l),
(147,700,l)
);
}
);
width = 542;
},
{
layerId = "E645874F-62C6-4FA6-A4CB-DCB795EB9F1B";
shapes = (
{
closed = 1;
nodes = (
(36,0,l),
(76,0,l),
(118,334,l),
(324,334,l),
(328,369,l),
(122,369,l),
(159,665,l),
(402,665,l),
(407,700,l),
(124,700,l)
);
}
);
width = 385;
}
);
unicode = 70;
},
{
glyphname = G;
layers = (
{
anchors = (
{
name = b.uni0324_2;
position = "{234, 0}";
},
{
name = m.uni0308_1;
position = "{322, 700}";
}
);
layerId = "1B3EF96C-8CB6-4FB7-BF3A-0EF12B3D4F9E";
name = "#instance";
shapes = (
{
closed = 1;
nodes = (
(246,-8,o),
(297,10,o),
(339,45,cs),
(381,80,o),
(405,127,o),
(412,185,cs),
(437,381,l),
(240,381,l),
(225,260,l),
(268,260,l),
(261,200,ls),
(256,159,o),
(242,135,o),
(210,135,c),
(179,136,o),
(167,159,o),
(173,208,cs),
(208,486,ls),
(215,541,o),
(228,564,o),
(264,564,cs),
(287,564,o),
(304,544,o),
(300,511,c),
(296,484,l),
(450,484,l),
(453,511,ls),
(463,594,o),
(439,656,o),
(385,686,cs),
(358,701,o),
(325,708,o),
(286,708,cs),
(224,708,o),
(172,691,o),
(131,657,cs),
(90,623,o),
(65,576,o),
(58,515,c),
(16,184,ls),
(8,121,o),
(20,74,o),
(50,41,cs),
(80,8,o),
(125,-8,o),
(185,-8,cs)
);
}
);
width = 454;
},
{
anchors = (
{
name = b.uni0324_2;
position = "{261, 0}";
},
{
name = m.uni0308_1;
position = "{349, 700}";
}
);
layerId = "A4AEBACF-46F5-4C7E-8680-4ABD111F4CF9";
shapes = (
{
closed = 1;
nodes = (
(344,-8,o),
(412,15,o),
(460,61,cs),
(508,107,o),
(537,175,o),
(548,266,cs),
(564,391,l),
(306,391,l),
(289,250,l),
(382,250,l),
(381,237,l),
(373,177,o),
(347,147,o),
(286,147,cs),
(215,147,o),
(195,183,o),
(207,286,cs),
(223,409,ls),
(236,517,o),
(266,557,o),
(329,557,cs),
(384,557,o),
(412,516,o),
(406,467,c),
(404,458,l),
(573,458,l),
(574,467,ls),
(587,570,o),
(553,644,o),
(482,681,cs),
(446,699,o),
(402,708,o),
(350,708,cs),
(259,708,o),
(191,684,o),
(143,635,cs),
(95,586,o),
(65,514,o),
(53,419,cs),
(36,280,ls),
(24,185,o),
(36,113,o),
(72,65,cs),
(107,16,o),
(169,-8,o),
(257,-8,cs)
);
}
);
width = 587;
},
{
anchors = (
{
name = b.uni0324_2;
position = "{234, 0}";
},
{
name = m.uni0308_1;
position = "{322, 700}";
}
);
layerId = "9252B17A-7510-4296-BE17-39E6376BAFDF";
shapes = (
{
closed = 1;
nodes = (
(246,-8,o),
(297,10,o),
(339,45,cs),
(381,80,o),
(405,127,o),
(412,185,cs),
(437,381,l),
(240,381,l),
(225,260,l),
(268,260,l),
(261,200,ls),
(256,159,o),
(242,135,o),
(210,135,c),
(179,136,o),
(167,159,o),
(173,208,cs),
(208,486,ls),
(215,541,o),
(228,564,o),
(264,564,cs),
(287,564,o),
(304,544,o),
(300,511,c),
(296,484,l),
(450,484,l),
(453,511,ls),
(463,594,o),
(439,656,o),
(385,686,cs),
(358,701,o),
(325,708,o),
(286,708,cs),
(224,708,o),
(172,691,o),
(131,657,cs),
(90,623,o),
(65,576,o),
(58,515,cs),
(16,184,ls),
(8,121,o),
(20,74,o),
(50,41,cs),
(80,8,o),
(125,-8,o),
(185,-8,cs)
);
}
);
width = 454;
},
{
anchors = (
{
name = b.uni0324_2;
position = "{262, 0}";
},
{
name = m.uni0308_1;
position = "{350, 700}";
}
);
layerId = "EA56A89A-B866-4D06-B6B2-64326ABDBB58";
shapes = (
{
closed = 1;
nodes = (
(345,-8,o),
(409,15,o),
(457,60,cs),
(505,105,o),
(534,173,o),
(545,263,cs),
(560,384,l),
(310,384,l),
(296,273,l),
(418,273,l),
(414,240,ls),
(403,153,o),
(362,112,o),
(283,112,cs),
(196,112,o),
(164,160,o),
(179,275,cs),
(197,419,ls),
(212,540,o),
(255,590,o),
(338,590,cs),
(411,590,o),
(449,543,o),
(441,478,cs),
(440,471,l),
(571,471,l),
(572,478,ls),
(584,573,o),
(551,644,o),
(481,681,cs),
(446,699,o),
(404,708,o),
(354,708,cs),
(269,708,o),
(204,685,o),
(156,638,cs),
(108,591,o),
(78,520,o),
(66,426,cs),
(47,273,ls),
(35,179,o),
(48,109,o),
(84,62,cs),
(120,15,o),
(179,-8,o),
(262,-8,cs)
);
}
);
width = 596;
},
{
anchors = (
{
name = b.uni0324_2;
position = "{191, 0}";
},
{
name = m.uni0308_1;
position = "{279, 700}";
}
);
layerId = "134B4203-AF9A-4952-80B5-5BBA28114A85";
shapes = (
{
closed = 1;
nodes = (
(252,-8,o),
(301,10,o),
(341,46,cs),
(381,81,o),
(404,130,o),
(412,192,cs),
(435,372,l),
(243,372,l),
(230,275,l),
(302,275,l),
(292,200,ls),
(284,137,o),
(258,104,o),
(210,104,c),
(160,105,o),
(141,138,o),
(150,206,cs),
(185,487,ls),
(194,560,o),
(220,595,o),
(271,595,cs),
(313,595,o),
(338,564,o),
(331,512,c),
(329,491,l),
(449,491,l),
(452,512,ls),
(463,595,o),
(439,656,o),
(386,686,cs),
(360,701,o),
(326,708,o),
(288,708,cs),
(228,708,o),
(178,691,o),
(139,656,cs),
(98,621,o),
(74,571,o),
(66,507,cs),
(27,192,ls),
(19,127,o),
(29,77,o),
(59,43,cs),
(89,9,o),
(133,-8,o),
(192,-8,cs)
);
}
);
width = 463;
},
{
anchors = (
{
name = b.uni0324_2;
position = "{263, 0}";
},
{
name = m.uni0308_1;
position = "{351, 700}";
}
);
layerId = "5E600FEC-E230-456C-858E-F50E50395600";
shapes = (
{
closed = 1;
nodes = (
(344,-8,o),
(406,14,o),
(453,59,cs),
(500,103,o),
(528,169,o),
(539,258,cs),
(554,373,l),
(316,373,l),
(307,307,l),
(472,307,l),
(465,245,ls),
(449,118,o),
(386,60,o),
(280,60,cs),
(167,60,o),
(118,126,o),
(134,258,cs),
(156,434,ls),
(174,575,o),
(239,640,o),
(351,640,cs),
(452,640,o),
(505,585,o),
(494,494,c),
(493,490,l),
(566,490,l),
(567,494,l),
(577,577,o),
(546,644,o),
(480,681,cs),
(446,699,o),
(407,708,o),
(359,708,cs),
(284,708,o),
(222,686,o),
(174,641,cs),
(127,596,o),
(96,528,o),
(85,437,cs),
(63,262,ls),
(51,171,o),
(65,103,o),
(101,59,cs),
(138,14,o),
(194,-8,o),
(269,-8,cs)
);
}
);
width = 608;
},
{
anchors = (
{
name = b.uni0324_2;
position = "{127, 0}";
},
{
name = m.uni0308_1;
position = "{215, 700}";
}
);
layerId = "CE7D5885-7D4C-4AC1-9EEB-BF5BBC0FBEB6";
shapes = (
{
closed = 1;
nodes = (
(259,-8,o),
(306,10,o),
(343,47,cs),
(380,83,o),
(403,135,o),
(412,203,cs),
(431,358,l),
(247,358,l),
(239,297,l),
(351,297,l),
(339,200,ls),
(327,105,o),
(280,58,o),
(210,58,cs),
(133,59,o),
(102,107,o),
(114,203,cs),
(150,488,ls),
(163,591,o),
(208,641,o),
(283,641,cs),
(352,641,o),
(388,594,o),
(378,514,c),
(377,502,l),
(449,502,l),
(450,514,l),
(461,597,o),
(437,656,o),
(386,686,cs),
(361,701,o),
(329,708,o),
(291,708,cs),
(234,708,o),
(186,690,o),
(148,654,cs),
(110,617,o),
(87,564,o),
(79,495,cs),
(42,204,ls),
(34,135,o),
(43,82,o),
(73,46,cs),
(102,10,o),
(144,-8,o),
(202,-8,cs)
);
}
);
width = 475;
},
{
anchors = (
{
name = b.uni0324_2;
position = "{264, 0}";
},
{
name = m.uni0308_1;
position = "{352, 700}";
}
);
layerId = "5F4732EF-903E-4848-ACC1-4EB306E3746F";
shapes = (
{
closed = 1;
nodes = (
(345,-8,o),
(404,14,o),
(450,58,cs),
(496,101,o),
(525,167,o),
(536,255,cs),
(550,366,l),
(320,366,l),
(315,330,l),
(508,330,l),
(498,248,ls),
(479,95,o),
(402,25,o),
(277,25,cs),
(148,25,o),
(88,103,o),
(106,247,cs),
(131,444,ls),
(150,599,o),
(229,673,o),
(360,673,cs),
(478,673,o),
(543,612,o),
(529,505,c),
(529,503,l),
(564,503,l),
(564,505,l),
(574,580,o),
(544,644,o),
(479,681,cs),
(447,699,o),
(408,708,o),
(363,708,cs),
(293,708,o),
(234,687,o),
(187,644,cs),
(139,601,o),
(109,534,o),
(98,444,cs),
(74,255,ls),
(63,165,o),
(76,99,o),
(113,56,cs),
(150,13,o),
(204,-8,o),
(274,-8,cs)
);
}
);
width = 617;
},
{
anchors = (
{
name = b.uni0324_2;
position = "{84, 0}";
},
{
name = m.uni0308_1;
position = "{172, 700}";
}
);
layerId = "E645874F-62C6-4FA6-A4CB-DCB795EB9F1B";
shapes = (
{
closed = 1;
nodes = (
(264,-8,o),
(310,10,o),
(345,47,cs),
(380,84,o),
(402,138,o),
(411,210,cs),
(429,349,l),
(249,349,l),
(245,312,l),
(384,312,l),
(370,200,ls),
(356,84,o),
(296,27,o),
(210,27,cs),
(116,28,o),
(76,86,o),
(91,201,cs),
(127,489,ls),
(142,610,o),
(200,672,o),
(291,672,cs),
(378,672,o),
(422,614,o),
(410,515,c),
(409,509,l),
(449,509,l),
(450,515,l),
(460,598,o),
(437,656,o),
(387,686,cs),
(363,701,o),
(331,708,o),
(293,708,cs),
(238,708,o),
(192,689,o),
(156,652,cs),
(119,615,o),
(96,560,o),
(87,487,cs),
(53,212,ls),
(44,140,o),
(54,85,o),
(82,48,cs),
(111,11,o),
(153,-8,o),
(209,-8,cs)
);
}
);
width = 484;
}
);
unicode = 71;
},
{
glyphname = H;
layers = (
{
anchors = (
{
name = b.uni0324_2;
position = "{266, 0}";
},
{
name = m.uni0308_1;
position = "{354, 700}";
}
);
layerId = "A4AEBACF-46F5-4C7E-8680-4ABD111F4CF9";
shapes = (
{
closed = 1;
nodes = (
(6,0,l),
(177,0,l),
(211,278,l),
(377,278,l),
(342,0,l),
(512,0,l),
(599,700,l),
(430,700,l),
(396,427,l),
(230,427,l),
(264,700,l),
(93,700,l)
);
}
);
width = 589;
},
{
anchors = (
{
name = b.uni0324_2;
position = "{231, 0}";
},
{
name = m.uni0308_1;
position = "{319, 700}";
}
);
layerId = "9252B17A-7510-4296-BE17-39E6376BAFDF";
shapes = (
{
closed = 1;
nodes = (
(-7,0,l),
(148,0,l),
(184,284,l),
(257,284,l),
(221,0,l),
(376,0,l),
(464,700,l),
(309,700,l),
(275,427,l),
(202,427,l),
(236,700,l),
(81,700,l)
);
}
);
width = 441;
},
{
anchors = (
{
name = b.uni0324_2;
position = "{267, 0}";
},
{
name = m.uni0308_1;
position = "{355, 700}";
}
);
layerId = "EA56A89A-B866-4D06-B6B2-64326ABDBB58";
shapes = (
{
closed = 1;
nodes = (
(22,0,l),
(153,0,l),
(190,297,l),
(418,297,l),
(381,0,l),
(512,0,l),
(599,700,l),
(469,700,l),
(433,414,l),
(205,414,l),
(241,700,l),
(109,700,l)
);
}
);
width = 605;
},
{
anchors = (
{
name = b.uni0324_2;
position = "{182, 0}";
},
{
name = m.uni0308_1;
position = "{270, 700}";
}
);
layerId = "134B4203-AF9A-4952-80B5-5BBA28114A85";
shapes = (
{
closed = 1;
nodes = (
(6,0,l),
(128,0,l),
(165,300,l),
(293,300,l),
(255,0,l),
(377,0,l),
(465,700,l),
(343,700,l),
(307,412,l),
(179,412,l),
(215,700,l),
(93,700,l)
);
}
);
width = 455;
},
{
anchors = (
{
name = b.uni0324_2;
position = "{268, 0}";
},
{
name = m.uni0308_1;
position = "{356, 700}";
}
);
layerId = "5E600FEC-E230-456C-858E-F50E50395600";
shapes = (
{
closed = 1;
nodes = (
(44,0,l),
(117,0,l),
(158,326,l),
(480,326,l),
(439,0,l),
(512,0,l),
(600,700,l),
(527,700,l),
(488,394,l),
(166,394,l),
(205,700,l),
(132,700,l)
);
}
);
width = 628;
},
{
anchors = (
{
name = b.uni0324_2;
position = "{108, 0}";
},
{
name = m.uni0308_1;
position = "{196, 700}";
}
);
layerId = "CE7D5885-7D4C-4AC1-9EEB-BF5BBC0FBEB6";
shapes = (
{
closed = 1;
nodes = (
(24,0,l),
(97,0,l),
(137,324,l),
(347,324,l),
(306,0,l),
(378,0,l),
(466,700,l),
(394,700,l),
(355,389,l),
(145,389,l),
(184,700,l),
(112,700,l)
);
}
);
width = 475;
},
{
anchors = (
{
name = b.uni0324_2;
position = "{269, 0}";
},
{
name = m.uni0308_1;
position = "{357, 700}";
}
);
layerId = "5F4732EF-903E-4848-ACC1-4EB306E3746F";
shapes = (
{
closed = 1;
nodes = (
(60,0,l),
(94,0,l),
(137,345,l),
(521,345,l),
(478,0,l),
(512,0,l),
(600,700,l),
(565,700,l),
(526,381,l),
(141,381,l),
(181,700,l),
(147,700,l)
);
}
);
width = 644;
},
{
anchors = (
{
name = b.uni0324_2;
position = "{60, 0}";
},
{
name = m.uni0308_1;
position = "{148, 700}";
}
);
layerId = "E645874F-62C6-4FA6-A4CB-DCB795EB9F1B";
shapes = (
{
closed = 1;
nodes = (
(37,0,l),
(76,0,l),
(119,340,l),
(383,340,l),
(340,0,l),
(379,0,l),
(467,700,l),
(428,700,l),
(387,374,l),
(123,374,l),
(164,700,l),
(125,700,l)
);
}
);
width = 489;
}
);
unicode = 72;
},
{
glyphname = Hbar;
layers = (
{
layerId = "1B3EF96C-8CB6-4FB7-BF3A-0EF12B3D4F9E";
name = "#instance";
shapes = (
{
closed = 1;
nodes = (
(20,521,l),
(475,521,l),
(493,666,l),
(38,666,l)
);
},
{
closed = 1;
nodes = (
(-9,0,l),
(147,0,l),
(183,287,l),
(258,287,l),
(222,0,l),
(378,0,l),
(466,707,l),
(310,707,l),
(276,431,l),
(201,431,l),
(235,707,l),
(79,707,l)
);
}
);
width = 441;
},
{
layerId = "A4AEBACF-46F5-4C7E-8680-4ABD111F4CF9";
shapes = (
{
closed = 1;
nodes = (
(18,524,l),
(632,524,l),
(651,676,l),
(37,676,l)
);
},
{
closed = 1;
nodes = (
(6,0,l),
(177,0,l),
(212,280,l),
(377,280,l),
(342,0,l),
(512,0,l),
(600,707,l),
(430,707,l),
(396,430,l),
(231,430,l),
(265,707,l),
(94,707,l)
);
}
);
width = 589;
},
{
layerId = "9252B17A-7510-4296-BE17-39E6376BAFDF";
shapes = (
{
closed = 1;
nodes = (
(20,521,l),
(475,521,l),
(493,666,l),
(38,666,l)
);
},
{
closed = 1;
nodes = (
(-9,0,l),
(147,0,l),
(183,287,l),
(258,287,l),
(222,0,l),
(378,0,l),
(466,707,l),
(310,707,l),
(276,431,l),
(201,431,l),
(235,707,l),
(79,707,l)
);
}
);
width = 441;
},
{
layerId = "EA56A89A-B866-4D06-B6B2-64326ABDBB58";
shapes = (
{
closed = 1;
nodes = (
(37,515,l),
(624,515,l),
(639,633,l),
(52,633,l)
);
},
{
closed = 1;
nodes = (
(22,0,l),
(153,0,l),
(190,299,l),
(418,299,l),
(381,0,l),
(512,0,l),
(600,707,l),
(469,707,l),
(433,416,l),
(205,416,l),
(241,707,l),
(110,707,l)
);
}
);
width = 605;
},
{
layerId = "134B4203-AF9A-4952-80B5-5BBA28114A85";
shapes = (
{
closed = 1;
nodes = (
(36,518,l),
(476,518,l),
(490,631,l),
(50,631,l)
);
},
{
closed = 1;
nodes = (
(4,0,l),
(127,0,l),
(165,303,l),
(294,303,l),
(256,0,l),
(379,0,l),
(467,707,l),
(344,707,l),
(308,416,l),
(179,416,l),
(215,707,l),
(92,707,l)
);
}
);
width = 455;
},
{
layerId = "5E600FEC-E230-456C-858E-F50E50395600";
shapes = (
{
closed = 1;
nodes = (
(66,502,l),
(614,502,l),
(622,569,l),
(74,569,l)
);
},
{
closed = 1;
nodes = (
(44,0,l),
(117,0,l),
(158,328,l),
(480,328,l),
(439,0,l),
(512,0,l),
(600,707,l),
(527,707,l),
(488,395,l),
(166,395,l),
(205,707,l),
(132,707,l)
);
}
);
width = 628;
},
{
layerId = "CE7D5885-7D4C-4AC1-9EEB-BF5BBC0FBEB6";
shapes = (
{
closed = 1;
nodes = (
(57,513,l),
(478,513,l),
(486,579,l),
(65,579,l)
);
},
{
closed = 1;
nodes = (
(22,0,l),
(96,0,l),
(137,327,l),
(348,327,l),
(307,0,l),
(380,0,l),
(468,707,l),
(395,707,l),
(356,393,l),
(145,393,l),
(184,707,l),
(110,707,l)
);
}
);
width = 475;
},
{
layerId = "5F4732EF-903E-4848-ACC1-4EB306E3746F";
shapes = (
{
closed = 1;
nodes = (
(86,493,l),
(607,493,l),
(611,526,l),
(90,526,l)
);
},
{
closed = 1;
nodes = (
(60,0,l),
(94,0,l),
(137,347,l),
(521,347,l),
(478,0,l),
(512,0,l),
(600,707,l),
(566,707,l),
(526,381,l),
(142,381,l),
(182,707,l),
(148,707,l)
);
}
);
width = 644;
},
{
layerId = "E645874F-62C6-4FA6-A4CB-DCB795EB9F1B";
shapes = (
{
closed = 1;
nodes = (
(73,510,l),
(480,510,l),
(484,544,l),
(77,544,l)
);
},
{
closed = 1;
nodes = (
(35,0,l),
(75,0,l),
(118,343,l),
(384,343,l),
(341,0,l),
(381,0,l),
(469,707,l),
(429,707,l),
(388,378,l),
(122,378,l),
(163,707,l),
(123,707,l)
);
}
);
width = 489;
}
);
unicode = 294;
},
{
glyphname = I;
layers = (
{
anchors = (
{
name = b.uni0324_2;
position = "{80, 0}";
},
{
name = m.uni0308_1;
position = "{168, 700}";
},
{
name = m.uni0328;
position = "{142, 10}";
}
);
layerId = "1B3EF96C-8CB6-4FB7-BF3A-0EF12B3D4F9E";
name = "#instance";
shapes = (
{
closed = 1;
nodes = (
(-10,0,l),
(146,0,l),
(234,700,l),
(78,700,l)
);
}
);
width = 208;
},
{
anchors = (
{
name = b.uni0324_2;
position = "{81, 0}";
},
{
name = m.uni0308_1;
position = "{169, 700}";
},
{
name = m.uni0328;
position = "{133, 10}";
}
);
layerId = "A4AEBACF-46F5-4C7E-8680-4ABD111F4CF9";
shapes = (
{
closed = 1;
nodes = (
(-4,0,l),
(165,0,l),
(252,700,l),
(84,700,l)
);
}
);
width = 234;
},
{
anchors = (
{
name = b.uni0324_2;
position = "{80, 0}";
},
{
name = m.uni0308_1;
position = "{168, 700}";
},
{
name = m.uni0328;
position = "{142, 10}";
}
);
layerId = "9252B17A-7510-4296-BE17-39E6376BAFDF";
shapes = (
{
closed = 1;
nodes = (
(-10,0,l),
(146,0,l),
(234,700,l),
(78,700,l)
);
}
);
width = 208;
},
{
anchors = (
{
name = b.uni0324_2;
position = "{82, 0}";
},
{
name = m.uni0308_1;
position = "{170, 700}";
},
{
name = m.uni0328;
position = "{134, 10}";
}
);
layerId = "EA56A89A-B866-4D06-B6B2-64326ABDBB58";
shapes = (
{
closed = 1;
nodes = (
(17,0,l),
(147,0,l),
(235,700,l),
(104,700,l)
);
}
);
width = 236;
},
{
anchors = (
{
name = b.uni0324_2;
position = "{66, 0}";
},
{
name = m.uni0308_1;
position = "{154, 700}";
},
{
name = m.uni0328;
position = "{127, 10}";
}
);
layerId = "134B4203-AF9A-4952-80B5-5BBA28114A85";
shapes = (
{
closed = 1;
nodes = (
(5,0,l),
(127,0,l),
(214,700,l),
(92,700,l)
);
}
);
width = 203;
},
{
anchors = (
{
name = b.uni0324_2;
position = "{83, 0}";
},
{
name = m.uni0308_1;
position = "{171, 700}";
},
{
name = m.uni0328;
position = "{135, 10}";
}
);
layerId = "5E600FEC-E230-456C-858E-F50E50395600";
shapes = (
{
closed = 1;
nodes = (
(47,0,l),
(120,0,l),
(208,700,l),
(135,700,l)
);
}
);
width = 238;
},
{
anchors = (
{
name = b.uni0324_2;
position = "{44, 0}";
},
{
name = m.uni0308_1;
position = "{132, 700}";
},
{
name = m.uni0328;
position = "{105, 10}";
}
);
layerId = "CE7D5885-7D4C-4AC1-9EEB-BF5BBC0FBEB6";
shapes = (
{
closed = 1;
nodes = (
(26,0,l),
(97,0,l),
(185,700,l),
(114,700,l)
);
}
);
width = 194;
},
{
anchors = (
{
name = b.uni0324_2;
position = "{84, 0}";
},
{
name = m.uni0308_1;
position = "{172, 700}";
},
{
name = m.uni0328;
position = "{136, 10}";
}
);
layerId = "5F4732EF-903E-4848-ACC1-4EB306E3746F";
shapes = (
{
closed = 1;
nodes = (
(67,0,l),
(102,0,l),
(190,700,l),
(155,700,l)
);
}
);
width = 240;
},
{
anchors = (
{
name = b.uni0324_2;
position = "{31, 0}";
},
{
name = m.uni0308_1;
position = "{119, 700}";
},
{
name = m.uni0328;
position = "{90, 10}";
}
);
layerId = "E645874F-62C6-4FA6-A4CB-DCB795EB9F1B";
shapes = (
{
closed = 1;
nodes = (
(41,0,l),
(78,0,l),
(166,700,l),
(129,700,l)
);
}
);
width = 189;
}
);
unicode = 73;
},
{
glyphname = J;
layers = (
{
layerId = "1B3EF96C-8CB6-4FB7-BF3A-0EF12B3D4F9E";
name = "#instance";
shapes = (
{
closed = 1;
nodes = (
(-19,0,l),
(90,0,ls),
(230,0,o),
(303,62,o),
(319,187,cs),
(383,700,l),
(227,700,l),
(165,205,ls),
(160,165,o),
(138,145,o),
(99,145,cs),
(0,145,l)
);
},
{
closed = 1;
nodes = (
(383,700,l),
(169,700,l),
(151,555,l),
(365,555,l)
);
}
);
width = 359;
},
{
layerId = "A4AEBACF-46F5-4C7E-8680-4ABD111F4CF9";
shapes = (
{
closed = 1;
nodes = (
(-6,0,l),
(171,0,ls),
(283,0,o),
(357,64,o),
(371,179,cs),
(437,700,l),
(265,700,l),
(204,210,ls),
(198,163,o),
(185,151,o),
(146,151,cs),
(13,151,l)
);
},
{
closed = 1;
nodes = (
(437,700,l),
(183,700,l),
(164,549,l),
(418,549,l)
);
}
);
width = 429;
},
{
layerId = "9252B17A-7510-4296-BE17-39E6376BAFDF";
shapes = (
{
closed = 1;
nodes = (
(-19,0,l),
(90,0,ls),
(230,0,o),
(303,62,o),
(319,187,cs),
(383,700,l),
(227,700,l),
(165,205,ls),
(160,165,o),
(138,145,o),
(99,145,cs),
(0,145,l)
);
},
{
closed = 1;
nodes = (
(383,700,l),
(169,700,l),
(151,555,l),
(365,555,l)
);
}
);
width = 359;
},
{
layerId = "EA56A89A-B866-4D06-B6B2-64326ABDBB58";
shapes = (
{
closed = 1;
nodes = (
(-5,0,l),
(186,0,ls),
(287,0,o),
(350,58,o),
(363,162,cs),
(431,700,l),
(299,700,l),
(235,184,ls),
(228,135,o),
(213,118,o),
(171,118,cs),
(10,118,l)
);
},
{
closed = 1;
nodes = (
(431,700,l),
(197,700,l),
(182,582,l),
(416,582,l)
);
}
);
width = 440;
},
{
layerId = "134B4203-AF9A-4952-80B5-5BBA28114A85";
shapes = (
{
closed = 1;
nodes = (
(-13,0,l),
(98,0,ls),
(217,0,o),
(283,56,o),
(297,168,cs),
(363,700,l),
(241,700,l),
(176,182,ls),
(170,137,o),
(146,114,o),
(104,114,cs),
(2,114,l)
);
},
{
closed = 1;
nodes = (
(363,700,l),
(166,700,l),
(151,586,l),
(349,586,l)
);
}
);
width = 354;
},
{
layerId = "5E600FEC-E230-456C-858E-F50E50395600";
shapes = (
{
closed = 1;
nodes = (
(-4,0,l),
(210,0,ls),
(292,0,o),
(340,48,o),
(351,136,cs),
(422,700,l),
(350,700,l),
(280,145,ls),
(274,92,o),
(254,68,o),
(208,68,cs),
(5,68,l)
);
},
{
closed = 1;
nodes = (
(422,700,l),
(218,700,l),
(209,632,l),
(413,632,l)
);
}
);
width = 456;
},
{
layerId = "CE7D5885-7D4C-4AC1-9EEB-BF5BBC0FBEB6";
shapes = (
{
closed = 1;
nodes = (
(-5,0,l),
(107,0,ls),
(197,0,o),
(252,48,o),
(263,140,cs),
(333,700,l),
(260,700,l),
(191,148,ls),
(184,95,o),
(156,67,o),
(110,67,cs),
(4,67,l)
);
},
{
closed = 1;
nodes = (
(333,700,l),
(158,700,l),
(149,633,l),
(325,633,l)
);
}
);
width = 345;
},
{
layerId = "5F4732EF-903E-4848-ACC1-4EB306E3746F";
shapes = (
{
closed = 1;
nodes = (
(-3,0,l),
(225,0,ls),
(295,0,o),
(334,42,o),
(344,119,cs),
(416,700,l),
(384,700,l),
(311,119,ls),
(304,63,o),
(280,35,o),
(233,35,cs),
(2,35,l)
);
},
{
closed = 1;
nodes = (
(416,700,l),
(231,700,l),
(227,665,l),
(412,665,l)
);
}
);
width = 467;
},
{
layerId = "E645874F-62C6-4FA6-A4CB-DCB795EB9F1B";
shapes = (
{
closed = 1;
nodes = (
(1,0,l),
(115,0,ls),
(184,0,o),
(231,42,o),
(241,121,cs),
(314,700,l),
(274,700,l),
(202,125,ls),
(195,66,o),
(162,36,o),
(115,36,cs),
(6,36,l)
);
},
{
closed = 1;
nodes = (
(314,700,l),
(154,700,l),
(149,664,l),
(309,664,l)
);
}
);
width = 340;
}
);
leftKerningGroup = J;
unicode = 74;
},
{
glyphname = K;
layers = (
{
anchors = (
{
name = b.uni0324_2;
position = "{243, 0}";
},
{
name = m.uni0308_1;
position = "{331, 700}";
}
);
layerId = "1B3EF96C-8CB6-4FB7-BF3A-0EF12B3D4F9E";
name = "#instance";
shapes = (
{
closed = 1;
nodes = (
(417,0,l),
(316,429,l),
(205,241,l),
(253,0,l)
);
},
{
closed = 1;
nodes = (
(-9,0,l),
(145,0,l),
(233,700,l),
(79,700,l)
);
},
{
closed = 1;
nodes = (
(189,399,l),
(155,127,l),
(483,700,l),
(330,700,l)
);
}
);
width = 452;
},
{
anchors = (
{
name = b.uni0324_2;
position = "{266, 0}";
},
{
name = m.uni0308_1;
position = "{354, 700}";
}
);
layerId = "A4AEBACF-46F5-4C7E-8680-4ABD111F4CF9";
shapes = (
{
closed = 1;
nodes = (
(573,0,l),
(389,432,l),
(262,289,l),
(378,0,l)
);
},
{
closed = 1;
nodes = (
(6,0,l),
(177,0,l),
(264,700,l),
(93,700,l)
);
},
{
closed = 1;
nodes = (
(219,418,l),
(190,188,l),
(653,700,l),
(449,700,l)
);
}
);
width = 612;
},
{
anchors = (
{
name = b.uni0324_2;
position = "{243, 0}";
},
{
name = m.uni0308_1;
position = "{331, 700}";
}
);
layerId = "9252B17A-7510-4296-BE17-39E6376BAFDF";
shapes = (
{
closed = 1;
nodes = (
(417,0,l),
(316,429,l),
(205,241,l),
(253,0,l)
);
},
{
closed = 1;
nodes = (
(-9,0,l),
(145,0,l),
(233,700,l),
(79,700,l)
);
},
{
closed = 1;
nodes = (
(189,399,l),
(155,127,l),
(483,700,l),
(330,700,l)
);
}
);
width = 452;
},
{
anchors = (
{
name = b.uni0324_2;
position = "{267, 0}";
},
{
name = m.uni0308_1;
position = "{355, 700}";
}
);
layerId = "EA56A89A-B866-4D06-B6B2-64326ABDBB58";
shapes = (
{
closed = 1;
nodes = (
(566,0,l),
(375,437,l),
(277,328,l),
(414,0,l)
);
},
{
closed = 1;
nodes = (
(22,0,l),
(153,0,l),
(241,700,l),
(109,700,l)
);
},
{
closed = 1;
nodes = (
(189,364,l),
(167,186,l),
(636,700,l),
(479,700,l)
);
}
);
width = 606;
},
{
anchors = (
{
name = b.uni0324_2;
position = "{198, 0}";
},
{
name = m.uni0308_1;
position = "{286, 700}";
}
);
layerId = "134B4203-AF9A-4952-80B5-5BBA28114A85";
shapes = (
{
closed = 1;
nodes = (
(417,0,l),
(300,431,l),
(212,288,l),
(287,0,l)
);
},
{
closed = 1;
nodes = (
(4,0,l),
(126,0,l),
(213,700,l),
(91,700,l)
);
},
{
closed = 1;
nodes = (
(164,359,l),
(137,146,l),
(482,700,l),
(360,700,l)
);
}
);
width = 455;
},
{
anchors = (
{
name = b.uni0324_2;
position = "{268, 0}";
},
{
name = m.uni0308_1;
position = "{356, 700}";
}
);
layerId = "5E600FEC-E230-456C-858E-F50E50395600";
shapes = (
{
closed = 1;
nodes = (
(553,0,l),
(352,445,l),
(298,387,l),
(468,0,l)
);
},
{
closed = 1;
nodes = (
(44,0,l),
(117,0,l),
(205,700,l),
(132,700,l)
);
},
{
closed = 1;
nodes = (
(142,283,l),
(130,183,l),
(610,700,l),
(523,700,l)
);
}
);
width = 596;
},
{
anchors = (
{
name = b.uni0324_2;
position = "{131, 0}";
},
{
name = m.uni0308_1;
position = "{219, 700}";
}
);
layerId = "CE7D5885-7D4C-4AC1-9EEB-BF5BBC0FBEB6";
shapes = (
{
closed = 1;
nodes = (
(417,0,l),
(275,434,l),
(221,358,l),
(337,0,l)
);
},
{
closed = 1;
nodes = (
(22,0,l),
(96,0,l),
(183,700,l),
(110,700,l)
);
},
{
closed = 1;
nodes = (
(125,299,l),
(110,175,l),
(481,700,l),
(404,700,l)
);
}
);
width = 458;
},
{
anchors = (
{
name = b.uni0324_2;
position = "{269, 0}";
},
{
name = m.uni0308_1;
position = "{357, 700}";
}
);
layerId = "5F4732EF-903E-4848-ACC1-4EB306E3746F";
shapes = (
{
closed = 1;
nodes = (
(545,0,l),
(337,450,l),
(313,426,l),
(504,0,l)
);
},
{
closed = 1;
nodes = (
(60,0,l),
(94,0,l),
(181,700,l),
(147,700,l)
);
},
{
closed = 1;
nodes = (
(113,229,l),
(107,181,l),
(592,700,l),
(552,700,l)
);
}
);
width = 590;
},
{
anchors = (
{
name = b.uni0324_2;
position = "{86, 0}";
},
{
name = m.uni0308_1;
position = "{174, 700}";
}
);
layerId = "E645874F-62C6-4FA6-A4CB-DCB795EB9F1B";
shapes = (
{
closed = 1;
nodes = (
(417,0,l),
(258,436,l),
(228,405,l),
(372,0,l)
);
},
{
closed = 1;
nodes = (
(35,0,l),
(76,0,l),
(164,700,l),
(123,700,l)
);
},
{
closed = 1;
nodes = (
(100,259,l),
(92,194,l),
(480,700,l),
(433,700,l)
);
}
);
width = 461;
}
);
unicode = 75;
},
{
glyphname = L;
layers = (
{
anchors = (
{
name = b.uni0324_2;
position = "{182, 0}";
},
{
name = m.uni0308_1;
position = "{178, 700}";
},
{
name = t.uni031B_2;
position = "{299, 700}";
}
);
layerId = "1B3EF96C-8CB6-4FB7-BF3A-0EF12B3D4F9E";
name = "#instance";
shapes = (
{
closed = 1;
nodes = (
(-11,0,l),
(296,0,l),
(314,144,l),
(163,144,l),
(233,700,l),
(77,700,l)
);
}
);
width = 340;
},
{
anchors = (
{
name = b.uni0324_2;
position = "{218, 0}";
},
{
name = m.uni0308_1;
position = "{175, 700}";
},
{
name = t.uni031B_2;
position = "{362, 700}";
}
);
layerId = "A4AEBACF-46F5-4C7E-8680-4ABD111F4CF9";
shapes = (
{
closed = 1;
nodes = (
(4,0,l),
(448,0,l),
(467,150,l),
(193,150,l),
(262,700,l),
(91,700,l)
);
}
);
width = 499;
},
{
anchors = (
{
name = b.uni0324_2;
position = "{182, 0}";
},
{
name = m.uni0308_1;
position = "{178, 700}";
},
{
name = t.uni031B_2;
position = "{299, 700}";
}
);
layerId = "9252B17A-7510-4296-BE17-39E6376BAFDF";
shapes = (
{
closed = 1;
nodes = (
(-11,0,l),
(296,0,l),
(314,144,l),
(163,144,l),
(233,700,l),
(77,700,l)
);
}
);
width = 340;
},
{
anchors = (
{
name = b.uni0324_2;
position = "{219, 0}";
},
{
name = m.uni0308_1;
position = "{176, 700}";
},
{
name = t.uni031B_2;
position = "{364, 700}";
}
);
layerId = "EA56A89A-B866-4D06-B6B2-64326ABDBB58";
shapes = (
{
closed = 1;
nodes = (
(21,0,l),
(453,0,l),
(468,117,l),
(167,117,l),
(240,700,l),
(108,700,l)
);
}
);
width = 510;
},
{
anchors = (
{
name = b.uni0324_2;
position = "{137, 0}";
},
{
name = m.uni0308_1;
position = "{166, 700}";
},
{
name = t.uni031B_2;
position = "{235, 700}";
}
);
layerId = "134B4203-AF9A-4952-80B5-5BBA28114A85";
shapes = (
{
closed = 1;
nodes = (
(3,0,l),
(310,0,l),
(324,113,l),
(140,113,l),
(213,700,l),
(90,700,l)
);
}
);
width = 359;
},
{
anchors = (
{
name = b.uni0324_2;
position = "{220, 0}";
},
{
name = m.uni0308_1;
position = "{178, 700}";
},
{
name = t.uni031B_2;
position = "{365, 700}";
}
);
layerId = "5E600FEC-E230-456C-858E-F50E50395600";
shapes = (
{
closed = 1;
nodes = (
(43,0,l),
(459,0,l),
(468,68,l),
(125,68,l),
(204,700,l),
(131,700,l)
);
}
);
width = 525;
},
{
anchors = (
{
name = b.uni0324_2;
position = "{69, 0}";
},
{
name = m.uni0308_1;
position = "{147, 700}";
},
{
name = t.uni031B_2;
position = "{138, 700}";
}
);
layerId = "CE7D5885-7D4C-4AC1-9EEB-BF5BBC0FBEB6";
shapes = (
{
closed = 1;
nodes = (
(21,0,l),
(329,0,l),
(337,67,l),
(103,67,l),
(182,700,l),
(109,700,l)
);
}
);
width = 386;
},
{
anchors = (
{
name = b.uni0324_2;
position = "{221, 0}";
},
{
name = m.uni0308_1;
position = "{179, 700}";
},
{
name = t.uni031B_2;
position = "{366, 700}";
}
);
layerId = "5F4732EF-903E-4848-ACC1-4EB306E3746F";
shapes = (
{
closed = 1;
nodes = (
(59,0,l),
(463,0,l),
(468,35,l),
(97,35,l),
(180,700,l),
(146,700,l)
);
}
);
width = 536;
},
{
anchors = (
{
name = b.uni0324_2;
position = "{25, 0}";
},
{
name = m.uni0308_1;
position = "{134, 700}";
},
{
name = t.uni031B_2;
position = "{74, 700}";
}
);
layerId = "E645874F-62C6-4FA6-A4CB-DCB795EB9F1B";
shapes = (
{
closed = 1;
nodes = (
(34,0,l),
(341,0,l),
(346,36,l),
(79,36,l),
(162,700,l),
(122,700,l)
);
}
);
width = 405;
}
);
rightKerningGroup = L;
unicode = 76;
},
{
glyphname = Lslash;
layers = (
{
layerId = "1B3EF96C-8CB6-4FB7-BF3A-0EF12B3D4F9E";
name = "#instance";
shapes = (
{
closed = 1;
nodes = (
(7,232,l),
(306,380,l),
(324,530,l),
(27,381,l)
);
},
{
closed = 1;
nodes = (
(-11,0,l),
(296,0,l),
(314,144,l),
(163,144,l),
(233,707,l),
(77,707,l)
);
}
);
width = 340;
},
{
layerId = "A4AEBACF-46F5-4C7E-8680-4ABD111F4CF9";
shapes = (
{
closed = 1;
nodes = (
(-11,238,l),
(363,420,l),
(381,570,l),
(9,388,l)
);
},
{
closed = 1;
nodes = (
(4,0,l),
(448,0,l),
(467,150,l),
(194,150,l),
(263,707,l),
(92,707,l)
);
}
);
width = 499;
},
{
layerId = "9252B17A-7510-4296-BE17-39E6376BAFDF";
shapes = (
{
closed = 1;
nodes = (
(7,232,l),
(306,380,l),
(324,530,l),
(27,381,l)
);
},
{
closed = 1;
nodes = (
(-11,0,l),
(296,0,l),
(314,144,l),
(163,144,l),
(233,707,l),
(77,707,l)
);
}
);
width = 340;
},
{
layerId = "EA56A89A-B866-4D06-B6B2-64326ABDBB58";
shapes = (
{
closed = 1;
nodes = (
(17,279,l),
(317,416,l),
(331,529,l),
(31,392,l)
);
},
{
closed = 1;
nodes = (
(21,0,l),
(453,0,l),
(468,117,l),
(167,117,l),
(240,707,l),
(109,707,l)
);
}
);
width = 510;
},
{
layerId = "134B4203-AF9A-4952-80B5-5BBA28114A85";
shapes = (
{
closed = 1;
nodes = (
(16,279,l),
(272,396,l),
(286,509,l),
(30,392,l)
);
},
{
closed = 1;
nodes = (
(3,0,l),
(310,0,l),
(324,113,l),
(140,113,l),
(214,707,l),
(91,707,l)
);
}
);
width = 359;
},
{
layerId = "5E600FEC-E230-456C-858E-F50E50395600";
shapes = (
{
closed = 1;
nodes = (
(57,340,l),
(247,410,l),
(255,468,l),
(65,398,l)
);
},
{
closed = 1;
nodes = (
(43,0,l),
(459,0,l),
(468,68,l),
(125,68,l),
(204,707,l),
(131,707,l)
);
}
);
width = 525;
},
{
layerId = "CE7D5885-7D4C-4AC1-9EEB-BF5BBC0FBEB6";
shapes = (
{
closed = 1;
nodes = (
(27,350,l),
(219,420,l),
(226,478,l),
(35,408,l)
);
},
{
closed = 1;
nodes = (
(21,0,l),
(329,0,l),
(337,67,l),
(103,67,l),
(183,707,l),
(109,707,l)
);
}
);
width = 386;
},
{
layerId = "5F4732EF-903E-4848-ACC1-4EB306E3746F";
shapes = (
{
closed = 1;
nodes = (
(83,368,l),
(201,393,l),
(203,427,l),
(86,402,l)
);
},
{
closed = 1;
nodes = (
(59,0,l),
(463,0,l),
(467,35,l),
(97,35,l),
(181,707,l),
(147,707,l)
);
}
);
width = 536;
},
{
layerId = "E645874F-62C6-4FA6-A4CB-DCB795EB9F1B";
shapes = (
{
closed = 1;
nodes = (
(35,385,l),
(184,424,l),
(186,457,l),
(38,419,l)
);
},
{
closed = 1;
nodes = (
(34,0,l),
(341,0,l),
(346,36,l),
(79,36,l),
(162,707,l),
(122,707,l)
);
}
);
width = 405;
}
);
unicode = 321;
},
{
glyphname = M;
layers = (
{
layerId = "1B3EF96C-8CB6-4FB7-BF3A-0EF12B3D4F9E";
name = "#instance";
shapes = (
{
closed = 1;
nodes = (
(-8,0,l),
(148,0,l),
(188,318,l),
(213,119,l),
(292,119,l),
(369,321,l),
(329,0,l),
(485,0,l),
(572,700,l),
(416,700,l),
(283,365,l),
(236,700,l),
(80,700,l)
);
}
);
width = 547;
},
{
layerId = "A4AEBACF-46F5-4C7E-8680-4ABD111F4CF9";
shapes = (
{
closed = 1;
nodes = (
(26,0,l),
(197,0,l),
(238,328,l),
(304,133,l),
(413,133,l),
(525,323,l),
(485,0,l),
(653,0,l),
(741,700,l),
(572,700,l),
(389,373,l),
(285,700,l),
(114,700,l)
);
}
);
width = 751;
},
{
layerId = "9252B17A-7510-4296-BE17-39E6376BAFDF";
shapes = (
{
closed = 1;
nodes = (
(-8,0,l),
(148,0,l),
(188,318,l),
(213,119,l),
(292,119,l),
(369,321,l),
(329,0,l),
(485,0,l),
(572,700,l),
(416,700,l),
(283,365,l),
(236,700,l),
(80,700,l)
);
}
);
width = 547;
},
{
layerId = "EA56A89A-B866-4D06-B6B2-64326ABDBB58";
shapes = (
{
closed = 1;
nodes = (
(34,0,l),
(166,0,l),
(218,415,l),
(315,136,l),
(403,136,l),
(568,412,l),
(517,0,l),
(648,0,l),
(735,700,l),
(604,700,l),
(382,316,l),
(253,700,l),
(122,700,l)
);
}
);
width = 753;
},
{
layerId = "134B4203-AF9A-4952-80B5-5BBA28114A85";
shapes = (
{
closed = 1;
nodes = (
(5,0,l),
(128,0,l),
(178,404,l),
(232,137,l),
(298,137,l),
(420,407,l),
(369,0,l),
(491,0,l),
(579,700,l),
(456,700,l),
(289,327,l),
(215,700,l),
(92,700,l)
);
}
);
width = 568;
},
{
layerId = "5E600FEC-E230-456C-858E-F50E50395600";
shapes = (
{
closed = 1;
nodes = (
(46,0,l),
(119,0,l),
(187,546,l),
(332,141,l),
(389,141,l),
(633,546,l),
(565,0,l),
(638,0,l),
(726,700,l),
(653,700,l),
(371,230,l),
(207,700,l),
(134,700,l)
);
}
);
width = 755;
},
{
layerId = "CE7D5885-7D4C-4AC1-9EEB-BF5BBC0FBEB6";
shapes = (
{
closed = 1;
nodes = (
(24,0,l),
(98,0,l),
(164,533,l),
(260,164,l),
(308,164,l),
(496,536,l),
(429,0,l),
(502,0,l),
(590,700,l),
(517,700,l),
(298,270,l),
(185,700,l),
(112,700,l)
);
}
);
width = 598;
},
{
layerId = "5F4732EF-903E-4848-ACC1-4EB306E3746F";
shapes = (
{
closed = 1;
nodes = (
(54,0,l),
(88,0,l),
(167,633,l),
(343,144,l),
(379,144,l),
(676,635,l),
(597,0,l),
(632,0,l),
(720,700,l),
(684,700,l),
(364,173,l),
(175,700,l),
(141,700,l)
);
}
);
width = 757;
},
{
layerId = "E645874F-62C6-4FA6-A4CB-DCB795EB9F1B";
shapes = (
{
closed = 1;
nodes = (
(37,0,l),
(77,0,l),
(155,619,l),
(279,182,l),
(314,182,l),
(547,622,l),
(469,0,l),
(509,0,l),
(597,700,l),
(557,700,l),
(304,232,l),
(165,700,l),
(125,700,l)
);
}
);
width = 619;
}
);
unicode = 77;
},
{
glyphname = N;
layers = (
{
layerId = "1B3EF96C-8CB6-4FB7-BF3A-0EF12B3D4F9E";
name = "#instance";
shapes = (
{
closed = 1;
nodes = (
(-9,0,l),
(147,0,l),
(184,293,l),
(229,0,l),
(385,0,l),
(473,700,l),
(317,700,l),
(275,368,l),
(235,700,l),
(79,700,l)
);
}
);
width = 448;
},
{
layerId = "A4AEBACF-46F5-4C7E-8680-4ABD111F4CF9";
shapes = (
{
closed = 1;
nodes = (
(6,0,l),
(177,0,l),
(223,372,l),
(362,0,l),
(531,0,l),
(619,700,l),
(449,700,l),
(402,324,l),
(264,700,l),
(93,700,l)
);
}
);
width = 610;
},
{
layerId = "9252B17A-7510-4296-BE17-39E6376BAFDF";
shapes = (
{
closed = 1;
nodes = (
(-9,0,l),
(147,0,l),
(184,293,l),
(229,0,l),
(385,0,l),
(473,700,l),
(317,700,l),
(275,368,l),
(235,700,l),
(79,700,l)
);
}
);
width = 448;
},
{
layerId = "EA56A89A-B866-4D06-B6B2-64326ABDBB58";
shapes = (
{
closed = 1;
nodes = (
(22,0,l),
(153,0,l),
(209,448,l),
(407,0,l),
(537,0,l),
(625,700,l),
(494,700,l),
(438,250,l),
(241,700,l),
(109,700,l)
);
}
);
width = 631;
},
{
layerId = "134B4203-AF9A-4952-80B5-5BBA28114A85";
shapes = (
{
closed = 1;
nodes = (
(4,0,l),
(127,0,l),
(176,390,l),
(270,0,l),
(393,0,l),
(481,700,l),
(358,700,l),
(306,286,l),
(214,700,l),
(91,700,l)
);
}
);
width = 469;
},
{
layerId = "5E600FEC-E230-456C-858E-F50E50395600";
shapes = (
{
closed = 1;
nodes = (
(44,0,l),
(117,0,l),
(190,577,l),
(473,0,l),
(546,0,l),
(634,700,l),
(561,700,l),
(488,124,l),
(205,700,l),
(132,700,l)
);
}
);
width = 662;
},
{
layerId = "CE7D5885-7D4C-4AC1-9EEB-BF5BBC0FBEB6";
shapes = (
{
closed = 1;
nodes = (
(22,0,l),
(96,0,l),
(163,536,l),
(332,0,l),
(405,0,l),
(492,700,l),
(419,700,l),
(352,163,l),
(183,700,l),
(110,700,l)
);
}
);
width = 500;
},
{
layerId = "5F4732EF-903E-4848-ACC1-4EB306E3746F";
shapes = (
{
closed = 1;
nodes = (
(61,0,l),
(95,0,l),
(175,638,l),
(519,0,l),
(553,0,l),
(641,700,l),
(606,700,l),
(527,65,l),
(182,700,l),
(148,700,l)
);
}
);
width = 683;
},
{
layerId = "E645874F-62C6-4FA6-A4CB-DCB795EB9F1B";
shapes = (
{
closed = 1;
nodes = (
(36,0,l),
(76,0,l),
(155,633,l),
(374,0,l),
(414,0,l),
(501,700,l),
(461,700,l),
(384,81,l),
(164,700,l),
(124,700,l)
);
}
);
width = 521;
}
);
unicode = 78;
},
{
glyphname = O;
layers = (
{
anchors = (
{
name = b.uni0324_2;
position = "{234, 0}";
},
{
name = m.uni0308_1;
position = "{322, 700}";
},
{
name = m.uni0328;
position = "{306, 10}";
},
{
name = t.uni031B_2;
position = "{556, 700}";
}
);
layerId = "1B3EF96C-8CB6-4FB7-BF3A-0EF12B3D4F9E";
name = "#instance";
shapes = (
{
closed = 1;
nodes = (
(249,-8,o),
(301,10,o),
(343,46,cs),
(386,81,o),
(410,129,o),
(418,189,cs),
(458,510,ls),
(466,576,o),
(454,626,o),
(421,659,cs),
(388,692,o),
(343,708,o),
(286,708,cs),
(223,708,o),
(170,691,o),
(128,656,cs),
(85,621,o),
(60,572,o),
(52,510,cs),
(12,189,ls),
(4,125,o),
(15,76,o),
(46,43,c),
(76,9,o),
(123,-8,o),
(186,-8,cs)
);
},
{
closed = 1;
nodes = (
(205,481,ls),
(212,537,o),
(227,563,o),
(263,563,cs),
(298,563,o),
(304,536,o),
(297,481,cs),
(264,213,ls),
(258,166,o),
(236,136,o),
(210,136,c),
(179,137,o),
(165,161,o),
(172,213,cs)
);
}
);
width = 454;
},
{
anchors = (
{
name = b.uni0324_2;
position = "{261, 0}";
},
{
name = m.uni0308_1;
position = "{349, 700}";
},
{
name = m.uni0328;
position = "{322, 10}";
},
{
name = t.uni031B_2;
position = "{629, 700}";
}
);
layerId = "A4AEBACF-46F5-4C7E-8680-4ABD111F4CF9";
shapes = (
{
closed = 1;
nodes = (
(345,-8,o),
(415,17,o),
(462,68,cs),
(509,118,o),
(538,189,o),
(550,280,cs),
(567,419,ls),
(579,512,o),
(567,584,o),
(533,634,cs),
(498,683,o),
(437,708,o),
(348,708,cs),
(259,708,o),
(192,684,o),
(144,635,cs),
(96,586,o),
(65,514,o),
(53,419,cs),
(36,280,ls),
(24,185,o),
(36,113,o),
(70,65,cs),
(103,16,o),
(165,-8,o),
(253,-8,cs)
);
},
{
closed = 1;
nodes = (
(223,409,ls),
(236,518,o),
(264,557,o),
(329,557,cs),
(391,557,o),
(411,516,o),
(397,409,cs),
(382,286,ls),
(369,186,o),
(337,147,o),
(278,147,cs),
(212,147,o),
(195,183,o),
(207,286,cs)
);
}
);
width = 587;
},
{
anchors = (
{
name = b.uni0324_2;
position = "{234, 0}";
},
{
name = m.uni0308_1;
position = "{322, 700}";
},
{
name = m.uni0328;
position = "{306, 10}";
},
{
name = t.uni031B_2;
position = "{556, 700}";
}
);
layerId = "9252B17A-7510-4296-BE17-39E6376BAFDF";
shapes = (
{
closed = 1;
nodes = (
(249,-8,o),
(301,10,o),
(343,46,cs),
(386,81,o),
(410,129,o),
(418,189,cs),
(458,510,ls),
(466,576,o),
(454,626,o),
(421,659,cs),
(388,692,o),
(343,708,o),
(286,708,cs),
(223,708,o),
(170,691,o),
(128,656,cs),
(85,621,o),
(60,572,o),
(52,510,cs),
(12,189,ls),
(4,125,o),
(15,76,o),
(46,43,c),
(76,9,o),
(123,-8,o),
(186,-8,cs)
);
},
{
closed = 1;
nodes = (
(205,481,ls),
(212,537,o),
(227,563,o),
(263,563,cs),
(298,563,o),
(304,536,o),
(297,481,cs),
(264,213,ls),
(258,166,o),
(236,136,o),
(210,136,c),
(179,137,o),
(165,161,o),
(172,213,cs)
);
}
);
width = 454;
},
{
anchors = (
{
name = b.uni0324_2;
position = "{262, 0}";
},
{
name = m.uni0308_1;
position = "{350, 700}";
},
{
name = m.uni0328;
position = "{323, 10}";
},
{
name = t.uni031B_2;
position = "{630, 700}";
}
);
layerId = "EA56A89A-B866-4D06-B6B2-64326ABDBB58";
shapes = (
{
closed = 1;
nodes = (
(344,-8,o),
(411,16,o),
(459,65,cs),
(506,113,o),
(535,182,o),
(546,273,cs),
(565,426,ls),
(577,518,o),
(565,588,o),
(530,636,cs),
(494,684,o),
(435,708,o),
(352,708,cs),
(269,708,o),
(204,685,o),
(156,638,cs),
(108,591,o),
(78,520,o),
(66,426,cs),
(47,273,ls),
(35,179,o),
(47,109,o),
(82,62,cs),
(117,15,o),
(176,-8,o),
(258,-8,cs)
);
},
{
closed = 1;
nodes = (
(197,419,ls),
(212,542,o),
(254,590,o),
(337,590,cs),
(419,590,o),
(449,538,o),
(434,419,cs),
(416,275,ls),
(402,162,o),
(358,112,o),
(277,112,cs),
(194,112,o),
(164,159,o),
(179,275,cs)
);
}
);
width = 596;
},
{
anchors = (
{
name = b.uni0324_2;
position = "{191, 0}";
},
{
name = m.uni0308_1;
position = "{279, 700}";
},
{
name = m.uni0328;
position = "{250, 10}";
},
{
name = t.uni031B_2;
position = "{469, 700}";
}
);
layerId = "134B4203-AF9A-4952-80B5-5BBA28114A85";
shapes = (
{
closed = 1;
nodes = (
(253,-8,o),
(303,10,o),
(343,46,cs),
(384,82,o),
(408,132,o),
(415,195,cs),
(454,504,ls),
(462,571,o),
(451,622,o),
(421,657,c),
(390,691,o),
(346,708,o),
(288,708,cs),
(227,708,o),
(177,690,o),
(137,655,cs),
(96,620,o),
(71,569,o),
(63,504,cs),
(24,195,ls),
(16,129,o),
(27,79,o),
(57,44,cs),
(87,9,o),
(132,-8,o),
(192,-8,cs)
);
},
{
closed = 1;
nodes = (
(183,484,ls),
(193,559,o),
(220,594,o),
(271,594,cs),
(321,594,o),
(338,557,o),
(329,484,cs),
(294,209,ls),
(286,142,o),
(254,105,o),
(210,105,c),
(161,106,o),
(140,140,o),
(149,209,cs)
);
}
);
width = 463;
},
{
anchors = (
{
name = b.uni0324_2;
position = "{263, 0}";
},
{
name = m.uni0308_1;
position = "{351, 700}";
},
{
name = m.uni0328;
position = "{325, 10}";
},
{
name = t.uni031B_2;
position = "{631, 700}";
}
);
layerId = "5E600FEC-E230-456C-858E-F50E50395600";
shapes = (
{
closed = 1;
nodes = (
(342,-8,o),
(405,15,o),
(453,60,cs),
(500,105,o),
(529,173,o),
(540,262,cs),
(562,437,ls),
(573,527,o),
(561,595,o),
(525,640,cs),
(489,685,o),
(433,708,o),
(358,708,cs),
(283,708,o),
(222,686,o),
(174,641,cs),
(127,596,o),
(96,528,o),
(85,437,cs),
(63,262,ls),
(51,171,o),
(64,103,o),
(100,59,cs),
(137,14,o),
(192,-8,o),
(267,-8,cs)
);
},
{
closed = 1;
nodes = (
(156,434,ls),
(174,577,o),
(237,640,o),
(349,640,cs),
(459,640,o),
(505,571,o),
(488,434,cs),
(466,258,ls),
(450,126,o),
(387,60,o),
(277,60,cs),
(167,60,o),
(117,123,o),
(134,258,cs)
);
}
);
width = 608;
},
{
anchors = (
{
name = b.uni0324_2;
position = "{127, 0}";
},
{
name = m.uni0308_1;
position = "{215, 700}";
},
{
name = m.uni0328;
position = "{164, 10}";
},
{
name = t.uni031B_2;
position = "{339, 700}";
}
);
layerId = "CE7D5885-7D4C-4AC1-9EEB-BF5BBC0FBEB6";
shapes = (
{
closed = 1;
nodes = (
(258,-8,o),
(306,10,o),
(343,47,cs),
(380,84,o),
(403,136,o),
(412,204,cs),
(448,495,ls),
(457,564,o),
(448,617,o),
(420,654,cs),
(393,690,o),
(349,708,o),
(290,708,cs),
(233,708,o),
(185,690,o),
(148,655,cs),
(111,619,o),
(87,566,o),
(79,495,cs),
(42,204,ls),
(34,135,o),
(43,82,o),
(72,46,cs),
(101,10,o),
(143,-8,o),
(201,-8,cs)
);
},
{
closed = 1;
nodes = (
(150,488,ls),
(163,591,o),
(208,641,o),
(283,641,cs),
(354,641,o),
(388,591,o),
(375,488,cs),
(339,203,ls),
(327,107,o),
(281,58,o),
(210,58,cs),
(133,59,o),
(102,107,o),
(114,203,cs)
);
}
);
width = 475;
},
{
anchors = (
{
name = b.uni0324_2;
position = "{264, 0}";
},
{
name = m.uni0308_1;
position = "{352, 700}";
},
{
name = m.uni0328;
position = "{326, 10}";
},
{
name = t.uni031B_2;
position = "{632, 700}";
}
);
layerId = "5F4732EF-903E-4848-ACC1-4EB306E3746F";
shapes = (
{
closed = 1;
nodes = (
(342,-8,o),
(401,14,o),
(448,57,cs),
(495,100,o),
(525,166,o),
(536,255,cs),
(560,444,ls),
(571,533,o),
(559,599,o),
(522,643,cs),
(486,686,o),
(432,708,o),
(362,708,cs),
(291,708,o),
(233,687,o),
(186,644,cs),
(139,601,o),
(109,534,o),
(98,444,cs),
(74,255,ls),
(63,165,o),
(76,99,o),
(112,56,cs),
(149,13,o),
(203,-8,o),
(273,-8,cs)
);
},
{
closed = 1;
nodes = (
(131,444,ls),
(150,600,o),
(228,673,o),
(357,673,cs),
(487,673,o),
(543,593,o),
(525,444,cs),
(500,247,ls),
(482,102,o),
(408,25,o),
(276,25,cs),
(148,25,o),
(88,99,o),
(106,247,cs)
);
}
);
width = 617;
},
{
anchors = (
{
name = b.uni0324_2;
position = "{84, 0}";
},
{
name = m.uni0308_1;
position = "{172, 700}";
},
{
name = m.uni0328;
position = "{108, 10}";
},
{
name = t.uni031B_2;
position = "{252, 700}";
}
);
layerId = "E645874F-62C6-4FA6-A4CB-DCB795EB9F1B";
shapes = (
{
closed = 1;
nodes = (
(262,-8,o),
(308,11,o),
(343,48,cs),
(378,85,o),
(401,139,o),
(410,210,cs),
(444,489,ls),
(453,560,o),
(445,614,o),
(420,652,c),
(394,689,o),
(352,708,o),
(292,708,cs),
(237,708,o),
(191,690,o),
(156,654,cs),
(121,618,o),
(99,563,o),
(90,489,cs),
(55,210,ls),
(46,139,o),
(56,85,o),
(83,48,cs),
(111,11,o),
(152,-8,o),
(207,-8,cs)
);
},
{
closed = 1;
nodes = (
(128,491,ls),
(143,612,o),
(200,672,o),
(291,672,cs),
(378,672,o),
(422,612,o),
(407,491,cs),
(370,199,ls),
(356,83,o),
(300,27,o),
(210,27,cs),
(116,28,o),
(77,86,o),
(91,199,cs)
);
}
);
width = 484;
}
);
leftKerningGroup = C;
unicode = 79;
},
{
glyphname = Oslash;
layers = (
{
layerId = "1B3EF96C-8CB6-4FB7-BF3A-0EF12B3D4F9E";
name = "#instance";
shapes = (
{
closed = 1;
nodes = (
(-13,-20,l),
(48,-20,l),
(484,740,l),
(421,740,l)
);
},
{
closed = 1;
nodes = (
(249,-8,o),
(301,10,o),
(343,45,cs),
(384,80,o),
(409,128,o),
(416,188,cs),
(458,521,ls),
(466,587,o),
(454,636,o),
(422,669,cs),
(389,702,o),
(344,718,o),
(288,718,cs),
(225,718,o),
(173,701,o),
(131,666,cs),
(89,631,o),
(63,582,o),
(55,521,cs),
(14,188,ls),
(6,125,o),
(17,76,o),
(47,43,cs),
(77,9,o),
(124,-8,o),
(186,-8,cs)
);
},
{
closed = 1;
nodes = (
(208,492,ls),
(215,548,o),
(229,573,o),
(265,573,cs),
(299,573,o),
(305,547,o),
(298,492,cs),
(263,212,l),
(258,165,o),
(234,136,o),
(210,136,c),
(179,137,o),
(166,161,o),
(173,212,cs)
);
}
);
width = 454;
},
{
layerId = "A4AEBACF-46F5-4C7E-8680-4ABD111F4CF9";
shapes = (
{
closed = 1;
nodes = (
(-2,-20,l),
(80,-20,l),
(607,735,l),
(527,735,l)
);
},
{
closed = 1;
nodes = (
(345,-8,o),
(415,17,o),
(462,68,cs),
(509,118,o),
(538,189,o),
(550,280,cs),
(568,428,ls),
(580,521,o),
(569,593,o),
(534,643,cs),
(499,693,o),
(438,718,o),
(349,718,cs),
(260,718,o),
(193,694,o),
(145,645,cs),
(97,596,o),
(67,524,o),
(55,428,cs),
(36,280,ls),
(24,185,o),
(36,113,o),
(70,65,cs),
(103,16,o),
(165,-8,o),
(253,-8,cs)
);
},
{
closed = 1;
nodes = (
(224,419,ls),
(238,528,o),
(265,566,o),
(330,566,cs),
(393,566,o),
(412,524,o),
(399,419,cs),
(382,286,ls),
(369,186,o),
(337,147,o),
(278,147,cs),
(212,147,o),
(195,183,o),
(207,286,cs)
);
}
);
width = 587;
},
{
layerId = "9252B17A-7510-4296-BE17-39E6376BAFDF";
shapes = (
{
closed = 1;
nodes = (
(-13,-20,l),
(48,-20,l),
(484,740,l),
(421,740,l)
);
},
{
closed = 1;
nodes = (
(249,-8,o),
(301,10,o),
(343,45,cs),
(384,80,o),
(409,128,o),
(416,188,cs),
(458,521,ls),
(466,587,o),
(454,636,o),
(422,669,cs),
(389,702,o),
(344,718,o),
(288,718,cs),
(225,718,o),
(173,701,o),
(131,666,cs),
(89,631,o),
(63,582,o),
(55,521,cs),
(14,188,ls),
(6,125,o),
(17,76,o),
(47,43,cs),
(77,9,o),
(124,-8,o),
(186,-8,cs)
);
},
{
closed = 1;
nodes = (
(208,492,ls),
(215,548,o),
(229,573,o),
(265,573,cs),
(299,573,o),
(305,547,o),
(298,492,cs),
(263,212,ls),
(258,165,o),
(234,136,o),
(210,136,c),
(179,137,o),
(166,161,o),
(173,212,cs)
);
}
);
width = 454;
},
{
layerId = "EA56A89A-B866-4D06-B6B2-64326ABDBB58";
shapes = (
{
closed = 1;
nodes = (
(10,-20,l),
(82,-20,l),
(603,732,l),
(532,732,l)
);
},
{
closed = 1;
nodes = (
(344,-8,o),
(411,16,o),
(459,65,cs),
(506,113,o),
(535,182,o),
(546,273,cs),
(566,435,ls),
(578,527,o),
(566,597,o),
(531,645,cs),
(495,693,o),
(436,717,o),
(353,717,cs),
(270,717,o),
(205,694,o),
(157,647,cs),
(109,600,o),
(79,529,o),
(67,435,cs),
(47,273,ls),
(35,179,o),
(47,109,o),
(82,62,cs),
(117,15,o),
(176,-8,o),
(258,-8,cs)
);
},
{
closed = 1;
nodes = (
(198,428,ls),
(213,551,o),
(255,599,o),
(338,599,cs),
(420,599,o),
(450,547,o),
(435,428,cs),
(416,275,ls),
(402,162,o),
(358,112,o),
(277,112,cs),
(194,112,o),
(164,159,o),
(179,275,cs)
);
}
);
width = 596;
},
{
layerId = "134B4203-AF9A-4952-80B5-5BBA28114A85";
shapes = (
{
closed = 1;
nodes = (
(-2,-20,l),
(56,-20,l),
(483,735,l),
(424,735,l)
);
},
{
closed = 1;
nodes = (
(253,-8,o),
(303,10,o),
(343,46,cs),
(384,82,o),
(408,132,o),
(415,195,cs),
(455,513,ls),
(464,580,o),
(452,631,o),
(422,666,c),
(391,700,o),
(347,717,o),
(290,717,cs),
(228,717,o),
(178,699,o),
(138,664,cs),
(97,629,o),
(72,578,o),
(64,513,cs),
(24,195,ls),
(16,129,o),
(27,79,o),
(57,44,cs),
(87,9,o),
(132,-8,o),
(192,-8,cs)
);
},
{
closed = 1;
nodes = (
(185,493,ls),
(194,568,o),
(221,603,o),
(272,603,cs),
(322,603,o),
(339,566,o),
(330,493,cs),
(294,209,ls),
(286,142,o),
(254,105,o),
(210,105,c),
(161,106,o),
(140,140,o),
(149,209,cs)
);
}
);
width = 463;
},
{
layerId = "5E600FEC-E230-456C-858E-F50E50395600";
shapes = (
{
closed = 1;
nodes = (
(27,-20,l),
(85,-20,l),
(598,727,l),
(541,727,l)
);
},
{
closed = 1;
nodes = (
(342,-8,o),
(405,15,o),
(453,60,cs),
(500,105,o),
(529,173,o),
(540,262,cs),
(563,445,ls),
(574,535,o),
(562,603,o),
(526,648,cs),
(490,693,o),
(434,716,o),
(359,716,cs),
(284,716,o),
(223,694,o),
(175,649,cs),
(128,604,o),
(97,536,o),
(86,445,cs),
(63,262,ls),
(51,171,o),
(64,103,o),
(100,59,cs),
(137,14,o),
(192,-8,o),
(267,-8,cs)
);
},
{
closed = 1;
nodes = (
(157,442,ls),
(175,585,o),
(238,648,o),
(350,648,cs),
(460,648,o),
(506,579,o),
(489,442,cs),
(466,258,ls),
(450,126,o),
(387,60,o),
(277,60,cs),
(167,60,o),
(117,123,o),
(134,258,cs)
);
}
);
width = 608;
},
{
layerId = "CE7D5885-7D4C-4AC1-9EEB-BF5BBC0FBEB6";
shapes = (
{
closed = 1;
nodes = (
(13,-20,l),
(67,-20,l),
(481,727,l),
(428,727,l)
);
},
{
closed = 1;
nodes = (
(258,-8,o),
(306,11,o),
(344,48,cs),
(382,85,o),
(405,137,o),
(414,206,cs),
(451,501,ls),
(459,570,o),
(450,624,o),
(422,661,cs),
(394,698,o),
(350,716,o),
(291,716,cs),
(233,716,o),
(185,698,o),
(147,662,cs),
(110,626,o),
(86,572,o),
(77,501,cs),
(40,206,ls),
(32,136,o),
(42,83,o),
(71,47,c),
(100,10,o),
(143,-8,o),
(201,-8,cs)
);
},
{
closed = 1;
nodes = (
(150,494,ls),
(162,597,o),
(207,648,o),
(284,648,cs),
(357,648,o),
(390,597,o),
(377,494,cs),
(341,205,ls),
(328,108,o),
(283,59,o),
(210,59,cs),
(133,60,o),
(101,108,o),
(113,205,cs)
);
}
);
width = 475;
},
{
layerId = "5F4732EF-903E-4848-ACC1-4EB306E3746F";
shapes = (
{
closed = 1;
nodes = (
(40,-20,l),
(87,-20,l),
(595,724,l),
(546,724,l)
);
},
{
closed = 1;
nodes = (
(342,-8,o),
(401,14,o),
(448,57,cs),
(495,100,o),
(525,166,o),
(536,255,cs),
(561,452,ls),
(572,541,o),
(560,607,o),
(523,650,cs),
(487,693,o),
(433,715,o),
(363,715,cs),
(292,715,o),
(234,694,o),
(187,651,cs),
(140,608,o),
(110,541,o),
(99,452,cs),
(74,255,ls),
(63,165,o),
(76,99,o),
(112,56,cs),
(149,13,o),
(203,-8,o),
(273,-8,cs)
);
},
{
closed = 1;
nodes = (
(132,451,ls),
(151,607,o),
(229,681,o),
(358,681,cs),
(488,681,o),
(544,602,o),
(525,451,cs),
(500,247,ls),
(482,102,o),
(408,25,o),
(276,25,cs),
(148,25,o),
(88,99,o),
(106,247,cs)
);
}
);
width = 617;
},
{
layerId = "E645874F-62C6-4FA6-A4CB-DCB795EB9F1B";
shapes = (
{
closed = 1;
nodes = (
(24,-20,l),
(75,-20,l),
(480,722,l),
(432,722,l)
);
},
{
closed = 1;
nodes = (
(262,-8,o),
(308,11,o),
(345,49,cs),
(381,86,o),
(404,141,o),
(413,213,cs),
(448,493,ls),
(457,564,o),
(448,618,o),
(422,657,cs),
(395,696,o),
(353,715,o),
(293,715,cs),
(236,715,o),
(190,697,o),
(154,661,cs),
(118,624,o),
(96,568,o),
(86,493,cs),
(51,213,ls),
(42,140,o),
(52,85,o),
(80,48,cs),
(109,11,o),
(151,-8,o),
(207,-8,cs)
);
},
{
closed = 1;
nodes = (
(126,495,ls),
(141,616,o),
(199,678,o),
(292,678,cs),
(380,678,o),
(423,616,o),
(408,495,cs),
(371,202,ls),
(357,85,o),
(303,28,o),
(210,28,cs),
(116,29,o),
(75,86,o),
(90,202,cs)
);
}
);
width = 484;
}
);
unicode = 216;
},
{
glyphname = P;
layers = (
{
anchors = (
{
name = b.uni0324_2;
position = "{244, 0}";
},
{
name = m.uni0308_1;
position = "{332, 700}";
}
);
layerId = "A4AEBACF-46F5-4C7E-8680-4ABD111F4CF9";
shapes = (
{
closed = 1;
nodes = (
(5,0,l),
(176,0,l),
(206,245,l),
(302,245,ls),
(373,245,o),
(432,265,o),
(479,306,cs),
(525,347,o),
(552,401,o),
(561,469,cs),
(570,540,o),
(556,596,o),
(521,638,c),
(484,679,o),
(430,700,o),
(359,700,cs),
(92,700,l)
);
},
{
closed = 1;
nodes = (
(225,397,l),
(244,550,l),
(332,550,ls),
(375,550,o),
(398,520,o),
(391,469,cs),
(386,428,o),
(352,397,o),
(313,397,cs)
);
}
);
width = 553;
},
{
anchors = (
{
name = b.uni0324_2;
position = "{218, 0}";
},
{
name = m.uni0308_1;
position = "{306, 700}";
}
);
layerId = "9252B17A-7510-4296-BE17-39E6376BAFDF";
shapes = (
{
closed = 1;
nodes = (
(-7,0,l),
(146,0,l),
(175,233,l),
(210,233,ls),
(280,233,o),
(333,252,o),
(368,290,cs),
(403,328,o),
(425,387,o),
(435,468,cs),
(445,549,o),
(438,608,o),
(412,645,cs),
(387,682,o),
(338,700,o),
(268,700,cs),
(81,700,l)
);
},
{
closed = 1;
nodes = (
(193,377,l),
(216,557,l),
(246,557,ls),
(284,557,o),
(287,532,o),
(279,468,cs),
(271,404,o),
(259,377,o),
(224,377,cs)
);
}
);
width = 422;
},
{
anchors = (
{
name = b.uni0324_2;
position = "{245, 0}";
},
{
name = m.uni0308_1;
position = "{333, 700}";
}
);
layerId = "EA56A89A-B866-4D06-B6B2-64326ABDBB58";
shapes = (
{
closed = 1;
nodes = (
(21,0,l),
(152,0,l),
(185,261,l),
(312,261,ls),
(381,261,o),
(439,281,o),
(484,320,cs),
(529,359,o),
(556,411,o),
(564,477,cs),
(572,546,o),
(560,601,o),
(525,641,cs),
(490,680,o),
(437,700,o),
(366,700,cs),
(108,700,l)
);
},
{
closed = 1;
nodes = (
(200,379,l),
(225,583,l),
(345,583,ls),
(410,583,o),
(442,545,o),
(433,477,cs),
(425,416,o),
(382,379,o),
(319,379,cs)
);
}
);
width = 562;
},
{
anchors = (
{
name = b.uni0324_2;
position = "{173, 0}";
},
{
name = m.uni0308_1;
position = "{261, 700}";
}
);
layerId = "134B4203-AF9A-4952-80B5-5BBA28114A85";
shapes = (
{
closed = 1;
nodes = (
(6,0,l),
(127,0,l),
(159,258,l),
(221,258,ls),
(287,258,o),
(337,276,o),
(372,312,c),
(405,348,o),
(427,404,o),
(436,479,cs),
(446,555,o),
(438,611,o),
(413,647,cs),
(389,682,o),
(343,700,o),
(277,700,cs),
(93,700,l)
);
},
{
closed = 1;
nodes = (
(173,371,l),
(200,588,l),
(259,588,ls),
(311,588,o),
(324,556,o),
(314,479,cs),
(305,403,o),
(282,371,o),
(232,371,cs)
);
}
);
width = 428;
},
{
anchors = (
{
name = b.uni0324_2;
position = "{246, 0}";
},
{
name = m.uni0308_1;
position = "{334, 700}";
}
);
layerId = "5E600FEC-E230-456C-858E-F50E50395600";
shapes = (
{
closed = 1;
nodes = (
(43,0,l),
(116,0,l),
(152,285,l),
(327,285,ls),
(393,285,o),
(448,303,o),
(492,340,cs),
(535,377,o),
(560,426,o),
(568,489,cs),
(577,556,o),
(565,608,o),
(532,645,c),
(497,682,o),
(447,700,o),
(379,700,cs),
(131,700,l)
);
},
{
closed = 1;
nodes = (
(160,352,l),
(195,632,l),
(364,632,ls),
(461,632,o),
(507,584,o),
(495,489,cs),
(484,398,o),
(426,352,o),
(329,352,cs)
);
}
);
width = 574;
},
{
anchors = (
{
name = b.uni0324_2;
position = "{106, 0}";
},
{
name = m.uni0308_1;
position = "{194, 700}";
}
);
layerId = "CE7D5885-7D4C-4AC1-9EEB-BF5BBC0FBEB6";
shapes = (
{
closed = 1;
nodes = (
(24,0,l),
(97,0,l),
(134,296,l),
(239,296,ls),
(297,296,o),
(343,313,o),
(377,346,c),
(409,379,o),
(430,429,o),
(438,496,cs),
(447,565,o),
(440,616,o),
(416,650,cs),
(392,683,o),
(350,700,o),
(289,700,cs),
(112,700,l)
);
},
{
closed = 1;
nodes = (
(142,362,l),
(176,634,l),
(277,634,ls),
(351,634,o),
(379,592,o),
(367,496,cs),
(355,401,o),
(317,362,o),
(243,362,cs)
);
}
);
width = 436;
},
{
anchors = (
{
name = b.uni0324_2;
position = "{247, 0}";
},
{
name = m.uni0308_1;
position = "{335, 700}";
}
);
layerId = "5F4732EF-903E-4848-ACC1-4EB306E3746F";
shapes = (
{
closed = 1;
nodes = (
(59,0,l),
(93,0,l),
(130,301,l),
(336,301,ls),
(400,301,o),
(454,319,o),
(497,354,cs),
(539,389,o),
(564,436,o),
(571,497,cs),
(579,563,o),
(567,613,o),
(535,648,cs),
(503,683,o),
(453,700,o),
(386,700,cs),
(146,700,l)
);
},
{
closed = 1;
nodes = (
(134,334,l),
(176,665,l),
(377,665,ls),
(497,665,o),
(551,609,o),
(537,497,cs),
(523,386,o),
(456,334,o),
(335,334,cs)
);
}
);
width = 583;
},
{
anchors = (
{
name = b.uni0324_2;
position = "{61, 0}";
},
{
name = m.uni0308_1;
position = "{149, 700}";
}
);
layerId = "E645874F-62C6-4FA6-A4CB-DCB795EB9F1B";
shapes = (
{
closed = 1;
nodes = (
(37,0,l),
(77,0,l),
(117,321,l),
(251,321,ls),
(304,321,o),
(348,337,o),
(381,368,cs),
(413,399,o),
(432,445,o),
(440,507,cs),
(448,571,o),
(440,619,o),
(418,652,c),
(395,684,o),
(355,700,o),
(298,700,cs),
(125,700,l)
);
},
{
closed = 1;
nodes = (
(122,356,l),
(160,665,l),
(290,665,ls),
(379,665,o),
(416,616,o),
(403,507,cs),
(389,400,o),
(341,356,o),
(251,356,cs)
);
}
);
width = 442;
}
);
unicode = 80;
},
{
glyphname = Q;
layers = (
{
anchors = (
{
name = b.uni0324_2;
position = "{261, 0}";
},
{
name = m.uni0308_1;
position = "{349, 700}";
}
);
layerId = "A4AEBACF-46F5-4C7E-8680-4ABD111F4CF9";
shapes = (
{
closed = 1;
nodes = (
(355,-160,l),
(494,-87,l),
(440,47,l),
(501,95,o),
(537,172,o),
(550,280,cs),
(567,419,ls),
(579,512,o),
(567,584,o),
(532,634,cs),
(497,683,o),
(437,708,o),
(348,708,cs),
(260,708,o),
(192,684,o),
(143,635,cs),
(95,586,o),
(65,514,o),
(53,419,cs),
(36,280,ls),
(24,185,o),
(35,113,o),
(69,65,cs),
(103,16,o),
(165,-8,o),
(253,-8,cs),
(257,-8,o),
(267,-8,o),
(282,-7,c),
(293,-7,l)
);
},
{
closed = 1;
nodes = (
(223,409,ls),
(237,518,o),
(264,557,o),
(329,557,cs),
(392,557,o),
(411,516,o),
(397,409,cs),
(382,286,ls),
(369,186,o),
(337,147,o),
(277,147,cs),
(212,147,o),
(195,183,o),
(208,286,cs)
);
}
);
width = 587;
},
{
anchors = (
{
name = b.uni0324_2;
position = "{234, 0}";
},
{
name = m.uni0308_1;
position = "{322, 700}";
}
);
layerId = "9252B17A-7510-4296-BE17-39E6376BAFDF";
shapes = (
{
closed = 1;
nodes = (
(191,-149,l),
(326,-102,l),
(302,19,l),
(362,50,o),
(402,107,o),
(412,184,cs),
(453,513,ls),
(461,578,o),
(449,627,o),
(418,660,c),
(386,692,o),
(343,708,o),
(287,708,cs),
(226,708,o),
(173,691,o),
(132,656,cs),
(90,621,o),
(65,574,o),
(57,513,cs),
(16,184,ls),
(8,123,o),
(19,75,o),
(49,42,cs),
(79,9,o),
(124,-8,o),
(184,-8,c),
(181,-8,o),
(176,-8,o),
(171,-9,cs),
(166,-10,l)
);
},
{
closed = 1;
nodes = (
(208,486,ls),
(215,541,o),
(228,564,o),
(264,564,cs),
(296,564,o),
(303,538,o),
(297,486,cs),
(262,208,ls),
(256,161,o),
(237,135,o),
(210,135,c),
(180,134,o),
(167,159,o),
(173,208,cs)
);
}
);
width = 454;
},
{
anchors = (
{
name = b.uni0324_2;
position = "{262, 0}";
},
{
name = m.uni0308_1;
position = "{350, 700}";
}
);
layerId = "EA56A89A-B866-4D06-B6B2-64326ABDBB58";
shapes = (
{
closed = 1;
nodes = (
(371,-158,l),
(478,-101,l),
(423,36,l),
(491,81,o),
(532,160,o),
(546,273,cs),
(565,426,ls),
(577,518,o),
(565,588,o),
(531,636,c),
(495,684,o),
(435,708,o),
(352,708,cs),
(269,708,o),
(204,685,o),
(156,638,cs),
(108,591,o),
(78,520,o),
(66,426,cs),
(47,273,ls),
(35,179,o),
(47,109,o),
(82,62,cs),
(117,15,o),
(176,-8,o),
(258,-8,cs),
(268,-8,o),
(280,-7,o),
(294,-6,cs),
(309,-5,l)
);
},
{
closed = 1;
nodes = (
(196,419,ls),
(212,542,o),
(254,590,o),
(337,590,cs),
(419,590,o),
(448,538,o),
(433,419,cs),
(415,275,ls),
(401,162,o),
(358,112,o),
(277,112,cs),
(194,112,o),
(164,159,o),
(178,275,cs)
);
}
);
width = 596;
},
{
anchors = (
{
name = b.uni0324_2;
position = "{191, 0}";
},
{
name = m.uni0308_1;
position = "{279, 700}";
}
);
layerId = "134B4203-AF9A-4952-80B5-5BBA28114A85";
shapes = (
{
closed = 1;
nodes = (
(226,-148,l),
(332,-110,l),
(302,18,l),
(362,49,o),
(402,108,o),
(412,192,cs),
(451,506,ls),
(460,573,o),
(449,623,o),
(418,657,cs),
(388,691,o),
(345,708,o),
(289,708,cs),
(228,708,o),
(178,691,o),
(139,656,cs),
(99,621,o),
(74,571,o),
(66,506,cs),
(27,192,ls),
(19,127,o),
(30,78,o),
(60,44,c),
(88,9,o),
(132,-8,o),
(191,-8,cs),
(192,-8,o),
(193,-8,o),
(194,-8,cs),
(195,-8,l)
);
},
{
closed = 1;
nodes = (
(185,487,ls),
(194,560,o),
(219,595,o),
(271,595,cs),
(319,595,o),
(337,559,o),
(328,487,cs),
(293,206,ls),
(284,139,o),
(256,104,o),
(210,104,cs),
(162,104,o),
(141,138,o),
(150,206,cs)
);
}
);
width = 463;
},
{
anchors = (
{
name = b.uni0324_2;
position = "{263, 0}";
},
{
name = m.uni0308_1;
position = "{351, 700}";
}
);
layerId = "5E600FEC-E230-456C-858E-F50E50395600";
shapes = (
{
closed = 1;
nodes = (
(394,-155,l),
(455,-122,l),
(398,20,l),
(477,60,o),
(525,141,o),
(540,262,cs),
(562,437,ls),
(573,527,o),
(561,595,o),
(525,640,cs),
(489,685,o),
(433,708,o),
(358,708,cs),
(283,708,o),
(222,686,o),
(174,641,cs),
(127,596,o),
(96,528,o),
(85,437,cs),
(63,262,ls),
(51,171,o),
(64,103,o),
(100,59,cs),
(137,14,o),
(192,-8,o),
(267,-8,cs),
(284,-8,o),
(298,-7,o),
(313,-5,cs),
(333,-2,l)
);
},
{
closed = 1;
nodes = (
(156,434,ls),
(174,577,o),
(237,640,o),
(349,640,cs),
(459,640,o),
(505,571,o),
(488,434,cs),
(466,258,ls),
(450,126,o),
(387,60,o),
(277,60,cs),
(167,60,o),
(117,123,o),
(134,258,cs)
);
}
);
width = 608;
},
{
anchors = (
{
name = b.uni0324_2;
position = "{127, 0}";
},
{
name = m.uni0308_1;
position = "{215, 700}";
}
);
layerId = "CE7D5885-7D4C-4AC1-9EEB-BF5BBC0FBEB6";
shapes = (
{
closed = 1;
nodes = (
(278,-146,l),
(341,-122,l),
(301,16,l),
(361,47,o),
(400,111,o),
(412,204,cs),
(448,496,ls),
(457,565,o),
(448,617,o),
(420,654,cs),
(392,690,o),
(349,708,o),
(291,708,cs),
(233,708,o),
(185,690,o),
(148,655,cs),
(111,620,o),
(88,567,o),
(79,496,cs),
(43,204,ls),
(34,135,o),
(43,82,o),
(72,46,cs),
(101,10,o),
(143,-8,o),
(201,-8,cs),
(209,-8,o),
(217,-7,o),
(228,-6,cs),
(239,-5,l)
);
},
{
closed = 1;
nodes = (
(150,489,ls),
(163,590,o),
(208,641,o),
(283,641,cs),
(354,641,o),
(388,590,o),
(375,489,cs),
(339,203,ls),
(327,107,o),
(281,58,o),
(210,58,cs),
(133,59,o),
(102,107,o),
(114,203,cs)
);
}
);
width = 475;
},
{
anchors = (
{
name = b.uni0324_2;
position = "{264, 0}";
},
{
name = m.uni0308_1;
position = "{352, 700}";
}
);
layerId = "5F4732EF-903E-4848-ACC1-4EB306E3746F";
shapes = (
{
closed = 1;
nodes = (
(410,-153,l),
(439,-136,l),
(380,9,l),
(467,46,o),
(520,128,o),
(536,255,cs),
(560,444,ls),
(571,533,o),
(559,599,o),
(522,643,cs),
(486,686,o),
(432,708,o),
(362,708,cs),
(292,708,o),
(233,687,o),
(186,644,cs),
(138,601,o),
(109,534,o),
(98,444,cs),
(74,255,ls),
(63,165,o),
(75,99,o),
(112,56,cs),
(149,13,o),
(203,-8,o),
(273,-8,cs),
(294,-8,o),
(311,-7,o),
(326,-4,cs),
(348,0,l)
);
},
{
closed = 1;
nodes = (
(131,444,ls),
(150,600,o),
(227,673,o),
(357,673,cs),
(487,673,o),
(543,593,o),
(525,444,cs),
(500,247,ls),
(482,102,o),
(408,25,o),
(276,25,cs),
(147,25,o),
(87,99,o),
(106,247,cs)
);
}
);
width = 617;
},
{
anchors = (
{
name = b.uni0324_2;
position = "{84, 0}";
},
{
name = m.uni0308_1;
position = "{172, 700}";
}
);
layerId = "E645874F-62C6-4FA6-A4CB-DCB795EB9F1B";
shapes = (
{
closed = 1;
nodes = (
(314,-145,l),
(347,-130,l),
(301,15,l),
(361,46,o),
(399,112,o),
(412,212,cs),
(446,489,ls),
(455,559,o),
(447,613,o),
(420,651,c),
(395,689,o),
(352,708,o),
(293,708,cs),
(236,708,o),
(189,690,o),
(155,655,cs),
(119,619,o),
(97,564,o),
(87,489,cs),
(53,212,ls),
(43,139,o),
(54,85,o),
(82,48,cs),
(109,11,o),
(152,-8,o),
(208,-8,cs),
(220,-8,o),
(235,-7,o),
(252,-5,cs),
(269,-3,l)
);
},
{
closed = 1;
nodes = (
(126,490,ls),
(141,610,o),
(200,672,o),
(291,672,cs),
(378,672,o),
(421,611,o),
(406,490,cs),
(370,201,ls),
(356,85,o),
(299,27,o),
(210,27,c),
(116,30,o),
(76,86,o),
(90,201,cs)
);
}
);
width = 484;
}
);
leftKerningGroup = C;
unicode = 81;
},
{
glyphname = R;
layers = (
{
layerId = "1B3EF96C-8CB6-4FB7-BF3A-0EF12B3D4F9E";
name = "#instance";
shapes = (
{
closed = 1;
nodes = (
(-7,0,l),
(148,0,l),
(181,264,l),
(204,264,l),
(238,0,l),
(401,0,l),
(347,295,l),
(399,332,o),
(425,392,o),
(437,484,cs),
(447,561,o),
(439,617,o),
(415,650,cs),
(390,683,o),
(342,700,o),
(271,700,cs),
(81,700,l)
);
},
{
closed = 1;
nodes = (
(199,406,l),
(218,557,l),
(250,557,ls),
(285,557,o),
(288,535,o),
(282,484,cs),
(275,429,o),
(263,406,o),
(231,406,cs)
);
}
);
width = 449;
},
{
layerId = "A4AEBACF-46F5-4C7E-8680-4ABD111F4CF9";
shapes = (
{
closed = 1;
nodes = (
(6,0,l),
(177,0,l),
(210,265,l),
(262,265,l),
(343,0,l),
(539,0,l),
(434,293,l),
(505,329,o),
(551,394,o),
(562,481,cs),
(571,548,o),
(557,602,o),
(520,641,cs),
(483,680,o),
(430,700,o),
(361,700,cs),
(93,700,l)
);
},
{
closed = 1;
nodes = (
(227,406,l),
(245,550,l),
(334,550,ls),
(376,550,o),
(398,522,o),
(393,482,cs),
(387,435,o),
(359,406,o),
(316,406,cs)
);
}
);
width = 595;
},
{
layerId = "9252B17A-7510-4296-BE17-39E6376BAFDF";
shapes = (
{
closed = 1;
nodes = (
(-7,0,l),
(148,0,l),
(181,264,l),
(204,264,l),
(238,0,l),
(401,0,l),
(347,295,l),
(399,332,o),
(425,392,o),
(437,484,cs),
(447,561,o),
(439,617,o),
(415,650,cs),
(390,683,o),
(342,700,o),
(271,700,cs),
(81,700,l)
);
},
{
closed = 1;
nodes = (
(199,406,l),
(218,557,l),
(250,557,ls),
(285,557,o),
(288,535,o),
(282,484,cs),
(275,429,o),
(263,406,o),
(231,406,cs)
);
}
);
width = 449;
},
{
layerId = "EA56A89A-B866-4D06-B6B2-64326ABDBB58";
shapes = (
{
closed = 1;
nodes = (
(22,0,l),
(153,0,l),
(188,280,l),
(286,280,l),
(381,0,l),
(532,0,l),
(420,300,l),
(502,331,o),
(554,397,o),
(565,489,cs),
(573,554,o),
(560,606,o),
(525,644,cs),
(490,681,o),
(439,700,o),
(371,700,cs),
(109,700,l)
);
},
{
closed = 1;
nodes = (
(202,391,l),
(226,583,l),
(350,583,ls),
(411,583,o),
(442,548,o),
(435,489,cs),
(427,428,o),
(387,391,o),
(326,391,cs)
);
}
);
width = 596;
},
{
layerId = "134B4203-AF9A-4952-80B5-5BBA28114A85";
shapes = (
{
closed = 1;
nodes = (
(6,0,l),
(128,0,l),
(163,281,l),
(220,281,l),
(271,0,l),
(399,0,l),
(334,304,l),
(394,336,o),
(426,396,o),
(438,491,cs),
(447,564,o),
(440,618,o),
(416,651,cs),
(392,684,o),
(346,700,o),
(280,700,cs),
(93,700,l)
);
},
{
closed = 1;
nodes = (
(177,392,l),
(201,588,l),
(264,588,ls),
(313,588,o),
(324,558,o),
(316,491,cs),
(307,423,o),
(286,392,o),
(239,392,cs)
);
}
);
width = 455;
},
{
layerId = "5E600FEC-E230-456C-858E-F50E50395600";
shapes = (
{
closed = 1;
nodes = (
(44,0,l),
(117,0,l),
(155,303,l),
(321,303,l),
(438,0,l),
(522,0,l),
(399,310,l),
(495,333,o),
(557,401,o),
(570,501,cs),
(577,563,o),
(566,612,o),
(533,647,cs),
(500,682,o),
(453,700,o),
(387,700,cs),
(132,700,l)
);
},
{
closed = 1;
nodes = (
(163,368,l),
(196,632,l),
(373,632,ls),
(463,632,o),
(507,587,o),
(497,500,cs),
(486,416,o),
(429,368,o),
(340,368,cs)
);
}
);
width = 597;
},
{
layerId = "CE7D5885-7D4C-4AC1-9EEB-BF5BBC0FBEB6";
shapes = (
{
closed = 1;
nodes = (
(24,0,l),
(97,0,l),
(135,306,l),
(245,306,l),
(320,0,l),
(396,0,l),
(316,318,l),
(386,341,o),
(427,402,o),
(439,502,cs),
(448,569,o),
(440,619,o),
(417,652,c),
(393,684,o),
(352,700,o),
(292,700,cs),
(112,700,l)
);
},
{
closed = 1;
nodes = (
(143,371,l),
(176,634,l),
(283,634,ls),
(354,634,o),
(378,593,o),
(367,502,cs),
(356,414,o),
(319,371,o),
(250,371,cs)
);
}
);
width = 463;
},
{
layerId = "5F4732EF-903E-4848-ACC1-4EB306E3746F";
shapes = (
{
closed = 1;
nodes = (
(60,0,l),
(94,0,l),
(133,318,l),
(344,318,l),
(476,0,l),
(515,0,l),
(385,317,l),
(491,334,o),
(560,404,o),
(573,509,cs),
(580,569,o),
(569,616,o),
(539,650,c),
(508,683,o),
(461,700,o),
(398,700,cs),
(147,700,l)
);
},
{
closed = 1;
nodes = (
(138,353,l),
(177,665,l),
(388,665,ls),
(499,665,o),
(551,612,o),
(538,507,cs),
(526,408,o),
(458,353,o),
(349,353,cs)
);
}
);
width = 598;
},
{
layerId = "E645874F-62C6-4FA6-A4CB-DCB795EB9F1B";
shapes = (
{
closed = 1;
nodes = (
(37,0,l),
(76,0,l),
(117,323,l),
(262,323,l),
(353,0,l),
(394,0,l),
(303,327,l),
(380,344,o),
(427,406,o),
(440,509,cs),
(448,572,o),
(440,620,o),
(418,652,cs),
(395,684,o),
(356,700,o),
(301,700,cs),
(125,700,l)
);
},
{
closed = 1;
nodes = (
(121,357,l),
(159,665,l),
(297,665,ls),
(383,665,o),
(414,616,o),
(401,509,cs),
(388,408,o),
(341,357,o),
(258,357,cs)
);
}
);
width = 469;
}
);
unicode = 82;
},
{
glyphname = S;
layers = (
{
anchors = (
{
name = b.uni0324_2;
position = "{235, 0}";
},
{
name = m.uni0308_1;
position = "{323, 700}";
}
);
layerId = "A4AEBACF-46F5-4C7E-8680-4ABD111F4CF9";
shapes = (
{
closed = 1;
nodes = (
(387,-6,o),
(493,76,o),
(511,221,cs),
(525,332,o),
(476,400,o),
(358,423,cs),
(290,435,ls),
(240,444,o),
(217,466,o),
(222,502,cs),
(227,542,o),
(254,566,o),
(302,566,cs),
(353,566,o),
(376,542,o),
(370,491,c),
(368,472,l),
(529,472,l),
(531,491,l),
(544,626,o),
(469,708,o),
(325,708,cs),
(250,708,o),
(189,688,o),
(142,648,cs),
(93,608,o),
(65,555,o),
(56,489,cs),
(49,432,o),
(59,386,o),
(87,353,cs),
(115,320,o),
(161,297,o),
(227,285,cs),
(282,275,l),
(307,274,o),
(324,267,o),
(333,256,cs),
(342,245,o),
(344,228,o),
(342,207,c),
(336,162,o),
(310,141,o),
(255,141,cs),
(192,141,o),
(169,161,o),
(165,210,c),
(166,224,l),
(8,224,l),
(6,210,l),
(0,77,o),
(76,-6,o),
(228,-6,cs)
);
}
);
width = 542;
},
{
anchors = (
{
name = b.uni0324_2;
position = "{214, 0}";
},
{
name = m.uni0308_1;
position = "{304, 700}";
}
);
layerId = "9252B17A-7510-4296-BE17-39E6376BAFDF";
shapes = (
{
closed = 1;
nodes = (
(290,-9,o),
(374,67,o),
(391,200,cs),
(405,311,o),
(372,371,o),
(281,419,cs),
(237,442,ls),
(203,459,o),
(190,479,o),
(194,516,cs),
(199,557,o),
(217,572,o),
(244,572,cs),
(279,572,o),
(285,550,o),
(278,498,c),
(274,472,l),
(416,472,l),
(419,498,l),
(432,631,o),
(375,708,o),
(261,708,cs),
(203,708,o),
(154,690,o),
(115,654,cs),
(75,617,o),
(52,569,o),
(44,509,cs),
(38,460,o),
(42,420,o),
(56,390,c),
(68,359,o),
(96,333,o),
(138,310,c),
(187,285,ls),
(207,275,o),
(221,263,o),
(230,249,cs),
(238,235,o),
(241,218,o),
(238,197,cs),
(232,145,o),
(220,125,o),
(185,125,cs),
(153,125,o),
(140,151,o),
(145,204,c),
(148,221,l),
(1,221,l),
(-1,204,l),
(-15,68,o),
(45,-9,o),
(166,-9,cs)
);
}
);
width = 418;
},
{
anchors = (
{
name = b.uni0324_2;
position = "{236, 0}";
},
{
name = m.uni0308_1;
position = "{324, 700}";
}
);
layerId = "EA56A89A-B866-4D06-B6B2-64326ABDBB58";
shapes = (
{
closed = 1;
nodes = (
(380,-6,o),
(483,73,o),
(500,210,cs),
(514,321,o),
(465,386,o),
(347,407,cs),
(276,420,ls),
(214,432,o),
(186,460,o),
(192,508,cs),
(199,564,o),
(239,597,o),
(306,597,cs),
(372,597,o),
(403,565,o),
(399,500,c),
(396,480,l),
(522,480,l),
(525,500,l),
(532,632,o),
(459,708,o),
(323,708,cs),
(251,708,o),
(192,689,o),
(146,651,cs),
(99,613,o),
(72,562,o),
(64,498,cs),
(57,443,o),
(68,400,o),
(95,368,cs),
(121,336,o),
(165,314,o),
(226,303,cs),
(290,292,l),
(322,288,o),
(344,279,o),
(357,264,cs),
(369,249,o),
(374,228,o),
(370,200,c),
(363,139,o),
(323,108,o),
(249,108,cs),
(171,108,o),
(139,138,o),
(137,205,c),
(138,217,l),
(14,217,l),
(13,205,l),
(7,72,o),
(82,-6,o),
(227,-6,cs)
);
}
);
width = 543;
},
{
anchors = (
{
name = b.uni0324_2;
position = "{175, 0}";
},
{
name = m.uni0308_1;
position = "{263, 700}";
}
);
layerId = "134B4203-AF9A-4952-80B5-5BBA28114A85";
shapes = (
{
closed = 1;
nodes = (
(289,-8,o),
(368,65,o),
(384,194,cs),
(398,302,o),
(364,360,o),
(273,404,cs),
(230,424,ls),
(182,447,o),
(164,472,o),
(170,520,cs),
(177,575,o),
(204,600,o),
(248,600,cs),
(295,600,o),
(311,571,o),
(304,507,c),
(301,481,l),
(413,481,l),
(416,507,l),
(429,636,o),
(373,708,o),
(261,708,cs),
(204,708,o),
(157,690,o),
(119,655,cs),
(80,620,o),
(58,573,o),
(51,514,cs),
(45,466,o),
(50,427,o),
(65,398,c),
(80,368,o),
(109,342,o),
(152,321,cs),
(196,300,ls),
(224,287,o),
(243,273,o),
(253,257,cs),
(264,240,o),
(267,219,o),
(264,192,cs),
(256,127,o),
(233,98,o),
(183,98,cs),
(135,98,o),
(115,131,o),
(120,199,c),
(122,214,l),
(6,214,l),
(4,199,l),
(-9,66,o),
(47,-8,o),
(167,-8,cs)
);
}
);
width = 420;
},
{
anchors = (
{
name = b.uni0324_2;
position = "{237, 0}";
},
{
name = m.uni0308_1;
position = "{325, 700}";
}
);
layerId = "5E600FEC-E230-456C-858E-F50E50395600";
shapes = (
{
closed = 1;
nodes = (
(371,-6,o),
(467,67,o),
(483,194,cs),
(497,303,o),
(445,363,o),
(331,383,cs),
(254,397,ls),
(174,413,o),
(139,450,o),
(148,517,cs),
(158,597,o),
(219,644,o),
(311,644,cs),
(402,644,o),
(445,601,o),
(441,514,c),
(439,492,l),
(512,492,l),
(514,514,l),
(514,642,o),
(445,708,o),
(320,708,cs),
(253,708,o),
(196,691,o),
(153,656,cs),
(109,621,o),
(84,573,o),
(76,512,cs),
(70,461,o),
(79,420,o),
(105,390,cs),
(130,360,o),
(171,340,o),
(224,330,c),
(301,318,l),
(344,310,o),
(374,296,o),
(393,276,c),
(410,256,o),
(416,227,o),
(412,189,cs),
(401,105,o),
(341,58,o),
(238,58,cs),
(141,58,o),
(94,105,o),
(95,197,c),
(96,206,l),
(25,206,l),
(24,197,l),
(18,64,o),
(89,-6,o),
(225,-6,cs)
);
}
);
width = 543;
},
{
anchors = (
{
name = b.uni0324_2;
position = "{116, 0}";
},
{
name = m.uni0308_1;
position = "{202, 700}";
}
);
layerId = "CE7D5885-7D4C-4AC1-9EEB-BF5BBC0FBEB6";
shapes = (
{
closed = 1;
nodes = (
(286,-7,o),
(359,61,o),
(374,185,cs),
(387,289,o),
(350,344,o),
(260,381,cs),
(221,397,ls),
(150,428,o),
(126,462,o),
(134,526,cs),
(143,601,o),
(183,642,o),
(252,642,cs),
(319,642,o),
(349,603,o),
(344,520,c),
(341,495,l),
(409,495,l),
(412,520,l),
(423,644,o),
(369,708,o),
(261,708,cs),
(206,708,o),
(161,691,o),
(125,658,cs),
(89,624,o),
(68,579,o),
(60,522,c),
(55,475,o),
(61,438,o),
(79,409,cs),
(97,380,o),
(129,357,o),
(173,338,cs),
(211,322,ls),
(249,305,o),
(275,287,o),
(289,268,c),
(302,248,o),
(306,220,o),
(302,184,cs),
(291,99,o),
(250,58,o),
(179,58,cs),
(108,58,o),
(75,101,o),
(83,192,c),
(84,203,l),
(14,203,l),
(12,192,l),
(-1,61,o),
(51,-7,o),
(168,-7,cs)
);
}
);
width = 422;
},
{
anchors = (
{
name = b.uni0324_2;
position = "{238, 0}";
},
{
name = m.uni0308_1;
position = "{326, 700}";
}
);
layerId = "5F4732EF-903E-4848-ACC1-4EB306E3746F";
shapes = (
{
closed = 1;
nodes = (
(365,-6,o),
(458,64,o),
(472,183,cs),
(486,292,o),
(434,348,o),
(320,367,cs),
(239,382,l),
(148,401,o),
(108,444,o),
(118,523,cs),
(130,619,o),
(204,675,o),
(315,675,cs),
(421,675,o),
(472,624,o),
(470,523,c),
(467,500,l),
(504,500,l),
(507,523,l),
(502,648,o),
(435,708,o),
(318,708,cs),
(252,708,o),
(200,692,o),
(158,659,cs),
(115,626,o),
(91,580,o),
(84,521,cs),
(78,472,o),
(88,434,o),
(112,405,cs),
(137,376,o),
(173,357,o),
(224,348,c),
(309,335,l),
(358,324,o),
(394,307,o),
(416,284,cs),
(437,261,o),
(446,227,o),
(440,182,cs),
(428,82,o),
(353,25,o),
(232,25,cs),
(120,25,o),
(64,83,o),
(67,192,c),
(68,199,l),
(32,199,l),
(31,192,l),
(25,59,o),
(95,-6,o),
(225,-6,cs)
);
}
);
width = 544;
},
{
anchors = (
{
name = b.uni0324_2;
position = "{77, 0}";
},
{
name = m.uni0308_1;
position = "{161, 700}";
}
);
layerId = "E645874F-62C6-4FA6-A4CB-DCB795EB9F1B";
shapes = (
{
closed = 1;
nodes = (
(285,-6,o),
(353,59,o),
(368,179,cs),
(380,280,o),
(342,333,o),
(253,366,cs),
(215,379,l),
(129,415,o),
(101,455,o),
(110,530,cs),
(121,618,o),
(170,670,o),
(255,670,cs),
(336,670,o),
(375,624,o),
(370,529,c),
(367,504,l),
(406,504,l),
(409,529,l),
(420,649,o),
(366,708,o),
(261,708,cs),
(208,708,o),
(164,692,o),
(129,659,cs),
(95,626,o),
(74,582,o),
(67,527,cs),
(61,482,o),
(68,445,o),
(89,417,cs),
(109,389,o),
(141,366,o),
(187,349,cs),
(221,337,l),
(266,318,o),
(297,297,o),
(312,275,cs),
(328,253,o),
(333,221,o),
(328,179,cs),
(315,80,o),
(262,31,o),
(177,31,cs),
(90,31,o),
(49,82,o),
(58,187,c),
(59,196,l),
(19,196,l),
(18,187,l),
(5,59,o),
(53,-6,o),
(169,-6,cs)
);
}
);
width = 424;
}
);
unicode = 83;
},
{
glyphname = Scedilla;
layers = (
{
layerId = "1B3EF96C-8CB6-4FB7-BF3A-0EF12B3D4F9E";
name = "#instance";
shapes = (
{
closed = 1;
nodes = (
(59,-220,l),
(133,-220,l),
(206,-222,o),
(266,-187,o),
(266,-109,cs),
(266,-66,o),
(243,-39,o),
(194,-34,c),
(206,-6,l),
(337,13,o),
(394,124,o),
(394,246,cs),
(394,328,o),
(359,378,o),
(281,419,cs),
(237,442,ls),
(207,457,o),
(193,474,o),
(193,504,cs),
(193,537,o),
(205,572,o),
(244,572,cs),
(289,572,o),
(283,529,o),
(278,498,cs),
(274,472,l),
(416,472,l),
(419,498,ls),
(432,631,o),
(375,708,o),
(261,708,cs),
(122,708,o),
(41,601,o),
(41,467,cs),
(41,391,o),
(71,347,o),
(138,310,c),
(187,285,ls),
(218,269,o),
(239,248,o),
(239,212,cs),
(239,175,o),
(231,125,o),
(185,125,cs),
(153,125,o),
(140,151,o),
(145,204,c),
(148,221,l),
(1,221,l),
(-1,204,ls),
(-13,83,o),
(33,9,o),
(128,-6,c),
(108,-52,l),
(104,-85,l),
(150,-85,ls),
(167,-85,o),
(188,-93,o),
(186,-113,c),
(183,-132,o),
(156,-133,o),
(144,-133,cs),
(70,-133,l)
);
}
);
width = 418;
},
{
layerId = "A4AEBACF-46F5-4C7E-8680-4ABD111F4CF9";
shapes = (
{
closed = 1;
nodes = (
(143,-220,l),
(217,-220,l),
(290,-222,o),
(350,-187,o),
(350,-109,cs),
(350,-66,o),
(327,-39,o),
(278,-34,c),
(292,-1,l),
(429,21,o),
(513,118,o),
(513,256,cs),
(513,346,o),
(463,403,o),
(358,423,c),
(290,435,ls),
(244,443,o),
(221,462,o),
(221,493,cs),
(221,541,o),
(256,566,o),
(302,566,cs),
(353,566,o),
(376,542,o),
(370,491,cs),
(368,472,l),
(529,472,l),
(531,491,ls),
(544,626,o),
(469,708,o),
(325,708,cs),
(175,708,o),
(54,613,o),
(54,455,cs),
(54,347,o),
(129,303,o),
(227,285,cs),
(282,275,l),
(320,273,o),
(343,261,o),
(343,221,cs),
(343,164,o),
(311,141,o),
(255,141,cs),
(192,141,o),
(169,161,o),
(165,210,c),
(166,224,l),
(8,224,l),
(6,210,l),
(0,82,o),
(71,0,o),
(212,-6,c),
(192,-52,l),
(188,-85,l),
(234,-85,ls),
(251,-85,o),
(272,-93,o),
(270,-113,c),
(267,-132,o),
(240,-133,o),
(228,-133,cs),
(154,-133,l)
);
}
);
width = 542;
},
{
layerId = "9252B17A-7510-4296-BE17-39E6376BAFDF";
shapes = (
{
closed = 1;
nodes = (
(59,-220,l),
(133,-220,l),
(206,-222,o),
(266,-187,o),
(266,-109,cs),
(266,-66,o),
(243,-39,o),
(194,-34,c),
(206,-6,l),
(337,13,o),
(394,124,o),
(394,246,cs),
(394,328,o),
(359,378,o),
(281,419,cs),
(237,442,ls),
(207,457,o),
(193,474,o),
(193,504,cs),
(193,537,o),
(205,572,o),
(244,572,cs),
(289,572,o),
(283,529,o),
(278,498,cs),
(274,472,l),
(416,472,l),
(419,498,ls),
(432,631,o),
(375,708,o),
(261,708,cs),
(122,708,o),
(41,601,o),
(41,467,cs),
(41,391,o),
(71,347,o),
(138,310,c),
(187,285,ls),
(218,269,o),
(239,248,o),
(239,212,cs),
(239,175,o),
(231,125,o),
(185,125,cs),
(153,125,o),
(140,151,o),
(145,204,c),
(148,221,l),
(1,221,l),
(-1,204,ls),
(-13,83,o),
(33,9,o),
(128,-6,c),
(108,-52,l),
(104,-85,l),
(150,-85,ls),
(167,-85,o),
(188,-93,o),
(186,-113,c),
(183,-132,o),
(156,-133,o),
(144,-133,cs),
(70,-133,l)
);
}
);
width = 418;
},
{
layerId = "EA56A89A-B866-4D06-B6B2-64326ABDBB58";
shapes = (
{
closed = 1;
nodes = (
(147,-220,l),
(215,-220,l),
(285,-221,o),
(347,-189,o),
(347,-113,cs),
(347,-69,o),
(324,-42,o),
(274,-37,c),
(290,-1,l),
(421,20,o),
(502,113,o),
(502,245,cs),
(502,335,o),
(452,388,o),
(347,407,cs),
(276,420,ls),
(219,431,o),
(191,455,o),
(191,496,cs),
(191,563,o),
(242,597,o),
(306,597,cs),
(372,597,o),
(403,565,o),
(399,500,c),
(396,480,l),
(522,480,l),
(525,500,l),
(532,632,o),
(459,708,o),
(323,708,cs),
(179,708,o),
(62,619,o),
(62,467,cs),
(62,365,o),
(133,320,o),
(226,303,cs),
(290,292,l),
(337,286,o),
(371,270,o),
(371,218,cs),
(371,141,o),
(323,108,o),
(249,108,cs),
(171,108,o),
(139,138,o),
(137,205,c),
(138,217,l),
(14,217,l),
(13,205,l),
(7,76,o),
(78,-1,o),
(214,-6,c),
(195,-50,l),
(190,-85,l),
(232,-85,ls),
(252,-85,o),
(275,-92,o),
(275,-113,cs),
(275,-139,o),
(245,-143,o),
(225,-143,cs),
(157,-143,l)
);
}
);
width = 543;
},
{
layerId = "134B4203-AF9A-4952-80B5-5BBA28114A85";
shapes = (
{
closed = 1;
nodes = (
(85,-220,l),
(153,-220,l),
(223,-221,o),
(285,-189,o),
(285,-113,cs),
(285,-69,o),
(262,-42,o),
(212,-37,c),
(227,-1,l),
(340,26,o),
(387,130,o),
(387,238,cs),
(387,318,o),
(351,366,o),
(273,404,cs),
(230,424,ls),
(188,444,o),
(169,466,o),
(169,503,cs),
(169,554,o),
(191,600,o),
(248,600,cs),
(295,600,o),
(311,571,o),
(304,507,cs),
(301,481,l),
(413,481,l),
(416,507,ls),
(429,636,o),
(373,708,o),
(261,708,cs),
(126,708,o),
(49,605,o),
(49,476,cs),
(49,399,o),
(83,355,o),
(152,321,cs),
(196,300,ls),
(237,281,o),
(265,259,o),
(265,210,cs),
(265,156,o),
(247,98,o),
(183,98,cs),
(135,98,o),
(115,131,o),
(120,199,c),
(122,214,l),
(6,214,l),
(4,199,l),
(-8,72,o),
(42,-2,o),
(151,-8,c),
(133,-50,l),
(128,-85,l),
(170,-85,ls),
(190,-85,o),
(213,-92,o),
(213,-113,cs),
(213,-139,o),
(183,-143,o),
(163,-143,cs),
(95,-143,l)
);
}
);
width = 420;
},
{
layerId = "5E600FEC-E230-456C-858E-F50E50395600";
shapes = (
{
closed = 1;
nodes = (
(154,-220,l),
(212,-220,ls),
(279,-220,o),
(344,-192,o),
(344,-117,cs),
(344,-72,o),
(318,-47,o),
(270,-42,c),
(286,-1,l),
(408,19,o),
(485,104,o),
(485,227,cs),
(485,315,o),
(433,365,o),
(331,383,cs),
(254,397,l),
(182,411,o),
(147,443,o),
(147,497,cs),
(147,594,o),
(220,644,o),
(311,644,cs),
(402,644,o),
(445,601,o),
(441,514,c),
(439,492,l),
(512,492,l),
(514,514,l),
(514,642,o),
(445,708,o),
(320,708,cs),
(183,708,o),
(74,628,o),
(74,483,cs),
(74,389,o),
(138,346,o),
(224,330,c),
(301,318,l),
(366,306,o),
(413,283,o),
(413,211,cs),
(413,105,o),
(337,58,o),
(238,58,cs),
(141,58,o),
(94,105,o),
(95,197,c),
(96,206,l),
(25,206,l),
(24,197,l),
(18,67,o),
(86,-3,o),
(216,-6,c),
(198,-48,l),
(193,-85,l),
(229,-85,ls),
(255,-85,o),
(285,-93,o),
(285,-119,cs),
(285,-150,o),
(244,-157,o),
(220,-157,cs),
(162,-157,l)
);
}
);
width = 543;
},
{
layerId = "CE7D5885-7D4C-4AC1-9EEB-BF5BBC0FBEB6";
shapes = (
{
closed = 1;
nodes = (
(91,-220,l),
(149,-220,ls),
(216,-220,o),
(281,-192,o),
(281,-117,cs),
(281,-72,o),
(255,-47,o),
(207,-42,c),
(223,-1,l),
(332,23,o),
(377,120,o),
(377,223,cs),
(377,303,o),
(338,349,o),
(260,381,cs),
(221,397,ls),
(159,424,o),
(133,454,o),
(133,504,cs),
(133,579,o),
(169,642,o),
(252,642,cs),
(319,642,o),
(349,603,o),
(344,520,c),
(341,495,l),
(409,495,l),
(412,520,l),
(423,644,o),
(369,708,o),
(261,708,cs),
(137,708,o),
(58,613,o),
(58,492,cs),
(58,410,o),
(100,369,o),
(173,338,cs),
(211,322,ls),
(268,297,o),
(303,275,o),
(303,209,cs),
(303,129,o),
(269,58,o),
(179,58,cs),
(108,58,o),
(75,101,o),
(83,192,cs),
(84,203,l),
(14,203,l),
(12,192,l),
(0,67,o),
(46,-1,o),
(152,-7,c),
(135,-48,l),
(130,-85,l),
(166,-85,ls),
(192,-85,o),
(222,-93,o),
(222,-119,cs),
(222,-150,o),
(181,-157,o),
(157,-157,cs),
(99,-157,l)
);
}
);
width = 422;
},
{
layerId = "5F4732EF-903E-4848-ACC1-4EB306E3746F";
shapes = (
{
closed = 1;
nodes = (
(151,-220,l),
(198,-220,l),
(255,-221,o),
(329,-197,o),
(329,-128,cs),
(329,-85,o),
(294,-58,o),
(236,-54,c),
(257,-5,l),
(387,6,o),
(474,84,o),
(474,216,cs),
(474,303,o),
(422,350,o),
(320,367,c),
(239,382,l),
(157,399,o),
(117,436,o),
(117,500,cs),
(117,616,o),
(206,675,o),
(315,675,cs),
(421,675,o),
(472,624,o),
(470,523,c),
(467,500,l),
(504,500,l),
(507,523,l),
(502,648,o),
(435,708,o),
(318,708,cs),
(187,708,o),
(82,634,o),
(82,494,cs),
(82,407,o),
(143,362,o),
(224,348,c),
(309,335,l),
(381,319,o),
(442,290,o),
(442,208,cs),
(442,83,o),
(350,25,o),
(232,25,cs),
(120,25,o),
(64,83,o),
(67,192,c),
(68,199,l),
(32,199,l),
(31,192,l),
(25,60,o),
(94,-5,o),
(223,-6,c),
(199,-61,l),
(197,-83,l),
(216,-83,ls),
(262,-83,o),
(295,-99,o),
(295,-130,cs),
(295,-175,o),
(238,-186,o),
(203,-186,cs),
(156,-186,l)
);
}
);
width = 544;
},
{
layerId = "E645874F-62C6-4FA6-A4CB-DCB795EB9F1B";
shapes = (
{
closed = 1;
nodes = (
(99,-220,l),
(146,-220,l),
(203,-221,o),
(277,-197,o),
(277,-128,cs),
(277,-85,o),
(242,-58,o),
(184,-54,c),
(205,-4,l),
(320,12,o),
(370,106,o),
(370,213,cs),
(370,292,o),
(331,337,o),
(253,366,c),
(215,379,l),
(139,411,o),
(108,446,o),
(108,505,cs),
(108,596,o),
(157,670,o),
(255,670,cs),
(336,670,o),
(375,624,o),
(370,529,c),
(367,504,l),
(406,504,l),
(409,529,l),
(420,649,o),
(366,708,o),
(261,708,cs),
(139,708,o),
(65,615,o),
(65,497,cs),
(65,419,o),
(117,375,o),
(187,349,cs),
(221,337,l),
(284,310,o),
(330,282,o),
(330,208,cs),
(330,112,o),
(283,31,o),
(177,31,cs),
(90,31,o),
(49,82,o),
(58,187,cs),
(59,196,l),
(19,196,l),
(18,187,ls),
(10,75,o),
(38,-6,o),
(171,-6,c),
(147,-61,l),
(145,-83,l),
(164,-83,ls),
(210,-83,o),
(243,-99,o),
(243,-130,cs),
(243,-175,o),
(186,-186,o),
(151,-186,cs),
(104,-186,l)
);
}
);
width = 424;
}
);
unicode = 350;
},
{
glyphname = Germandbls;
layers = (
{
layerId = "1B3EF96C-8CB6-4FB7-BF3A-0EF12B3D4F9E";
name = "#instance";
shapes = (
{
closed = 1;
nodes = (
(187,-3,l),
(290,-3,ls),
(343,-3,o),
(388,1,o),
(425,9,cs),
(462,17,o),
(495,37,o),
(523,69,cs),
(549,100,o),
(567,150,o),
(575,217,cs),
(579,248,o),
(578,277,o),
(571,305,cs),
(565,333,o),
(541,359,o),
(501,382,cs),
(462,405,o),
(418,417,o),
(372,417,c),
(364,349,l),
(561,570,l),
(540,614,o),
(507,649,o),
(464,675,cs),
(422,701,o),
(375,714,o),
(324,714,c),
(283,713,o),
(243,706,o),
(206,693,cs),
(168,679,o),
(135,654,o),
(105,618,c),
(77,581,o),
(59,533,o),
(51,474,c),
(-8,1,l),
(140,1,l),
(199,471,ls),
(207,532,o),
(223,572,o),
(244,589,c),
(253,598,o),
(265,602,o),
(278,602,cs),
(330,602,o),
(369,588,o),
(383,571,c),
(231,401,l),
(217,288,l),
(337,288,ls),
(367,288,o),
(389,282,o),
(407,271,cs),
(423,260,o),
(429,242,o),
(426,219,cs),
(421,176,o),
(392,158,o),
(364,152,cs),
(351,149,o),
(336,147,o),
(322,147,cs),
(205,147,l)
);
}
);
width = 602;
},
{
layerId = "A4AEBACF-46F5-4C7E-8680-4ABD111F4CF9";
shapes = (
{
closed = 1;
nodes = (
(303,-3,l),
(428,-3,ls),
(499,-3,o),
(559,2,o),
(608,13,cs),
(655,24,o),
(695,45,o),
(726,78,cs),
(756,110,o),
(776,157,o),
(783,219,c),
(788,254,o),
(785,289,o),
(775,322,cs),
(766,355,o),
(735,381,o),
(683,400,cs),
(630,419,o),
(572,428,o),
(505,428,c),
(497,322,l),
(751,595,l),
(731,624,o),
(691,652,o),
(628,677,cs),
(566,702,o),
(499,714,o),
(429,714,cs),
(354,715,o),
(293,707,o),
(247,688,cs),
(201,669,o),
(166,642,o),
(143,605,cs),
(120,568,o),
(105,523,o),
(99,470,cs),
(40,1,l),
(210,1,l),
(268,464,ls),
(274,511,o),
(282,530,o),
(320,541,cs),
(337,546,o),
(367,549,o),
(409,549,cs),
(468,549,o),
(512,547,o),
(526,544,c),
(370,365,l),
(359,278,l),
(485,278,ls),
(534,278,o),
(569,273,o),
(589,263,cs),
(608,253,o),
(616,239,o),
(614,222,cs),
(609,187,o),
(601,176,o),
(565,171,cs),
(547,168,o),
(517,167,o),
(475,167,cs),
(324,167,l)
);
}
);
width = 851;
},
{
layerId = "9252B17A-7510-4296-BE17-39E6376BAFDF";
shapes = (
{
closed = 1;
nodes = (
(187,-3,l),
(290,-3,ls),
(343,-3,o),
(388,1,o),
(425,9,cs),
(462,17,o),
(495,37,o),
(523,69,cs),
(549,100,o),
(567,150,o),
(575,217,cs),
(579,248,o),
(578,277,o),
(571,305,cs),
(565,333,o),
(541,359,o),
(501,382,cs),
(462,405,o),
(418,417,o),
(372,417,c),
(364,349,l),
(561,570,l),
(540,614,o),
(507,649,o),
(464,675,cs),
(422,701,o),
(375,714,o),
(324,714,c),
(283,713,o),
(243,706,o),
(206,693,cs),
(168,679,o),
(135,654,o),
(105,618,c),
(77,581,o),
(59,533,o),
(51,474,cs),
(-8,1,l),
(140,1,l),
(199,471,ls),
(207,532,o),
(223,572,o),
(244,589,c),
(253,598,o),
(265,602,o),
(278,602,cs),
(330,602,o),
(369,588,o),
(383,571,c),
(231,401,l),
(217,288,l),
(337,288,ls),
(367,288,o),
(389,282,o),
(407,271,cs),
(423,260,o),
(429,242,o),
(426,219,cs),
(421,176,o),
(392,158,o),
(364,152,cs),
(351,149,o),
(336,147,o),
(322,147,cs),
(205,147,l)
);
}
);
width = 602;
},
{
layerId = "EA56A89A-B866-4D06-B6B2-64326ABDBB58";
shapes = (
{
closed = 1;
nodes = (
(270,-3,l),
(385,-3,ls),
(453,-3,o),
(506,2,o),
(549,13,cs),
(591,23,o),
(625,44,o),
(651,75,cs),
(677,106,o),
(694,151,o),
(701,211,cs),
(706,249,o),
(703,284,o),
(692,316,cs),
(682,348,o),
(655,371,o),
(615,386,c),
(574,400,o),
(519,407,o),
(450,407,c),
(479,343,l),
(693,588,l),
(662,627,o),
(620,657,o),
(567,680,cs),
(513,703,o),
(456,714,o),
(394,714,cs),
(329,715,o),
(276,706,o),
(235,688,cs),
(194,670,o),
(162,643,o),
(141,608,cs),
(121,573,o),
(106,529,o),
(100,477,cs),
(40,1,l),
(169,1,l),
(229,477,ls),
(235,530,o),
(249,561,o),
(290,578,cs),
(310,586,o),
(340,590,o),
(379,590,cs),
(439,590,o),
(489,581,o),
(510,568,c),
(343,362,l),
(335,299,l),
(442,299,ls),
(491,299,o),
(528,292,o),
(548,277,cs),
(568,262,o),
(576,241,o),
(573,212,c),
(566,161,o),
(551,140,o),
(512,132,cs),
(493,128,o),
(464,126,o),
(425,126,cs),
(286,126,l)
);
}
);
width = 770;
},
{
layerId = "134B4203-AF9A-4952-80B5-5BBA28114A85";
shapes = (
{
closed = 1;
nodes = (
(175,-3,l),
(266,-3,ls),
(314,-3,o),
(355,3,o),
(390,14,cs),
(423,25,o),
(453,46,o),
(476,77,cs),
(499,108,o),
(513,152,o),
(520,210,cs),
(525,245,o),
(522,279,o),
(509,312,cs),
(496,345,o),
(473,370,o),
(439,385,cs),
(405,400,o),
(372,408,o),
(338,408,c),
(342,379,l),
(507,581,l),
(490,622,o),
(462,654,o),
(426,678,cs),
(390,702,o),
(350,714,o),
(307,714,cs),
(266,714,o),
(227,707,o),
(194,693,cs),
(160,678,o),
(133,654,o),
(109,619,c),
(87,584,o),
(71,537,o),
(64,479,cs),
(4,1,l),
(120,1,l),
(180,481,ls),
(188,542,o),
(205,585,o),
(231,606,cs),
(244,617,o),
(259,622,o),
(277,622,cs),
(323,622,o),
(359,605,o),
(372,580,c),
(227,402,l),
(215,305,l),
(315,305,ls),
(343,305,o),
(367,298,o),
(384,283,cs),
(403,268,o),
(408,243,o),
(404,210,cs),
(398,158,o),
(371,132,o),
(341,122,cs),
(326,117,o),
(310,114,o),
(294,114,cs),
(189,114,l)
);
}
);
width = 561;
},
{
layerId = "5E600FEC-E230-456C-858E-F50E50395600";
shapes = (
{
closed = 1;
nodes = (
(219,-3,l),
(320,-3,ls),
(380,-3,o),
(427,2,o),
(461,12,cs),
(494,22,o),
(520,41,o),
(539,70,cs),
(557,99,o),
(571,142,o),
(578,199,cs),
(583,241,o),
(579,277,o),
(566,307,cs),
(553,337,o),
(532,360,o),
(501,375,cs),
(471,390,o),
(421,397,o),
(350,396,c),
(336,342,l),
(565,607,l),
(544,640,o),
(514,666,o),
(474,685,cs),
(433,704,o),
(388,714,o),
(341,714,cs),
(291,714,o),
(250,706,o),
(217,689,cs),
(184,672,o),
(157,646,o),
(139,613,cs),
(120,580,o),
(106,538,o),
(100,487,cs),
(39,1,l),
(106,1,l),
(168,496,ls),
(176,560,o),
(199,607,o),
(246,633,cs),
(269,646,o),
(299,652,o),
(334,652,cs),
(396,652,o),
(453,633,o),
(485,604,c),
(307,383,l),
(300,330,l),
(377,330,ls),
(427,330,o),
(464,319,o),
(486,298,cs),
(508,277,o),
(516,243,o),
(511,197,cs),
(501,122,o),
(474,86,o),
(431,74,c),
(410,67,o),
(382,64,o),
(347,64,cs),
(227,64,l)
);
}
);
width = 648;
},
{
layerId = "CE7D5885-7D4C-4AC1-9EEB-BF5BBC0FBEB6";
shapes = (
{
closed = 1;
nodes = (
(156,-3,l),
(231,-3,ls),
(271,-3,o),
(306,5,o),
(336,20,cs),
(364,35,o),
(387,58,o),
(405,88,cs),
(423,118,o),
(433,155,o),
(439,199,cs),
(444,240,o),
(441,275,o),
(428,306,cs),
(415,337,o),
(396,359,o),
(372,372,c),
(345,385,o),
(309,389,o),
(261,385,c),
(269,374,l),
(425,597,l),
(413,633,o),
(395,662,o),
(369,683,cs),
(344,704,o),
(314,714,o),
(282,714,c),
(238,715,o),
(202,704,o),
(175,682,cs),
(148,660,o),
(127,633,o),
(112,600,cs),
(97,567,o),
(88,529,o),
(83,487,cs),
(22,1,l),
(89,1,l),
(151,496,ls),
(159,557,o),
(177,604,o),
(212,632,cs),
(229,645,o),
(251,652,o),
(275,652,cs),
(311,652,o),
(341,630,o),
(355,594,c),
(219,403,l),
(210,330,l),
(282,330,ls),
(309,330,o),
(333,320,o),
(353,300,c),
(371,279,o),
(378,245,o),
(372,197,cs),
(363,130,o),
(341,92,o),
(307,76,cs),
(291,68,o),
(271,64,o),
(251,64,cs),
(164,64,l)
);
}
);
width = 499;
},
{
layerId = "5F4732EF-903E-4848-ACC1-4EB306E3746F";
shapes = (
{
closed = 1;
nodes = (
(186,-3,l),
(277,-3,ls),
(333,-3,o),
(375,4,o),
(403,17,cs),
(431,30,o),
(452,48,o),
(465,70,cs),
(479,92,o),
(488,131,o),
(495,186,cs),
(501,231,o),
(496,267,o),
(482,296,cs),
(467,325,o),
(448,345,o),
(424,358,cs),
(400,371,o),
(356,377,o),
(293,377,c),
(293,364,l),
(495,620,l),
(472,649,o),
(445,672,o),
(413,689,cs),
(381,706,o),
(346,714,o),
(306,714,c),
(267,713,o),
(233,705,o),
(205,689,cs),
(177,672,o),
(154,648,o),
(137,616,cs),
(119,584,o),
(107,543,o),
(101,494,cs),
(39,1,l),
(65,1,l),
(129,509,ls),
(138,580,o),
(166,637,o),
(217,669,cs),
(242,685,o),
(271,693,o),
(304,693,cs),
(367,693,o),
(426,658,o),
(463,617,c),
(283,390,l),
(278,351,l),
(336,351,ls),
(385,351,o),
(422,338,o),
(446,312,cs),
(469,286,o),
(477,244,o),
(469,187,cs),
(458,96,o),
(422,50,o),
(378,35,cs),
(355,27,o),
(329,23,o),
(297,23,cs),
(189,23,l)
);
}
);
width = 567;
},
{
layerId = "E645874F-62C6-4FA6-A4CB-DCB795EB9F1B";
shapes = (
{
closed = 1;
nodes = (
(144,-3,l),
(209,-3,ls),
(244,-3,o),
(274,6,o),
(300,25,cs),
(326,43,o),
(345,67,o),
(359,96,cs),
(373,125,o),
(382,157,o),
(386,192,cs),
(392,237,o),
(386,275,o),
(372,307,c),
(356,338,o),
(334,362,o),
(305,377,cs),
(276,392,o),
(247,396,o),
(216,387,c),
(233,377,l),
(383,608,l),
(368,649,o),
(351,677,o),
(333,692,c),
(312,707,o),
(291,714,o),
(267,714,c),
(221,709,o),
(187,695,o),
(163,672,cs),
(140,649,o),
(125,627,o),
(118,606,cs),
(110,584,o),
(102,546,o),
(96,492,cs),
(34,1,l),
(69,1,l),
(134,516,ls),
(141,577,o),
(161,627,o),
(201,659,c),
(222,674,o),
(246,682,o),
(275,682,cs),
(305,682,o),
(332,647,o),
(344,603,c),
(216,404,l),
(208,347,l),
(261,347,ls),
(287,347,o),
(311,335,o),
(332,311,cs),
(352,287,o),
(359,246,o),
(352,188,cs),
(342,112,o),
(321,66,o),
(286,46,cs),
(268,36,o),
(247,31,o),
(223,31,cs),
(148,31,l)
);
}
);
width = 458;
}
);
unicode = 7838;
},
{
glyphname = T;
layers = (
{
layerId = "1B3EF96C-8CB6-4FB7-BF3A-0EF12B3D4F9E";
name = "#instance";
shapes = (
{
closed = 1;
nodes = (
(77,0,l),
(232,0,l),
(301,555,l),
(405,555,l),
(423,700,l),
(59,700,l),
(41,555,l),
(146,555,l)
);
}
);
width = 379;
},
{
layerId = "A4AEBACF-46F5-4C7E-8680-4ABD111F4CF9";
shapes = (
{
closed = 1;
nodes = (
(137,0,l),
(311,0,l),
(380,550,l),
(542,550,l),
(560,700,l),
(64,700,l),
(45,550,l),
(206,550,l)
);
}
);
width = 521;
},
{
layerId = "9252B17A-7510-4296-BE17-39E6376BAFDF";
shapes = (
{
closed = 1;
nodes = (
(77,0,l),
(232,0,l),
(301,555,l),
(405,555,l),
(423,700,l),
(59,700,l),
(41,555,l),
(146,555,l)
);
}
);
width = 379;
},
{
layerId = "EA56A89A-B866-4D06-B6B2-64326ABDBB58";
shapes = (
{
closed = 1;
nodes = (
(153,0,l),
(286,0,l),
(359,583,l),
(534,583,l),
(549,700,l),
(65,700,l),
(51,583,l),
(226,583,l)
);
}
);
width = 510;
},
{
layerId = "134B4203-AF9A-4952-80B5-5BBA28114A85";
shapes = (
{
closed = 1;
nodes = (
(93,0,l),
(215,0,l),
(288,586,l),
(407,586,l),
(421,700,l),
(60,700,l),
(46,586,l),
(166,586,l)
);
}
);
width = 378;
},
{
layerId = "5E600FEC-E230-456C-858E-F50E50395600";
shapes = (
{
closed = 1;
nodes = (
(175,0,l),
(247,0,l),
(326,632,l),
(522,632,l),
(531,700,l),
(66,700,l),
(57,632,l),
(254,632,l)
);
}
);
width = 493;
},
{
layerId = "CE7D5885-7D4C-4AC1-9EEB-BF5BBC0FBEB6";
shapes = (
{
closed = 1;
nodes = (
(116,0,l),
(187,0,l),
(266,633,l),
(409,633,l),
(417,700,l),
(61,700,l),
(53,633,l),
(195,633,l)
);
}
);
width = 375;
},
{
layerId = "5F4732EF-903E-4848-ACC1-4EB306E3746F";
shapes = (
{
closed = 1;
nodes = (
(190,0,l),
(221,0,l),
(305,665,l),
(514,665,l),
(519,700,l),
(66,700,l),
(62,665,l),
(273,665,l)
);
}
);
width = 482;
},
{
layerId = "E645874F-62C6-4FA6-A4CB-DCB795EB9F1B";
shapes = (
{
closed = 1;
nodes = (
(132,0,l),
(170,0,l),
(253,664,l),
(411,664,l),
(415,700,l),
(62,700,l),
(58,664,l),
(215,664,l)
);
}
);
width = 374;
}
);
leftKerningGroup = T;
unicode = 84;
},
{
glyphname = Tcedilla;
layers = (
{
layerId = "1B3EF96C-8CB6-4FB7-BF3A-0EF12B3D4F9E";
name = "#instance";
shapes = (
{
closed = 1;
nodes = (
(77,0,l),
(113,0,l),
(90,-52,l),
(86,-85,l),
(132,-85,ls),
(149,-85,o),
(170,-93,o),
(168,-113,c),
(165,-132,o),
(138,-133,o),
(126,-133,cs),
(52,-133,l),
(41,-220,l),
(115,-220,l),
(189,-222,o),
(239,-186,o),
(246,-131,cs),
(254,-75,o),
(233,-40,o),
(176,-34,c),
(191,0,l),
(232,0,l),
(301,555,l),
(405,555,l),
(423,700,l),
(59,700,l),
(41,555,l),
(146,555,l)
);
}
);
width = 379;
},
{
layerId = "A4AEBACF-46F5-4C7E-8680-4ABD111F4CF9";
shapes = (
{
closed = 1;
nodes = (
(137,0,l),
(204,0,l),
(181,-52,l),
(177,-85,l),
(223,-85,ls),
(240,-85,o),
(261,-93,o),
(259,-113,c),
(256,-132,o),
(229,-133,o),
(217,-133,cs),
(143,-133,l),
(132,-220,l),
(206,-220,l),
(280,-222,o),
(330,-186,o),
(337,-131,cs),
(345,-75,o),
(324,-40,o),
(267,-34,c),
(282,0,l),
(311,0,l),
(380,550,l),
(542,550,l),
(560,700,l),
(64,700,l),
(45,550,l),
(206,550,l)
);
}
);
width = 521;
},
{
layerId = "9252B17A-7510-4296-BE17-39E6376BAFDF";
shapes = (
{
closed = 1;
nodes = (
(77,0,l),
(113,0,l),
(90,-52,l),
(86,-85,l),
(132,-85,ls),
(149,-85,o),
(170,-93,o),
(168,-113,c),
(165,-132,o),
(138,-133,o),
(126,-133,cs),
(52,-133,l),
(41,-220,l),
(115,-220,l),
(189,-222,o),
(239,-186,o),
(246,-131,cs),
(254,-75,o),
(233,-40,o),
(176,-34,c),
(191,0,l),
(232,0,l),
(301,555,l),
(405,555,l),
(423,700,l),
(59,700,l),
(41,555,l),
(146,555,l)
);
}
);
width = 379;
},
{
layerId = "EA56A89A-B866-4D06-B6B2-64326ABDBB58";
shapes = (
{
closed = 1;
nodes = (
(153,0,l),
(200,0,l),
(179,-50,l),
(174,-85,l),
(216,-85,ls),
(237,-85,o),
(262,-93,o),
(259,-117,cs),
(257,-139,o),
(226,-143,o),
(209,-143,cs),
(141,-143,l),
(131,-220,l),
(199,-220,l),
(268,-221,o),
(322,-190,o),
(330,-131,cs),
(337,-77,o),
(314,-43,o),
(258,-37,c),
(274,0,l),
(286,0,l),
(359,583,l),
(534,583,l),
(549,700,l),
(65,700,l),
(51,583,l),
(226,583,l)
);
}
);
width = 510;
},
{
layerId = "134B4203-AF9A-4952-80B5-5BBA28114A85";
shapes = (
{
closed = 1;
nodes = (
(93,0,l),
(133,0,l),
(112,-50,l),
(107,-85,l),
(149,-85,ls),
(170,-85,o),
(195,-93,o),
(192,-117,cs),
(190,-139,o),
(159,-143,o),
(142,-143,cs),
(74,-143,l),
(64,-220,l),
(132,-220,l),
(201,-221,o),
(255,-190,o),
(263,-131,cs),
(270,-77,o),
(247,-43,o),
(191,-37,c),
(207,0,l),
(215,0,l),
(288,586,l),
(407,586,l),
(421,700,l),
(60,700,l),
(46,586,l),
(166,586,l)
);
}
);
width = 378;
},
{
layerId = "5E600FEC-E230-456C-858E-F50E50395600";
shapes = (
{
closed = 1;
nodes = (
(175,0,l),
(193,0,l),
(173,-48,l),
(168,-85,l),
(204,-85,ls),
(231,-85,o),
(263,-94,o),
(260,-123,c),
(256,-150,o),
(221,-157,o),
(195,-157,cs),
(137,-157,l),
(129,-220,l),
(187,-220,ls),
(249,-220,o),
(309,-197,o),
(318,-131,cs),
(324,-78,o),
(298,-47,o),
(245,-42,c),
(262,0,l),
(247,0,l),
(326,632,l),
(522,632,l),
(531,700,l),
(66,700,l),
(57,632,l),
(254,632,l)
);
}
);
width = 493;
},
{
layerId = "CE7D5885-7D4C-4AC1-9EEB-BF5BBC0FBEB6";
shapes = (
{
closed = 1;
nodes = (
(116,0,l),
(133,0,l),
(113,-48,l),
(108,-85,l),
(144,-85,ls),
(171,-85,o),
(203,-94,o),
(200,-123,c),
(196,-150,o),
(161,-157,o),
(135,-157,cs),
(77,-157,l),
(69,-220,l),
(127,-220,ls),
(189,-220,o),
(249,-197,o),
(258,-131,cs),
(264,-78,o),
(238,-47,o),
(185,-42,c),
(202,0,l),
(187,0,l),
(266,633,l),
(409,633,l),
(417,700,l),
(61,700,l),
(53,633,l),
(195,633,l)
);
}
);
width = 375;
},
{
layerId = "5F4732EF-903E-4848-ACC1-4EB306E3746F";
shapes = (
{
closed = 1;
nodes = (
(190,0,l),
(196,0,l),
(169,-61,l),
(167,-83,l),
(186,-83,ls),
(235,-83,o),
(269,-101,o),
(265,-135,cs),
(261,-169,o),
(222,-186,o),
(173,-186,cs),
(126,-186,l),
(121,-220,l),
(168,-220,l),
(237,-221,o),
(291,-192,o),
(298,-138,cs),
(304,-90,o),
(269,-58,o),
(206,-54,c),
(229,0,l),
(221,0,l),
(305,665,l),
(514,665,l),
(519,700,l),
(66,700,l),
(62,665,l),
(273,665,l)
);
}
);
width = 482;
},
{
layerId = "E645874F-62C6-4FA6-A4CB-DCB795EB9F1B";
shapes = (
{
closed = 1;
nodes = (
(132,0,l),
(150,0,l),
(123,-61,l),
(121,-83,l),
(140,-83,ls),
(189,-83,o),
(223,-101,o),
(219,-135,cs),
(215,-169,o),
(176,-186,o),
(127,-186,cs),
(80,-186,l),
(75,-220,l),
(122,-220,l),
(191,-221,o),
(245,-192,o),
(252,-138,cs),
(258,-90,o),
(223,-58,o),
(160,-54,c),
(183,0,l),
(170,0,l),
(253,664,l),
(411,664,l),
(415,700,l),
(62,700,l),
(58,664,l),
(215,664,l)
);
}
);
width = 374;
}
);
leftKerningGroup = T;
rightKerningGroup = Tbar;
unicode = 354;
},
{
glyphname = U;
layers = (
{
anchors = (
{
name = b.uni0324_2;
position = "{232, 0}";
},
{
name = m.uni0308_1;
position = "{320, 700}";
},
{
name = m.uni0328;
position = "{305, 10}";
},
{
name = t.uni031B_2;
position = "{592, 700}";
}
);
layerId = "1B3EF96C-8CB6-4FB7-BF3A-0EF12B3D4F9E";
name = "#instance";
shapes = (
{
closed = 1;
nodes = (
(253,-8,o),
(320,26,o),
(363,86,cs),
(383,115,o),
(396,149,o),
(401,188,cs),
(465,700,l),
(309,700,l),
(245,191,ls),
(243,171,o),
(239,157,o),
(233,149,cs),
(227,140,o),
(216,136,o),
(201,136,cs),
(187,136,o),
(177,140,o),
(174,148,c),
(170,155,o),
(168,170,o),
(171,191,cs),
(235,700,l),
(79,700,l),
(15,188,ls),
(5,108,o),
(35,48,o),
(90,16,cs),
(117,0,o),
(148,-8,o),
(183,-8,cs)
);
}
);
width = 440;
},
{
anchors = (
{
name = b.uni0324_2;
position = "{268, 0}";
},
{
name = m.uni0308_1;
position = "{356, 700}";
},
{
name = m.uni0328;
position = "{327, 10}";
},
{
name = t.uni031B_2;
position = "{689, 700}";
}
);
layerId = "A4AEBACF-46F5-4C7E-8680-4ABD111F4CF9";
shapes = (
{
closed = 1;
nodes = (
(352,-6,o),
(441,39,o),
(496,112,cs),
(523,149,o),
(540,190,o),
(545,235,cs),
(603,700,l),
(432,700,l),
(374,239,ls),
(370,208,o),
(360,185,o),
(343,169,cs),
(326,153,o),
(304,145,o),
(277,145,cs),
(250,145,o),
(231,153,o),
(219,169,cs),
(206,185,o),
(203,208,o),
(206,239,c),
(264,700,l),
(93,700,l),
(35,235,ls),
(24,144,o),
(61,68,o),
(133,26,cs),
(168,5,o),
(210,-6,o),
(258,-6,cs)
);
}
);
width = 593;
},
{
anchors = (
{
name = b.uni0324_2;
position = "{232, 0}";
},
{
name = m.uni0308_1;
position = "{320, 700}";
},
{
name = m.uni0328;
position = "{305, 10}";
},
{
name = t.uni031B_2;
position = "{592, 700}";
}
);
layerId = "9252B17A-7510-4296-BE17-39E6376BAFDF";
shapes = (
{
closed = 1;
nodes = (
(253,-8,o),
(320,26,o),
(363,86,cs),
(383,115,o),
(396,149,o),
(401,188,cs),
(465,700,l),
(309,700,l),
(245,191,ls),
(243,171,o),
(239,157,o),
(233,149,cs),
(227,140,o),
(216,136,o),
(201,136,cs),
(187,136,o),
(177,140,o),
(174,148,c),
(170,155,o),
(168,170,o),
(171,191,cs),
(235,700,l),
(79,700,l),
(15,188,ls),
(5,108,o),
(35,48,o),
(90,16,cs),
(117,0,o),
(148,-8,o),
(183,-8,cs)
);
}
);
width = 440;
},
{
anchors = (
{
name = b.uni0324_2;
position = "{269, 0}";
},
{
name = m.uni0308_1;
position = "{357, 700}";
},
{
name = m.uni0328;
position = "{329, 10}";
},
{
name = t.uni031B_2;
position = "{690, 700}";
}
);
layerId = "EA56A89A-B866-4D06-B6B2-64326ABDBB58";
shapes = (
{
closed = 1;
nodes = (
(360,-6,o),
(446,38,o),
(499,111,cs),
(524,147,o),
(540,188,o),
(546,233,cs),
(604,700,l),
(473,700,l),
(415,238,ls),
(410,198,o),
(395,167,o),
(372,145,cs),
(349,122,o),
(318,111,o),
(282,111,cs),
(246,111,o),
(220,122,o),
(202,145,cs),
(185,167,o),
(178,198,o),
(183,238,cs),
(241,700,l),
(109,700,l),
(51,233,ls),
(39,142,o),
(76,66,o),
(146,25,cs),
(181,4,o),
(222,-6,o),
(267,-6,cs)
);
}
);
width = 610;
},
{
anchors = (
{
name = b.uni0324_2;
position = "{181, 0}";
},
{
name = m.uni0308_1;
position = "{269, 700}";
},
{
name = m.uni0328;
position = "{242, 10}";
},
{
name = t.uni031B_2;
position = "{483, 700}";
}
);
layerId = "134B4203-AF9A-4952-80B5-5BBA28114A85";
shapes = (
{
closed = 1;
nodes = (
(261,-8,o),
(326,26,o),
(365,84,c),
(386,113,o),
(398,146,o),
(402,185,cs),
(467,700,l),
(344,700,l),
(280,188,ls),
(277,161,o),
(269,140,o),
(257,126,cs),
(244,112,o),
(228,105,o),
(205,105,cs),
(183,105,o),
(168,112,o),
(159,125,cs),
(150,138,o),
(147,159,o),
(150,188,cs),
(214,700,l),
(91,700,l),
(27,185,ls),
(17,108,o),
(45,48,o),
(99,16,cs),
(125,0,o),
(156,-8,o),
(191,-8,cs)
);
}
);
width = 455;
},
{
anchors = (
{
name = b.uni0324_2;
position = "{270, 0}";
},
{
name = m.uni0308_1;
position = "{358, 700}";
},
{
name = m.uni0328;
position = "{330, 10}";
},
{
name = t.uni031B_2;
position = "{692, 700}";
}
);
layerId = "5E600FEC-E230-456C-858E-F50E50395600";
shapes = (
{
closed = 1;
nodes = (
(370,-6,o),
(452,37,o),
(502,109,cs),
(526,144,o),
(541,185,o),
(547,230,cs),
(606,700,l),
(534,700,l),
(476,237,ls),
(469,183,o),
(449,140,o),
(416,108,cs),
(382,76,o),
(340,60,o),
(290,60,cs),
(240,60,o),
(203,76,o),
(177,108,cs),
(151,140,o),
(141,183,o),
(148,237,cs),
(206,700,l),
(132,700,l),
(73,230,ls),
(61,139,o),
(96,64,o),
(164,24,cs),
(198,4,o),
(237,-6,o),
(281,-6,cs)
);
}
);
width = 634;
},
{
anchors = (
{
name = b.uni0324_2;
position = "{105, 0}";
},
{
name = m.uni0308_1;
position = "{193, 700}";
},
{
name = m.uni0328;
position = "{146, 10}";
},
{
name = t.uni031B_2;
position = "{318, 700}";
}
);
layerId = "CE7D5885-7D4C-4AC1-9EEB-BF5BBC0FBEB6";
shapes = (
{
closed = 1;
nodes = (
(273,-8,o),
(333,24,o),
(370,81,cs),
(388,109,o),
(400,142,o),
(405,180,cs),
(470,700,l),
(397,700,l),
(332,184,ls),
(327,145,o),
(314,115,o),
(292,93,c),
(271,70,o),
(243,59,o),
(210,59,cs),
(177,59,o),
(152,70,o),
(136,92,c),
(119,113,o),
(114,144,o),
(119,184,cs),
(183,700,l),
(110,700,l),
(45,180,ls),
(36,108,o),
(61,48,o),
(112,16,cs),
(138,0,o),
(168,-8,o),
(202,-8,cs)
);
}
);
width = 477;
},
{
anchors = (
{
name = b.uni0324_2;
position = "{271, 0}";
},
{
name = m.uni0308_1;
position = "{359, 700}";
},
{
name = m.uni0328;
position = "{331, 10}";
},
{
name = t.uni031B_2;
position = "{693, 700}";
}
);
layerId = "5F4732EF-903E-4848-ACC1-4EB306E3746F";
shapes = (
{
closed = 1;
nodes = (
(377,-6,o),
(455,36,o),
(503,107,cs),
(527,142,o),
(542,183,o),
(547,228,cs),
(606,700,l),
(574,700,l),
(516,236,ls),
(508,173,o),
(484,122,o),
(444,84,cs),
(404,45,o),
(354,26,o),
(295,26,cs),
(236,26,o),
(191,45,o),
(160,84,c),
(128,122,o),
(116,173,o),
(124,236,cs),
(182,700,l),
(147,700,l),
(88,228,ls),
(77,137,o),
(110,63,o),
(177,24,cs),
(210,4,o),
(248,-6,o),
(291,-6,cs)
);
}
);
width = 651;
},
{
anchors = (
{
name = b.uni0324_2;
position = "{55, 0}";
},
{
name = m.uni0308_1;
position = "{143, 700}";
},
{
name = m.uni0328;
position = "{83, 10}";
},
{
name = t.uni031B_2;
position = "{209, 700}";
}
);
layerId = "E645874F-62C6-4FA6-A4CB-DCB795EB9F1B";
shapes = (
{
closed = 1;
nodes = (
(281,-8,o),
(338,23,o),
(374,79,cs),
(391,106,o),
(402,139,o),
(406,177,cs),
(472,700,l),
(432,700,l),
(367,181,ls),
(361,135,o),
(345,98,o),
(317,70,cs),
(289,42,o),
(254,28,o),
(214,28,cs),
(173,28,o),
(142,42,o),
(121,69,cs),
(100,96,o),
(92,134,o),
(98,181,cs),
(163,700,l),
(123,700,l),
(57,177,ls),
(49,108,o),
(70,48,o),
(121,16,cs),
(145,0,o),
(176,-8,o),
(210,-8,cs)
);
}
);
width = 492;
}
);
leftKerningGroup = U2;
rightKerningGroup = U;
unicode = 85;
},
{
glyphname = V;
layers = (
{
layerId = "1B3EF96C-8CB6-4FB7-BF3A-0EF12B3D4F9E";
name = "#instance";
width = 568;
},
{
anchors = (
{
name = b.uni0324_2;
position = "{238, 0}";
},
{
name = m.uni0308_1;
position = "{326, 700}";
}
);
layerId = "A4AEBACF-46F5-4C7E-8680-4ABD111F4CF9";
shapes = (
{
closed = 1;
nodes = (
(179,0,l),
(315,0,l),
(620,700,l),
(443,700,l),
(284,283,l),
(227,700,l),
(51,700,l)
);
}
);
width = 568;
},
{
anchors = (
{
name = b.uni0324_2;
position = "{234, 0}";
},
{
name = m.uni0308_1;
position = "{322, 700}";
}
);
layerId = "9252B17A-7510-4296-BE17-39E6376BAFDF";
shapes = (
{
closed = 1;
nodes = (
(111,0,l),
(276,0,l),
(511,700,l),
(338,700,l),
(219,219,l),
(225,700,l),
(53,700,l)
);
}
);
width = 458;
},
{
anchors = (
{
name = b.uni0324_2;
position = "{239, 0}";
},
{
name = m.uni0308_1;
position = "{327, 700}";
}
);
layerId = "EA56A89A-B866-4D06-B6B2-64326ABDBB58";
shapes = (
{
closed = 1;
nodes = (
(185,0,l),
(291,0,l),
(599,700,l),
(462,700,l),
(266,218,l),
(190,700,l),
(54,700,l)
);
}
);
width = 549;
},
{
anchors = (
{
name = b.uni0324_2;
position = "{202, 0}";
},
{
name = m.uni0308_1;
position = "{290, 700}";
}
);
layerId = "134B4203-AF9A-4952-80B5-5BBA28114A85";
shapes = (
{
closed = 1;
nodes = (
(123,0,l),
(250,0,l),
(493,700,l),
(357,700,l),
(207,178,l),
(190,700,l),
(56,700,l)
);
}
);
width = 443;
},
{
anchors = (
{
name = b.uni0324_2;
position = "{240, 0}";
},
{
name = m.uni0308_1;
position = "{328, 700}";
}
);
layerId = "5E600FEC-E230-456C-858E-F50E50395600";
shapes = (
{
closed = 1;
nodes = (
(194,0,l),
(254,0,l),
(566,700,l),
(491,700,l),
(239,121,l),
(134,700,l),
(58,700,l)
);
}
);
width = 519;
},
{
anchors = (
{
name = b.uni0324_2;
position = "{153, 0}";
},
{
name = m.uni0308_1;
position = "{241, 700}";
}
);
layerId = "CE7D5885-7D4C-4AC1-9EEB-BF5BBC0FBEB6";
shapes = (
{
closed = 1;
nodes = (
(138,0,l),
(209,0,l),
(463,700,l),
(385,700,l),
(189,117,l),
(137,700,l),
(59,700,l)
);
}
);
width = 419;
},
{
anchors = (
{
name = b.uni0324_2;
position = "{240, 0}";
},
{
name = m.uni0308_1;
position = "{328, 700}";
}
);
layerId = "5F4732EF-903E-4848-ACC1-4EB306E3746F";
shapes = (
{
closed = 1;
nodes = (
(199,0,l),
(228,0,l),
(543,700,l),
(509,700,l),
(221,56,l),
(96,700,l),
(60,700,l)
);
}
);
width = 500;
},
{
anchors = (
{
name = b.uni0324_2;
position = "{120, 0}";
},
{
name = m.uni0308_1;
position = "{208, 700}";
}
);
layerId = "E645874F-62C6-4FA6-A4CB-DCB795EB9F1B";
shapes = (
{
closed = 1;
nodes = (
(150,0,l),
(182,0,l),
(445,700,l),
(405,700,l),
(177,76,l),
(102,700,l),
(62,700,l)
);
}
);
width = 404;
}
);
unicode = 86;
},
{
glyphname = W;
layers = (
{
layerId = "1B3EF96C-8CB6-4FB7-BF3A-0EF12B3D4F9E";
name = "#instance";
width = 857;
},
{
layerId = "A4AEBACF-46F5-4C7E-8680-4ABD111F4CF9";
shapes = (
{
closed = 1;
nodes = (
(132,0,l),
(287,0,l),
(454,468,l),
(503,0,l),
(660,0,l),
(907,700,l),
(750,700,l),
(622,266,l),
(593,700,l),
(383,700,l),
(252,266,l),
(225,700,l),
(55,700,l)
);
}
);
width = 857;
},
{
layerId = "9252B17A-7510-4296-BE17-39E6376BAFDF";
shapes = (
{
closed = 1;
nodes = (
(82,0,l),
(250,0,l),
(347,326,l),
(361,0,l),
(530,0,l),
(733,700,l),
(576,700,l),
(469,221,l),
(487,700,l),
(301,700,l),
(198,221,l),
(212,700,l),
(55,700,l)
);
}
);
width = 685;
},
{
layerId = "EA56A89A-B866-4D06-B6B2-64326ABDBB58";
shapes = (
{
closed = 1;
nodes = (
(140,0,l),
(259,0,l),
(449,523,l),
(509,0,l),
(629,0,l),
(881,700,l),
(759,700,l),
(600,208,l),
(556,700,l),
(393,700,l),
(231,208,l),
(188,700,l),
(57,700,l)
);
}
);
width = 834;
},
{
layerId = "134B4203-AF9A-4952-80B5-5BBA28114A85";
shapes = (
{
closed = 1;
nodes = (
(94,0,l),
(225,0,l),
(356,434,l),
(376,0,l),
(509,0,l),
(719,700,l),
(597,700,l),
(464,178,l),
(465,700,l),
(315,700,l),
(185,178,l),
(183,700,l),
(58,700,l)
);
}
);
width = 674;
},
{
layerId = "5E600FEC-E230-456C-858E-F50E50395600";
shapes = (
{
closed = 1;
nodes = (
(149,0,l),
(215,0,l),
(440,606,l),
(516,0,l),
(581,0,l),
(842,700,l),
(774,700,l),
(566,121,l),
(500,700,l),
(406,700,l),
(198,121,l),
(132,700,l),
(61,700,l)
);
}
);
width = 799;
},
{
layerId = "CE7D5885-7D4C-4AC1-9EEB-BF5BBC0FBEB6";
shapes = (
{
closed = 1;
nodes = (
(109,0,l),
(187,0,l),
(367,596,l),
(398,0,l),
(476,0,l),
(698,700,l),
(626,700,l),
(454,113,l),
(430,700,l),
(334,700,l),
(163,113,l),
(137,700,l),
(61,700,l)
);
}
);
width = 656;
},
{
layerId = "5F4732EF-903E-4848-ACC1-4EB306E3746F";
shapes = (
{
closed = 1;
nodes = (
(157,0,l),
(186,0,l),
(435,661,l),
(522,0,l),
(550,0,l),
(816,700,l),
(783,700,l),
(544,63,l),
(462,700,l),
(415,700,l),
(178,63,l),
(95,700,l),
(63,700,l)
);
}
);
width = 776;
},
{
layerId = "E645874F-62C6-4FA6-A4CB-DCB795EB9F1B";
shapes = (
{
closed = 1;
nodes = (
(121,0,l),
(163,0,l),
(376,704,l),
(414,0,l),
(454,0,l),
(684,700,l),
(646,700,l),
(449,70,l),
(407,700,l),
(348,700,l),
(150,70,l),
(108,700,l),
(64,700,l)
);
}
);
width = 645;
}
);
rightKerningGroup = W;
unicode = 87;
},
{
glyphname = X;
layers = (
{
layerId = "1B3EF96C-8CB6-4FB7-BF3A-0EF12B3D4F9E";
name = "#instance";
width = 606;
},
{
layerId = "A4AEBACF-46F5-4C7E-8680-4ABD111F4CF9";
shapes = (
{
closed = 1;
nodes = (
(-36,0,l),
(156,0,l),
(293,230,l),
(369,0,l),
(570,0,l),
(410,374,l),
(635,700,l),
(442,700,l),
(331,509,l),
(264,700,l),
(64,700,l),
(213,368,l)
);
}
);
width = 606;
},
{
layerId = "9252B17A-7510-4296-BE17-39E6376BAFDF";
shapes = (
{
closed = 1;
nodes = (
(-36,0,l),
(111,0,l),
(195,216,l),
(223,0,l),
(370,0,l),
(286,366,l),
(450,700,l),
(303,700,l),
(231,514,l),
(206,700,l),
(58,700,l),
(140,367,l)
);
}
);
width = 405;
},
{
layerId = "EA56A89A-B866-4D06-B6B2-64326ABDBB58";
shapes = (
{
closed = 1;
nodes = (
(-33,0,l),
(116,0,l),
(289,261,l),
(395,0,l),
(551,0,l),
(380,373,l),
(616,700,l),
(467,700,l),
(319,477,l),
(225,700,l),
(70,700,l),
(227,368,l)
);
}
);
width = 589;
},
{
layerId = "134B4203-AF9A-4952-80B5-5BBA28114A85";
shapes = (
{
closed = 1;
nodes = (
(-33,0,l),
(88,0,l),
(200,247,l),
(249,0,l),
(370,0,l),
(274,367,l),
(447,700,l),
(326,700,l),
(229,485,l),
(185,700,l),
(64,700,l),
(154,367,l)
);
}
);
width = 408;
},
{
layerId = "5E600FEC-E230-456C-858E-F50E50395600";
shapes = (
{
closed = 1;
nodes = (
(-30,0,l),
(55,0,l),
(283,308,l),
(433,0,l),
(521,0,l),
(335,371,l),
(587,700,l),
(502,700,l),
(300,429,l),
(165,700,l),
(77,700,l),
(248,368,l)
);
}
);
width = 563;
},
{
layerId = "CE7D5885-7D4C-4AC1-9EEB-BF5BBC0FBEB6";
shapes = (
{
closed = 1;
nodes = (
(-29,0,l),
(53,0,l),
(206,293,l),
(286,0,l),
(369,0,l),
(257,368,l),
(442,700,l),
(361,700,l),
(226,441,l),
(153,700,l),
(72,700,l),
(174,367,l)
);
}
);
width = 411;
},
{
layerId = "5F4732EF-903E-4848-ACC1-4EB306E3746F";
shapes = (
{
closed = 1;
nodes = (
(-27,0,l),
(15,0,l),
(278,339,l),
(459,0,l),
(501,0,l),
(306,370,l),
(568,700,l),
(526,700,l),
(288,397,l),
(126,700,l),
(83,700,l),
(263,368,l)
);
}
);
width = 546;
},
{
layerId = "E645874F-62C6-4FA6-A4CB-DCB795EB9F1B";
shapes = (
{
closed = 1;
nodes = (
(-26,0,l),
(29,0,l),
(211,324,l),
(311,0,l),
(369,0,l),
(245,369,l),
(440,700,l),
(384,700,l),
(224,412,l),
(131,700,l),
(78,700,l),
(187,367,l)
);
}
);
width = 414;
}
);
unicode = 88;
},
{
glyphname = Y;
layers = (
{
layerId = "1B3EF96C-8CB6-4FB7-BF3A-0EF12B3D4F9E";
name = "#instance";
width = 562;
},
{
layerId = "A4AEBACF-46F5-4C7E-8680-4ABD111F4CF9";
shapes = (
{
closed = 1;
nodes = (
(161,0,l),
(330,0,l),
(366,288,l),
(615,700,l),
(427,700,l),
(301,455,l),
(237,700,l),
(51,700,l),
(197,285,l)
);
}
);
width = 562;
},
{
layerId = "9252B17A-7510-4296-BE17-39E6376BAFDF";
shapes = (
{
closed = 1;
nodes = (
(97,0,l),
(253,0,l),
(285,262,l),
(474,700,l),
(301,700,l),
(232,471,l),
(222,700,l),
(51,700,l),
(131,267,l)
);
}
);
width = 421;
},
{
layerId = "EA56A89A-B866-4D06-B6B2-64326ABDBB58";
shapes = (
{
closed = 1;
nodes = (
(167,0,l),
(297,0,l),
(334,291,l),
(586,700,l),
(442,700,l),
(284,420,l),
(197,700,l),
(53,700,l),
(203,290,l)
);
}
);
width = 535;
},
{
layerId = "134B4203-AF9A-4952-80B5-5BBA28114A85";
shapes = (
{
closed = 1;
nodes = (
(107,0,l),
(229,0,l),
(264,275,l),
(457,700,l),
(322,700,l),
(222,436,l),
(189,700,l),
(54,700,l),
(142,278,l)
);
}
);
width = 408;
},
{
layerId = "5E600FEC-E230-456C-858E-F50E50395600";
shapes = (
{
closed = 1;
nodes = (
(175,0,l),
(248,0,l),
(285,296,l),
(541,700,l),
(462,700,l),
(257,368,l),
(136,700,l),
(57,700,l),
(212,297,l)
);
}
);
width = 494;
},
{
layerId = "CE7D5885-7D4C-4AC1-9EEB-BF5BBC0FBEB6";
shapes = (
{
closed = 1;
nodes = (
(122,0,l),
(194,0,l),
(231,294,l),
(432,700,l),
(352,700,l),
(206,383,l),
(138,700,l),
(58,700,l),
(159,294,l)
);
}
);
width = 387;
},
{
layerId = "5F4732EF-903E-4848-ACC1-4EB306E3746F";
shapes = (
{
closed = 1;
nodes = (
(180,0,l),
(216,0,l),
(253,299,l),
(512,700,l),
(477,700,l),
(240,333,l),
(95,700,l),
(59,700,l),
(218,302,l)
);
}
);
width = 467;
},
{
layerId = "E645874F-62C6-4FA6-A4CB-DCB795EB9F1B";
shapes = (
{
closed = 1;
nodes = (
(132,0,l),
(171,0,l),
(209,307,l),
(415,700,l),
(372,700,l),
(196,348,l),
(105,700,l),
(61,700,l),
(170,305,l)
);
}
);
width = 374;
}
);
leftKerningGroup = Y;
unicode = 89;
},
{
glyphname = Z;
layers = (
{
layerId = "1B3EF96C-8CB6-4FB7-BF3A-0EF12B3D4F9E";
name = "#instance";
width = 490;
},
{
layerId = "A4AEBACF-46F5-4C7E-8680-4ABD111F4CF9";
shapes = (
{
closed = 1;
nodes = (
(-17,0,l),
(435,0,l),
(454,151,l),
(185,151,l),
(492,550,l),
(511,700,l),
(73,700,l),
(54,550,l),
(312,550,l),
(2,151,l)
);
}
);
width = 490;
},
{
layerId = "9252B17A-7510-4296-BE17-39E6376BAFDF";
shapes = (
{
closed = 1;
nodes = (
(-25,0,l),
(286,0,l),
(304,145,l),
(148,145,l),
(354,555,l),
(372,700,l),
(71,700,l),
(53,555,l),
(200,555,l),
(-7,145,l)
);
}
);
width = 331;
},
{
layerId = "EA56A89A-B866-4D06-B6B2-64326ABDBB58";
shapes = (
{
closed = 1;
nodes = (
(-9,0,l),
(438,0,l),
(453,118,l),
(148,118,l),
(502,583,l),
(517,700,l),
(85,700,l),
(70,583,l),
(361,583,l),
(6,118,l)
);
}
);
width = 499;
},
{
layerId = "134B4203-AF9A-4952-80B5-5BBA28114A85";
shapes = (
{
closed = 1;
nodes = (
(-18,0,l),
(300,0,l),
(315,114,l),
(118,114,l),
(370,586,l),
(384,700,l),
(80,700,l),
(66,586,l),
(249,586,l),
(-3,114,l)
);
}
);
width = 351;
},
{
layerId = "5E600FEC-E230-456C-858E-F50E50395600";
shapes = (
{
closed = 1;
nodes = (
(3,0,l),
(443,0,l),
(452,68,l),
(95,68,l),
(518,632,l),
(527,700,l),
(104,700,l),
(95,632,l),
(435,632,l),
(12,68,l)
);
}
);
width = 512;
},
{
layerId = "CE7D5885-7D4C-4AC1-9EEB-BF5BBC0FBEB6";
shapes = (
{
closed = 1;
nodes = (
(-8,0,l),
(320,0,l),
(328,67,l),
(71,67,l),
(391,633,l),
(400,700,l),
(91,700,l),
(82,633,l),
(320,633,l),
(1,67,l)
);
}
);
width = 380;
},
{
layerId = "5F4732EF-903E-4848-ACC1-4EB306E3746F";
shapes = (
{
closed = 1;
nodes = (
(11,0,l),
(446,0,l),
(450,35,l),
(58,35,l),
(528,665,l),
(532,700,l),
(115,700,l),
(111,665,l),
(484,665,l),
(15,35,l)
);
}
);
width = 521;
},
{
layerId = "E645874F-62C6-4FA6-A4CB-DCB795EB9F1B";
shapes = (
{
closed = 1;
nodes = (
(-1,0,l),
(334,0,l),
(338,36,l),
(40,36,l),
(406,664,l),
(410,700,l),
(98,700,l),
(94,664,l),
(368,664,l),
(4,36,l)
);
}
);
width = 400;
}
);
unicode = 90;
},
{
glyphname = AE;
layers = (
{
layerId = "1B3EF96C-8CB6-4FB7-BF3A-0EF12B3D4F9E";
name = "#instance";
width = 896;
},
{
layerId = "A4AEBACF-46F5-4C7E-8680-4ABD111F4CF9";
shapes = (
{
closed = 1;
nodes = (
(-33,0,l),
(143,0,l),
(210,123,l),
(395,123,l),
(379,0,l),
(831,0,l),
(850,150,l),
(569,150,l),
(585,279,l),
(826,279,l),
(845,430,l),
(604,430,l),
(620,557,l),
(900,557,l),
(919,707,l),
(371,707,l)
);
},
{
closed = 1;
nodes = (
(293,267,l),
(449,560,l),
(413,267,l)
);
}
);
width = 896;
},
{
layerId = "9252B17A-7510-4296-BE17-39E6376BAFDF";
shapes = (
{
closed = 1;
nodes = (
(-32,0,l),
(130,0,l),
(176,109,l),
(318,109,l),
(304,0,l),
(618,0,l),
(636,144,l),
(478,144,l),
(496,288,l),
(635,288,l),
(653,431,l),
(514,431,l),
(531,562,l),
(689,562,l),
(707,707,l),
(288,707,l)
);
},
{
closed = 1;
nodes = (
(242,254,l),
(375,562,l),
(336,254,l)
);
}
);
width = 671;
},
{
layerId = "EA56A89A-B866-4D06-B6B2-64326ABDBB58";
shapes = (
{
closed = 1;
nodes = (
(-30,0,l),
(107,0,l),
(193,144,l),
(402,144,l),
(384,0,l),
(812,0,l),
(827,117,l),
(531,117,l),
(553,298,l),
(805,298,l),
(819,415,l),
(568,415,l),
(590,590,l),
(886,590,l),
(901,707,l),
(398,707,l)
);
},
{
closed = 1;
nodes = (
(259,256,l),
(458,593,l),
(416,256,l)
);
}
);
width = 886;
},
{
layerId = "134B4203-AF9A-4952-80B5-5BBA28114A85";
shapes = (
{
closed = 1;
nodes = (
(-29,0,l),
(99,0,l),
(164,136,l),
(327,136,l),
(310,0,l),
(618,0,l),
(632,113,l),
(447,113,l),
(471,303,l),
(631,303,l),
(645,416,l),
(485,416,l),
(507,593,l),
(692,593,l),
(707,707,l),
(319,707,l)
);
},
{
closed = 1;
nodes = (
(218,249,l),
(384,594,l),
(341,249,l)
);
}
);
width = 679;
},
{
layerId = "5E600FEC-E230-456C-858E-F50E50395600";
shapes = (
{
closed = 1;
nodes = (
(-26,0,l),
(53,0,l),
(166,175,l),
(413,175,l),
(391,0,l),
(784,0,l),
(793,68,l),
(473,68,l),
(505,326,l),
(773,326,l),
(781,393,l),
(513,393,l),
(544,639,l),
(864,639,l),
(872,707,l),
(436,707,l)
);
},
{
closed = 1;
nodes = (
(209,239,l),
(471,642,l),
(421,239,l)
);
}
);
width = 870;
},
{
layerId = "CE7D5885-7D4C-4AC1-9EEB-BF5BBC0FBEB6";
shapes = (
{
closed = 1;
nodes = (
(-25,0,l),
(51,0,l),
(147,176,l),
(341,176,l),
(319,0,l),
(617,0,l),
(626,67,l),
(399,67,l),
(432,326,l),
(625,326,l),
(633,393,l),
(440,393,l),
(471,640,l),
(697,640,l),
(706,707,l),
(364,707,l)
);
},
{
closed = 1;
nodes = (
(182,242,l),
(399,642,l),
(349,242,l)
);
}
);
width = 690;
},
{
layerId = "5F4732EF-903E-4848-ACC1-4EB306E3746F";
shapes = (
{
closed = 1;
nodes = (
(-23,0,l),
(17,0,l),
(149,196,l),
(421,196,l),
(396,0,l),
(766,0,l),
(770,35,l),
(435,35,l),
(473,345,l),
(752,345,l),
(756,378,l),
(477,378,l),
(514,672,l),
(850,672,l),
(854,707,l),
(463,707,l)
);
},
{
closed = 1;
nodes = (
(175,228,l),
(480,675,l),
(425,228,l)
);
}
);
width = 860;
},
{
layerId = "E645874F-62C6-4FA6-A4CB-DCB795EB9F1B";
shapes = (
{
closed = 1;
nodes = (
(-22,0,l),
(20,0,l),
(136,203,l),
(350,203,l),
(325,0,l),
(617,0,l),
(622,36,l),
(368,36,l),
(406,341,l),
(621,341,l),
(626,378,l),
(411,378,l),
(448,671,l),
(701,671,l),
(706,707,l),
(394,707,l)
);
},
{
closed = 1;
nodes = (
(158,237,l),
(409,674,l),
(354,237,l)
);
}
);
width = 698;
}
);
unicode = 198;
},
{
glyphname = OE;
layers = (
{
layerId = "1B3EF96C-8CB6-4FB7-BF3A-0EF12B3D4F9E";
name = "#instance";
width = 856;
},
{
layerId = "A4AEBACF-46F5-4C7E-8680-4ABD111F4CF9";
shapes = (
{
closed = 1;
nodes = (
(283,-8,o),
(325,1,o),
(368,20,c),
(365,0,l),
(794,0,l),
(813,150,l),
(538,150,l),
(553,279,l),
(788,279,l),
(807,430,l),
(572,430,l),
(589,557,l),
(864,557,l),
(882,707,l),
(453,707,l),
(451,689,l),
(414,708,o),
(374,718,o),
(333,718,cs),
(252,718,o),
(189,692,o),
(143,639,cs),
(97,586,o),
(69,516,o),
(58,428,cs),
(39,280,ls),
(17,100,o),
(77,-8,o),
(241,-8,cs)
);
},
{
closed = 1;
nodes = (
(227,419,ls),
(241,528,o),
(268,566,o),
(333,566,cs),
(396,566,o),
(415,524,o),
(401,419,cs),
(385,286,ls),
(372,186,o),
(340,147,o),
(280,147,cs),
(215,147,o),
(198,183,o),
(211,286,cs)
);
}
);
width = 856;
},
{
layerId = "9252B17A-7510-4296-BE17-39E6376BAFDF";
shapes = (
{
closed = 1;
nodes = (
(199,-8,o),
(232,1,o),
(265,20,c),
(262,0,l),
(558,0,l),
(576,144,l),
(413,144,l),
(431,288,l),
(571,288,l),
(589,431,l),
(449,431,l),
(465,562,l),
(628,562,l),
(646,707,l),
(350,707,l),
(349,696,l),
(321,710,o),
(293,717,o),
(265,717,cs),
(209,717,o),
(162,702,o),
(126,671,cs),
(89,640,o),
(66,589,o),
(57,520,cs),
(16,188,ls),
(-1,56,o),
(50,-8,o),
(164,-8,cs)
);
},
{
closed = 1;
nodes = (
(210,492,ls),
(217,548,o),
(231,572,o),
(267,572,cs),
(301,572,o),
(307,545,o),
(301,492,cs),
(266,212,ls),
(259,163,o),
(239,136,o),
(212,136,c),
(181,137,o),
(168,161,o),
(175,212,cs)
);
}
);
width = 609;
},
{
layerId = "EA56A89A-B866-4D06-B6B2-64326ABDBB58";
shapes = (
{
closed = 1;
nodes = (
(306,-8,o),
(355,5,o),
(398,32,c),
(394,0,l),
(801,0,l),
(816,117,l),
(530,117,l),
(552,298,l),
(793,298,l),
(808,415,l),
(567,415,l),
(589,590,l),
(875,590,l),
(889,707,l),
(482,707,l),
(479,676,l),
(442,703,o),
(397,717,o),
(345,717,cs),
(266,717,o),
(203,692,o),
(156,643,cs),
(110,593,o),
(82,524,o),
(70,435,cs),
(50,273,ls),
(28,94,o),
(93,-8,o),
(253,-8,cs)
);
},
{
closed = 1;
nodes = (
(201,428,ls),
(216,551,o),
(258,599,o),
(341,599,cs),
(423,599,o),
(452,547,o),
(438,428,cs),
(418,275,ls),
(404,162,o),
(361,112,o),
(280,112,cs),
(197,112,o),
(167,159,o),
(181,275,cs)
);
}
);
width = 873;
},
{
layerId = "134B4203-AF9A-4952-80B5-5BBA28114A85";
shapes = (
{
closed = 1;
nodes = (
(219,-8,o),
(258,4,o),
(292,29,c),
(288,0,l),
(579,0,l),
(593,113,l),
(407,113,l),
(431,303,l),
(591,303,l),
(605,416,l),
(445,416,l),
(467,593,l),
(653,593,l),
(667,707,l),
(376,707,l),
(374,685,l),
(345,706,o),
(312,717,o),
(274,717,cs),
(218,717,o),
(171,700,o),
(134,667,cs),
(98,634,o),
(75,582,o),
(66,513,cs),
(26,195,ls),
(10,60,o),
(63,-8,o),
(178,-8,cs)
);
},
{
closed = 1;
nodes = (
(187,493,ls),
(196,568,o),
(222,603,o),
(274,603,cs),
(324,603,o),
(341,566,o),
(332,493,cs),
(296,209,ls),
(288,141,o),
(258,105,o),
(212,105,c),
(162,106,o),
(143,140,o),
(151,209,cs)
);
}
);
width = 640;
},
{
layerId = "5E600FEC-E230-456C-858E-F50E50395600";
shapes = (
{
closed = 1;
nodes = (
(340,-8,o),
(398,11,o),
(443,50,c),
(437,0,l),
(810,0,l),
(819,68,l),
(518,68,l),
(551,326,l),
(801,326,l),
(809,393,l),
(559,393,l),
(589,639,l),
(890,639,l),
(898,707,l),
(525,707,l),
(519,657,l),
(484,696,o),
(431,716,o),
(361,716,cs),
(285,716,o),
(224,693,o),
(177,648,cs),
(129,603,o),
(100,535,o),
(89,445,cs),
(66,262,ls),
(44,86,o),
(116,-8,o),
(269,-8,cs)
);
},
{
closed = 1;
nodes = (
(160,442,ls),
(178,585,o),
(241,648,o),
(353,648,cs),
(463,648,o),
(509,579,o),
(492,442,cs),
(469,258,ls),
(453,126,o),
(390,60,o),
(280,60,cs),
(170,60,o),
(120,123,o),
(137,258,cs)
);
}
);
width = 898;
},
{
layerId = "CE7D5885-7D4C-4AC1-9EEB-BF5BBC0FBEB6";
shapes = (
{
closed = 1;
nodes = (
(252,-8,o),
(296,9,o),
(331,43,c),
(326,0,l),
(612,0,l),
(620,67,l),
(398,67,l),
(431,326,l),
(620,326,l),
(628,393,l),
(439,393,l),
(470,640,l),
(692,640,l),
(700,707,l),
(414,707,l),
(410,668,l),
(383,701,o),
(343,717,o),
(289,717,cs),
(232,717,o),
(185,699,o),
(148,662,cs),
(111,625,o),
(90,572,o),
(81,502,cs),
(44,206,ls),
(26,67,o),
(84,-8,o),
(198,-8,cs)
);
},
{
closed = 1;
nodes = (
(153,495,ls),
(166,598,o),
(210,649,o),
(287,649,cs),
(360,649,o),
(393,598,o),
(380,495,cs),
(344,205,ls),
(332,108,o),
(286,59,o),
(213,59,cs),
(137,60,o),
(105,108,o),
(117,205,cs)
);
}
);
width = 685;
},
{
layerId = "5F4732EF-903E-4848-ACC1-4EB306E3746F";
shapes = (
{
closed = 1;
nodes = (
(365,-8,o),
(429,15,o),
(475,62,c),
(467,0,l),
(818,0,l),
(822,35,l),
(510,35,l),
(551,345,l),
(807,345,l),
(811,378,l),
(555,378,l),
(590,672,l),
(902,672,l),
(906,707,l),
(555,707,l),
(548,644,l),
(513,691,o),
(455,715,o),
(373,715,cs),
(299,715,o),
(238,694,o),
(191,652,cs),
(143,609,o),
(114,543,o),
(103,452,cs),
(78,255,ls),
(56,80,o),
(133,-8,o),
(282,-8,cs)
);
},
{
closed = 1;
nodes = (
(135,451,ls),
(155,607,o),
(232,681,o),
(362,681,cs),
(492,681,o),
(548,602,o),
(529,451,cs),
(504,247,ls),
(486,102,o),
(412,25,o),
(280,25,cs),
(151,25,o),
(91,99,o),
(110,247,cs)
);
}
);
width = 915;
},
{
layerId = "E645874F-62C6-4FA6-A4CB-DCB795EB9F1B";
shapes = (
{
closed = 1;
nodes = (
(272,-8,o),
(321,12,o),
(358,52,c),
(351,0,l),
(634,0,l),
(639,36,l),
(393,36,l),
(431,341,l),
(640,341,l),
(644,378,l),
(435,378,l),
(472,671,l),
(718,671,l),
(722,707,l),
(439,707,l),
(433,657,l),
(406,697,o),
(362,717,o),
(299,717,cs),
(241,717,o),
(193,698,o),
(157,659,cs),
(121,620,o),
(98,565,o),
(89,495,cs),
(54,213,ls),
(36,72,o),
(98,-8,o),
(212,-8,cs)
);
},
{
closed = 1;
nodes = (
(129,496,ls),
(144,617,o),
(202,680,o),
(295,680,cs),
(384,680,o),
(426,619,o),
(411,496,cs),
(374,202,ls),
(360,86,o),
(304,28,o),
(214,28,cs),
(119,29,o),
(78,86,o),
(92,202,cs)
);
}
);
width = 716;
}
);
leftKerningGroup = C;
unicode = 338;
},
{
glyphname = Thorn;
layers = (
{
layerId = "1B3EF96C-8CB6-4FB7-BF3A-0EF12B3D4F9E";
name = "#instance";
width = 553;
},
{
layerId = "A4AEBACF-46F5-4C7E-8680-4ABD111F4CF9";
shapes = (
{
closed = 1;
nodes = (
(5,0,l),
(176,0,l),
(194,146,l),
(295,146,ls),
(368,146,o),
(428,166,o),
(474,206,cs),
(519,246,o),
(546,300,o),
(554,369,cs),
(563,440,o),
(550,496,o),
(514,537,cs),
(477,578,o),
(423,598,o),
(352,598,cs),
(251,598,l),
(264,707,l),
(93,707,l)
);
},
{
closed = 1;
nodes = (
(213,295,l),
(232,448,l),
(326,448,ls),
(370,448,o),
(391,418,o),
(385,369,cs),
(380,326,o),
(346,295,o),
(307,295,cs)
);
}
);
width = 553;
},
{
layerId = "9252B17A-7510-4296-BE17-39E6376BAFDF";
shapes = (
{
closed = 1;
nodes = (
(-9,0,l),
(146,0,l),
(163,132,l),
(200,132,ls),
(271,132,o),
(324,151,o),
(359,189,cs),
(394,227,o),
(416,287,o),
(426,370,cs),
(436,451,o),
(430,511,o),
(404,548,cs),
(378,585,o),
(329,603,o),
(258,603,cs),
(221,603,l),
(234,707,l),
(79,707,l)
);
},
{
closed = 1;
nodes = (
(181,276,l),
(203,458,l),
(236,458,ls),
(272,458,o),
(278,431,o),
(270,370,cs),
(262,302,o),
(250,276,o),
(214,276,cs)
);
}
);
width = 422;
},
{
layerId = "EA56A89A-B866-4D06-B6B2-64326ABDBB58";
shapes = (
{
closed = 1;
nodes = (
(21,0,l),
(152,0,l),
(171,153,l),
(298,153,ls),
(368,153,o),
(427,172,o),
(471,211,cs),
(516,250,o),
(542,302,o),
(550,368,cs),
(559,437,o),
(547,492,o),
(511,531,cs),
(476,570,o),
(423,590,o),
(353,590,cs),
(226,590,l),
(240,707,l),
(109,707,l)
);
},
{
closed = 1;
nodes = (
(186,269,l),
(211,473,l),
(331,473,ls),
(396,473,o),
(428,436,o),
(419,368,cs),
(411,307,o),
(368,269,o),
(306,269,cs)
);
}
);
width = 562;
},
{
layerId = "134B4203-AF9A-4952-80B5-5BBA28114A85";
shapes = (
{
closed = 1;
nodes = (
(4,0,l),
(126,0,l),
(144,147,l),
(207,147,ls),
(273,147,o),
(324,165,o),
(358,202,c),
(394,238,o),
(415,294,o),
(424,371,cs),
(434,447,o),
(427,503,o),
(401,539,cs),
(376,575,o),
(330,593,o),
(263,593,cs),
(200,593,l),
(214,707,l),
(92,707,l)
);
},
{
closed = 1;
nodes = (
(159,260,l),
(186,479,l),
(245,479,ls),
(297,479,o),
(311,447,o),
(301,371,cs),
(292,292,o),
(270,260,o),
(218,260,cs)
);
}
);
width = 428;
},
{
layerId = "5E600FEC-E230-456C-858E-F50E50395600";
shapes = (
{
closed = 1;
nodes = (
(43,0,l),
(116,0,l),
(136,163,l),
(301,163,ls),
(367,163,o),
(423,181,o),
(466,218,cs),
(510,255,o),
(535,304,o),
(543,367,cs),
(551,434,o),
(540,486,o),
(506,523,cs),
(473,560,o),
(421,578,o),
(353,578,cs),
(188,578,l),
(204,707,l),
(131,707,l)
);
},
{
closed = 1;
nodes = (
(145,230,l),
(180,511,l),
(338,511,ls),
(436,511,o),
(482,462,o),
(470,367,cs),
(459,276,o),
(401,230,o),
(303,230,cs)
);
}
);
width = 574;
},
{
layerId = "CE7D5885-7D4C-4AC1-9EEB-BF5BBC0FBEB6";
shapes = (
{
closed = 1;
nodes = (
(22,0,l),
(95,0,l),
(116,170,l),
(219,170,ls),
(278,170,o),
(324,187,o),
(360,221,cs),
(393,254,o),
(413,305,o),
(422,372,cs),
(430,441,o),
(423,492,o),
(399,527,c),
(374,561,o),
(331,578,o),
(270,578,cs),
(167,578,l),
(183,707,l),
(110,707,l)
);
},
{
closed = 1;
nodes = (
(125,236,l),
(159,511,l),
(258,511,ls),
(333,511,o),
(361,471,o),
(349,372,cs),
(337,277,o),
(298,236,o),
(224,236,cs)
);
}
);
width = 436;
},
{
layerId = "5F4732EF-903E-4848-ACC1-4EB306E3746F";
shapes = (
{
closed = 1;
nodes = (
(59,0,l),
(93,0,l),
(114,170,l),
(304,170,ls),
(367,170,o),
(422,188,o),
(464,223,cs),
(506,258,o),
(531,306,o),
(539,366,cs),
(547,432,o),
(535,483,o),
(504,518,c),
(471,553,o),
(421,570,o),
(354,570,cs),
(164,570,l),
(181,707,l),
(147,707,l)
);
},
{
closed = 1;
nodes = (
(119,204,l),
(160,536,l),
(343,536,ls),
(461,536,o),
(518,479,o),
(504,366,cs),
(490,257,o),
(423,204,o),
(302,204,cs)
);
}
);
width = 583;
},
{
layerId = "E645874F-62C6-4FA6-A4CB-DCB795EB9F1B";
shapes = (
{
closed = 1;
nodes = (
(35,0,l),
(74,0,l),
(97,185,l),
(227,185,ls),
(281,185,o),
(325,201,o),
(359,233,cs),
(392,265,o),
(413,312,o),
(421,373,cs),
(429,436,o),
(421,485,o),
(397,518,cs),
(372,551,o),
(332,568,o),
(275,568,cs),
(145,568,l),
(162,707,l),
(123,707,l)
);
},
{
closed = 1;
nodes = (
(102,220,l),
(141,532,l),
(267,532,ls),
(358,532,o),
(395,486,o),
(381,373,cs),
(368,268,o),
(318,220,o),
(228,220,cs)
);
}
);
width = 442;
}
);
unicode = 222;
},
{
glyphname = a;
layers = (
{
anchors = (
{
name = b.uni0324_2;
position = "{211, 0}";
},
{
name = m.uni0308_1;
position = "{277, 530}";
},
{
name = m.uni0328;
position = "{412, 10}";
}
);
layerId = "A4AEBACF-46F5-4C7E-8680-4ABD111F4CF9";
shapes = (
{
closed = 1;
nodes = (
(207,-6,o),
(233,9,o),
(273,40,c),
(268,0,l),
(423,0,l),
(467,348,ls),
(469,360,o),
(469,372,o),
(469,384,cs),
(469,491,o),
(401,548,o),
(273,548,cs),
(149,548,o),
(62,483,o),
(49,375,c),
(48,372,l),
(196,372,l),
(196,375,l),
(200,404,o),
(224,423,o),
(255,423,cs),
(299,423,o),
(314,402,o),
(309,357,cs),
(305,327,l),
(212,327,ls),
(92,327,o),
(8,260,o),
(8,138,cs),
(8,49,o),
(61,-6,o),
(156,-6,cs)
);
},
{
closed = 1;
nodes = (
(291,216,l),
(289,198,ls),
(283,150,o),
(260,127,o),
(213,127,cs),
(181,127,o),
(164,140,o),
(164,165,cs),
(164,202,o),
(192,216,o),
(226,216,cs)
);
}
);
width = 496;
},
{
anchors = (
{
name = b.uni0324_2;
position = "{197, 0}";
},
{
name = m.uni0308_1;
position = "{265, 543}";
},
{
name = m.uni0328;
position = "{387, 10}";
}
);
layerId = "9252B17A-7510-4296-BE17-39E6376BAFDF";
shapes = (
{
closed = 1;
nodes = (
(158,-8,o),
(178,14,o),
(206,42,c),
(201,0,l),
(338,0,l),
(385,372,ls),
(386,384,o),
(387,395,o),
(387,406,cs),
(387,499,o),
(334,556,o),
(236,556,cs),
(135,556,o),
(60,495,o),
(45,379,c),
(45,378,l),
(181,378,l),
(182,386,ls),
(185,411,o),
(200,423,o),
(215,423,cs),
(234,423,o),
(241,409,o),
(238,385,cs),
(231,327,l),
(212,327,ls),
(76,327,o),
(1,257,o),
(1,123,cs),
(1,39,o),
(41,-8,o),
(116,-8,cs)
);
},
{
closed = 1;
nodes = (
(218,223,l),
(211,169,ls),
(208,142,o),
(193,124,o),
(176,124,cs),
(161,124,o),
(152,136,o),
(152,159,cs),
(152,202,o),
(171,223,o),
(216,223,cs)
);
}
);
width = 399;
},
{
anchors = (
{
name = b.uni0324_2;
position = "{212, 0}";
},
{
name = m.uni0308_1;
position = "{278, 530}";
},
{
name = m.uni0328;
position = "{413, 10}";
}
);
layerId = "EA56A89A-B866-4D06-B6B2-64326ABDBB58";
shapes = (
{
closed = 1;
nodes = (
(220,-6,o),
(252,9,o),
(293,46,c),
(288,0,l),
(408,0,l),
(451,350,ls),
(453,362,o),
(453,374,o),
(453,386,cs),
(453,486,o),
(390,539,o),
(270,539,cs),
(153,539,o),
(70,477,o),
(58,377,c),
(57,373,l),
(172,373,l),
(173,376,l),
(178,416,o),
(211,441,o),
(257,441,cs),
(313,441,o),
(336,413,o),
(329,356,cs),
(324,314,l),
(214,314,ls),
(99,314,o),
(15,249,o),
(15,131,cs),
(15,44,o),
(68,-6,o),
(164,-6,cs)
);
},
{
closed = 1;
nodes = (
(313,227,l),
(308,189,ls),
(300,126,o),
(268,96,o),
(205,96,cs),
(159,96,o),
(136,114,o),
(136,151,cs),
(136,205,o),
(173,227,o),
(223,227,cs)
);
}
);
width = 495;
},
{
anchors = (
{
name = b.uni0324_2;
position = "{166, 0}";
},
{
name = m.uni0308_1;
position = "{235, 550}";
},
{
name = m.uni0328;
position = "{331, 10}";
}
);
layerId = "134B4203-AF9A-4952-80B5-5BBA28114A85";
shapes = (
{
closed = 1;
nodes = (
(169,-8,o),
(193,12,o),
(222,45,c),
(216,0,l),
(325,0,l),
(372,377,ls),
(373,388,o),
(374,399,o),
(374,410,cs),
(374,498,o),
(325,549,o),
(231,549,cs),
(135,549,o),
(66,491,o),
(53,387,c),
(53,383,l),
(160,383,l),
(161,391,ls),
(165,426,o),
(187,444,o),
(215,444,cs),
(248,444,o),
(262,423,o),
(257,386,cs),
(248,317,l),
(204,317,ls),
(77,317,o),
(9,244,o),
(9,121,cs),
(9,38,o),
(48,-8,o),
(123,-8,cs)
);
},
{
closed = 1;
nodes = (
(238,234,l),
(229,162,ls),
(224,121,o),
(200,95,o),
(170,95,cs),
(141,95,o),
(127,112,o),
(127,145,cs),
(127,199,o),
(149,234,o),
(208,234,cs)
);
}
);
width = 398;
},
{
anchors = (
{
name = b.uni0324_2;
position = "{213, 0}";
},
{
name = m.uni0308_1;
position = "{279, 530}";
},
{
name = m.uni0328;
position = "{414, 10}";
}
);
layerId = "5E600FEC-E230-456C-858E-F50E50395600";
shapes = (
{
closed = 1;
nodes = (
(235,-6,o),
(284,11,o),
(324,55,c),
(317,0,l),
(383,0,l),
(427,353,ls),
(429,365,o),
(429,377,o),
(429,388,cs),
(429,480,o),
(374,526,o),
(266,526,cs),
(158,526,o),
(82,468,o),
(71,380,c),
(70,375,l),
(137,375,l),
(137,378,l),
(144,434,o),
(193,468,o),
(260,468,cs),
(334,468,o),
(369,430,o),
(359,354,cs),
(352,295,l),
(215,295,ls),
(106,295,o),
(25,231,o),
(25,119,cs),
(25,37,o),
(77,-6,o),
(176,-6,cs)
);
},
{
closed = 1;
nodes = (
(346,244,l),
(337,176,ls),
(326,91,o),
(282,50,o),
(193,50,cs),
(127,50,o),
(94,76,o),
(94,129,cs),
(94,207,o),
(143,244,o),
(219,244,cs)
);
}
);
width = 492;
},
{
anchors = (
{
name = b.uni0324_2;
position = "{119, 0}";
},
{
name = m.uni0308_1;
position = "{189, 560}";
},
{
name = m.uni0328;
position = "{246, 10}";
}
);
layerId = "CE7D5885-7D4C-4AC1-9EEB-BF5BBC0FBEB6";
shapes = (
{
closed = 1;
nodes = (
(179,-8,o),
(218,12,o),
(245,49,c),
(239,0,l),
(303,0,l),
(351,384,ls),
(352,395,o),
(353,406,o),
(353,417,cs),
(353,496,o),
(309,538,o),
(223,538,cs),
(137,538,o),
(75,484,o),
(65,399,c),
(63,390,l),
(128,390,l),
(129,398,ls),
(135,447,o),
(166,476,o),
(216,476,cs),
(269,476,o),
(292,446,o),
(284,387,cs),
(274,302,l),
(194,302,ls),
(77,302,o),
(19,224,o),
(19,115,cs),
(19,36,o),
(59,-8,o),
(133,-8,cs)
);
},
{
closed = 1;
nodes = (
(267,250,l),
(255,152,ls),
(247,88,o),
(210,52,o),
(157,52,c),
(110,53,o),
(87,78,o),
(87,127,cs),
(87,196,o),
(117,250,o),
(194,250,cs)
);
}
);
width = 396;
},
{
anchors = (
{
name = b.uni0324_2;
position = "{214, 0}";
},
{
name = m.uni0308_1;
position = "{280, 530}";
},
{
name = m.uni0328;
position = "{415, 10}";
}
);
layerId = "5F4732EF-903E-4848-ACC1-4EB306E3746F";
shapes = (
{
closed = 1;
nodes = (
(243,-6,o),
(308,11,o),
(344,61,c),
(336,0,l),
(368,0,l),
(412,355,ls),
(414,367,o),
(414,378,o),
(414,389,cs),
(414,474,o),
(364,517,o),
(263,517,cs),
(161,517,o),
(90,462,o),
(80,382,c),
(79,376,l),
(113,376,l),
(114,379,l),
(122,446,o),
(179,486,o),
(262,486,cs),
(347,486,o),
(391,441,o),
(380,353,cs),
(371,282,l),
(217,282,ls),
(111,282,o),
(32,220,o),
(32,112,cs),
(32,33,o),
(85,-6,o),
(184,-6,cs)
);
},
{
closed = 1;
nodes = (
(367,251,l),
(356,167,ls),
(344,67,o),
(292,23,o),
(186,23,cs),
(107,23,o),
(66,54,o),
(66,115,cs),
(66,210,o),
(124,251,o),
(216,251,cs)
);
}
);
width = 491;
},
{
anchors = (
{
name = b.uni0324_2;
position = "{88, 0}";
},
{
name = m.uni0308_1;
position = "{159, 567}";
},
{
name = m.uni0328;
position = "{189, 10}";
}
);
layerId = "E645874F-62C6-4FA6-A4CB-DCB795EB9F1B";
shapes = (
{
closed = 1;
nodes = (
(186,-8,o),
(235,11,o),
(261,52,c),
(255,0,l),
(290,0,l),
(338,389,ls),
(339,400,o),
(340,410,o),
(340,420,cs),
(340,494,o),
(299,531,o),
(219,531,cs),
(137,531,o),
(82,480,o),
(72,407,c),
(71,395,l),
(107,395,l),
(108,403,ls),
(115,462,o),
(153,497,o),
(216,497,cs),
(283,497,o),
(312,460,o),
(303,388,cs),
(291,292,l),
(187,292,ls),
(78,292,o),
(26,212,o),
(26,112,cs),
(26,35,o),
(66,-8,o),
(139,-8,cs)
);
},
{
closed = 1;
nodes = (
(287,261,l),
(273,145,ls),
(263,67,o),
(218,23,o),
(150,23,cs),
(91,23,o),
(62,54,o),
(62,113,cs),
(62,193,o),
(96,261,o),
(186,261,cs)
);
}
);
width = 395;
}
);
leftKerningGroup = a2;
rightKerningGroup = a;
unicode = 97;
},
{
glyphname = b;
layers = (
{
anchors = (
{
name = b.uni0324_2;
position = "{218, 0}";
},
{
name = m.uni0308_1;
position = "{284, 530}";
}
);
layerId = "A4AEBACF-46F5-4C7E-8680-4ABD111F4CF9";
shapes = (
{
closed = 1;
nodes = (
(375,-6,o),
(452,75,o),
(470,219,cs),
(483,323,ls),
(501,468,o),
(442,548,o),
(336,548,cs),
(294,548,o),
(258,531,o),
(224,499,c),
(250,707,l),
(88,707,l),
(0,0,l),
(157,0,l),
(161,36,l),
(189,7,o),
(223,-6,o),
(269,-6,cs)
);
},
{
closed = 1;
nodes = (
(200,321,ls),
(207,373,o),
(237,401,o),
(271,401,cs),
(308,401,o),
(329,378,o),
(321,317,cs),
(310,223,ls),
(303,168,o),
(280,139,o),
(241,139,cs),
(202,139,o),
(181,165,o),
(188,222,cs)
);
}
);
width = 510;
},
{
anchors = (
{
name = b.uni0324_2;
position = "{200, 0}";
},
{
name = m.uni0308_1;
position = "{268, 543}";
}
);
layerId = "9252B17A-7510-4296-BE17-39E6376BAFDF";
shapes = (
{
closed = 1;
nodes = (
(290,-8,o),
(344,48,o),
(359,164,cs),
(386,385,ls),
(401,504,o),
(365,556,o),
(290,556,c),
(250,557,o),
(221,543,o),
(201,511,c),
(226,707,l),
(78,707,l),
(-11,0,l),
(131,0,l),
(135,31,l),
(159,3,o),
(183,-8,o),
(215,-8,cs)
);
},
{
closed = 1;
nodes = (
(178,358,ls),
(184,405,o),
(195,420,o),
(213,420,cs),
(233,420,o),
(241,404,o),
(235,357,cs),
(214,190,ls),
(208,145,o),
(197,127,o),
(177,127,cs),
(158,127,o),
(152,147,o),
(157,191,cs)
);
}
);
width = 400;
},
{
anchors = (
{
name = b.uni0324_2;
position = "{219, 0}";
},
{
name = m.uni0308_1;
position = "{285, 530}";
}
);
layerId = "EA56A89A-B866-4D06-B6B2-64326ABDBB58";
shapes = (
{
closed = 1;
nodes = (
(364,-6,o),
(440,73,o),
(458,214,cs),
(471,319,ls),
(489,463,o),
(431,539,o),
(323,539,cs),
(275,539,o),
(233,518,o),
(199,478,c),
(228,707,l),
(104,707,l),
(16,0,l),
(137,0,l),
(143,49,l),
(168,12,o),
(207,-6,o),
(259,-6,cs)
);
},
{
closed = 1;
nodes = (
(178,314,ls),
(187,385,o),
(226,426,o),
(278,426,cs),
(331,426,o),
(356,391,o),
(346,314,cs),
(334,218,ls),
(325,145,o),
(294,106,o),
(240,106,cs),
(185,106,o),
(157,146,o),
(166,218,cs)
);
}
);
width = 509;
},
{
anchors = (
{
name = b.uni0324_2;
position = "{169, 0}";
},
{
name = m.uni0308_1;
position = "{238, 550}";
}
);
layerId = "134B4203-AF9A-4952-80B5-5BBA28114A85";
shapes = (
{
closed = 1;
nodes = (
(283,-8,o),
(339,50,o),
(353,167,cs),
(379,374,ls),
(394,493,o),
(354,549,o),
(275,549,cs),
(235,549,o),
(203,533,o),
(180,498,c),
(206,707,l),
(90,707,l),
(2,0,l),
(114,0,l),
(119,38,l),
(141,6,o),
(168,-8,o),
(204,-8,cs)
);
},
{
closed = 1;
nodes = (
(160,354,ls),
(168,415,o),
(188,442,o),
(222,442,cs),
(254,442,o),
(268,415,o),
(261,354,cs),
(240,186,ls),
(232,123,o),
(213,98,o),
(179,98,cs),
(145,98,o),
(132,127,o),
(139,186,cs)
);
}
);
width = 403;
},
{
anchors = (
{
name = b.uni0324_2;
position = "{220, 0}";
},
{
name = m.uni0308_1;
position = "{286, 530}";
}
);
layerId = "5E600FEC-E230-456C-858E-F50E50395600";
shapes = (
{
closed = 1;
nodes = (
(347,-6,o),
(422,70,o),
(439,207,cs),
(452,313,ls),
(470,456,o),
(413,526,o),
(304,526,cs),
(245,526,o),
(195,498,o),
(161,446,c),
(193,707,l),
(126,707,l),
(38,0,l),
(105,0,l),
(114,69,l),
(137,20,o),
(179,-6,o),
(242,-6,cs)
);
},
{
closed = 1;
nodes = (
(143,303,ls),
(155,402,o),
(207,463,o),
(286,463,cs),
(364,463,o),
(397,412,o),
(384,309,cs),
(371,211,ls),
(359,108,o),
(314,56,o),
(239,56,cs),
(158,56,o),
(120,117,o),
(132,212,cs)
);
}
);
width = 506;
},
{
anchors = (
{
name = b.uni0324_2;
position = "{121, 0}";
},
{
name = m.uni0308_1;
position = "{191, 560}";
}
);
layerId = "CE7D5885-7D4C-4AC1-9EEB-BF5BBC0FBEB6";
shapes = (
{
closed = 1;
nodes = (
(272,-8,o),
(330,52,o),
(345,172,cs),
(368,357,ls),
(383,476,o),
(338,538,o),
(254,538,c),
(211,537,o),
(176,517,o),
(149,478,c),
(177,707,l),
(109,707,l),
(21,0,l),
(89,0,l),
(95,48,l),
(113,11,o),
(143,-8,o),
(186,-8,cs)
);
},
{
closed = 1;
nodes = (
(132,348,ls),
(143,432,o),
(178,475,o),
(234,475,cs),
(288,475,o),
(310,433,o),
(299,349,cs),
(278,180,ls),
(267,91,o),
(235,54,o),
(181,54,cs),
(126,54,o),
(101,98,o),
(111,179,cs)
);
}
);
width = 407;
},
{
anchors = (
{
name = b.uni0324_2;
position = "{221, 0}";
},
{
name = m.uni0308_1;
position = "{287, 530}";
}
);
layerId = "5F4732EF-903E-4848-ACC1-4EB306E3746F";
shapes = (
{
closed = 1;
nodes = (
(336,-6,o),
(409,67,o),
(426,202,cs),
(439,309,ls),
(457,450,o),
(400,517,o),
(290,517,cs),
(225,517,o),
(169,485,o),
(135,425,c),
(170,707,l),
(141,707,l),
(53,0,l),
(84,0,l),
(94,82,l),
(114,25,o),
(161,-6,o),
(230,-6,cs)
);
},
{
closed = 1;
nodes = (
(120,296,ls),
(135,413,o),
(194,488,o),
(291,488,cs),
(386,488,o),
(423,425,o),
(408,306,cs),
(395,206,ls),
(380,85,o),
(328,23,o),
(238,23,cs),
(140,23,o),
(95,99,o),
(109,208,cs)
);
}
);
width = 505;
},
{
anchors = (
{
name = b.uni0324_2;
position = "{90, 0}";
},
{
name = m.uni0308_1;
position = "{161, 567}";
}
);
layerId = "E645874F-62C6-4FA6-A4CB-DCB795EB9F1B";
shapes = (
{
closed = 1;
nodes = (
(265,-8,o),
(325,54,o),
(340,175,cs),
(361,346,ls),
(376,465,o),
(328,531,o),
(239,531,c),
(197,528,o),
(157,506,o),
(127,465,c),
(158,707,l),
(122,707,l),
(33,0,l),
(72,0,l),
(79,55,l),
(93,14,o),
(128,-8,o),
(175,-8,cs)
);
},
{
closed = 1;
nodes = (
(114,344,ls),
(127,443,o),
(171,497,o),
(243,497,cs),
(309,497,o),
(337,445,o),
(325,346,cs),
(304,176,ls),
(290,69,o),
(250,25,o),
(184,25,cs),
(112,25,o),
(81,78,o),
(93,174,cs)
);
}
);
width = 410;
}
);
leftKerningGroup = b2;
rightKerningGroup = b;
unicode = 98;
},
{
glyphname = c;
layers = (
{
anchors = (
{
name = b.uni0324_2;
position = "{213, 0}";
},
{
name = m.uni0308_1;
position = "{279, 530}";
}
);
layerId = "A4AEBACF-46F5-4C7E-8680-4ABD111F4CF9";
shapes = (
{
closed = 1;
nodes = (
(283,-6,o),
(339,12,o),
(380,47,cs),
(422,82,o),
(446,131,o),
(454,194,cs),
(455,203,l),
(302,203,l),
(301,196,l),
(297,160,o),
(274,139,o),
(235,139,cs),
(197,139,o),
(176,167,o),
(183,223,cs),
(195,317,ls),
(201,368,o),
(225,401,o),
(267,401,cs),
(306,401,o),
(324,377,o),
(319,340,c),
(319,333,l),
(472,333,l),
(473,346,l),
(489,473,o),
(421,548,o),
(284,548,cs),
(145,548,o),
(55,470,o),
(36,318,cs),
(24,224,ls),
(5,73,o),
(76,-6,o),
(214,-6,cs)
);
}
);
width = 498;
},
{
anchors = (
{
name = b.uni0324_2;
position = "{196, 0}";
},
{
name = m.uni0308_1;
position = "{264, 543}";
}
);
layerId = "9252B17A-7510-4296-BE17-39E6376BAFDF";
shapes = (
{
closed = 1;
nodes = (
(219,-8,o),
(264,7,o),
(297,38,cs),
(329,69,o),
(350,115,o),
(358,177,c),
(360,197,l),
(219,197,l),
(216,178,l),
(212,143,o),
(198,127,o),
(180,127,cs),
(164,127,o),
(157,150,o),
(162,190,cs),
(183,357,ls),
(189,402,o),
(199,420,o),
(217,420,cs),
(237,420,o),
(244,403,o),
(241,372,c),
(238,351,l),
(379,351,l),
(382,376,ls),
(397,496,o),
(347,556,o),
(235,556,cs),
(115,556,o),
(52,497,o),
(34,350,cs),
(15,197,ls),
(-3,53,o),
(46,-8,o),
(164,-8,cs)
);
}
);
width = 397;
},
{
anchors = (
{
name = b.uni0324_2;
position = "{214, 0}";
},
{
name = m.uni0308_1;
position = "{280, 530}";
}
);
layerId = "EA56A89A-B866-4D06-B6B2-64326ABDBB58";
shapes = (
{
closed = 1;
nodes = (
(280,-6,o),
(332,11,o),
(372,45,cs),
(412,78,o),
(436,124,o),
(443,183,cs),
(444,190,l),
(326,190,l),
(325,184,l),
(319,135,o),
(285,106,o),
(232,106,cs),
(174,106,o),
(146,141,o),
(156,218,cs),
(168,314,ls),
(177,389,o),
(212,426,o),
(272,426,cs),
(325,426,o),
(352,396,o),
(345,345,c),
(345,339,l),
(463,339,l),
(464,349,ls),
(479,468,o),
(413,539,o),
(284,539,cs),
(151,539,o),
(64,464,o),
(45,316,cs),
(33,217,ls),
(14,69,o),
(83,-6,o),
(216,-6,cs)
);
}
);
width = 499;
},
{
anchors = (
{
name = b.uni0324_2;
position = "{165, 0}";
},
{
name = m.uni0308_1;
position = "{234, 550}";
}
);
layerId = "134B4203-AF9A-4952-80B5-5BBA28114A85";
shapes = (
{
closed = 1;
nodes = (
(218,-8,o),
(260,7,o),
(292,37,cs),
(324,66,o),
(343,111,o),
(351,171,cs),
(353,188,l),
(241,188,l),
(239,171,ls),
(233,122,o),
(212,98,o),
(178,98,cs),
(146,98,o),
(131,126,o),
(138,186,cs),
(159,354,ls),
(167,417,o),
(187,442,o),
(222,442,cs),
(256,442,o),
(270,418,o),
(264,371,c),
(261,352,l),
(374,352,l),
(376,373,l),
(391,490,o),
(342,549,o),
(235,549,cs),
(123,549,o),
(60,489,o),
(43,353,cs),
(22,187,ls),
(6,52,o),
(54,-8,o),
(166,-8,cs)
);
}
);
width = 400;
},
{
anchors = (
{
name = b.uni0324_2;
position = "{215, 0}";
},
{
name = m.uni0308_1;
position = "{281, 530}";
}
);
layerId = "5E600FEC-E230-456C-858E-F50E50395600";
shapes = (
{
closed = 1;
nodes = (
(274,-6,o),
(322,10,o),
(360,41,cs),
(398,72,o),
(420,114,o),
(427,167,c),
(427,171,l),
(360,171,l),
(360,166,l),
(351,97,o),
(301,56,o),
(226,56,cs),
(141,56,o),
(102,102,o),
(115,211,cs),
(128,309,ls),
(142,420,o),
(193,463,o),
(278,463,cs),
(353,463,o),
(392,424,o),
(383,353,c),
(383,348,l),
(450,348,l),
(450,353,l),
(464,460,o),
(399,526,o),
(283,526,cs),
(162,526,o),
(78,456,o),
(60,313,cs),
(47,207,ls),
(29,63,o),
(93,-6,o),
(217,-6,cs)
);
}
);
width = 499;
},
{
anchors = (
{
name = b.uni0324_2;
position = "{118, 0}";
},
{
name = m.uni0308_1;
position = "{188, 560}";
}
);
layerId = "CE7D5885-7D4C-4AC1-9EEB-BF5BBC0FBEB6";
shapes = (
{
closed = 1;
nodes = (
(215,-8,o),
(255,6,o),
(285,35,cs),
(315,63,o),
(334,105,o),
(341,162,c),
(343,175,l),
(274,175,l),
(273,161,l),
(264,89,o),
(232,54,o),
(174,54,cs),
(117,54,o),
(91,91,o),
(102,180,cs),
(124,349,ls),
(135,438,o),
(169,475,o),
(228,475,cs),
(284,475,o),
(308,440,o),
(299,369,cs),
(297,354,l),
(365,354,l),
(367,369,ls),
(381,482,o),
(333,538,o),
(235,538,cs),
(135,538,o),
(72,478,o),
(56,357,cs),
(33,172,ls),
(18,51,o),
(66,-8,o),
(168,-8,cs)
);
}
);
width = 404;
},
{
anchors = (
{
name = b.uni0324_2;
position = "{216, 0}";
},
{
name = m.uni0308_1;
position = "{282, 530}";
}
);
layerId = "5F4732EF-903E-4848-ACC1-4EB306E3746F";
shapes = (
{
closed = 1;
nodes = (
(271,-6,o),
(315,9,o),
(352,39,cs),
(388,68,o),
(409,107,o),
(415,156,c),
(416,158,l),
(384,158,l),
(384,154,l),
(374,71,o),
(312,23,o),
(223,23,cs),
(118,23,o),
(72,75,o),
(88,206,cs),
(101,306,ls),
(118,441,o),
(179,488,o),
(283,488,cs),
(373,488,o),
(420,442,o),
(409,358,c),
(409,354,l),
(440,354,l),
(440,356,l),
(453,455,o),
(389,517,o),
(283,517,cs),
(167,517,o),
(87,450,o),
(69,311,cs),
(55,200,ls),
(38,59,o),
(100,-6,o),
(220,-6,cs)
);
}
);
width = 500;
},
{
anchors = (
{
name = b.uni0324_2;
position = "{87, 0}";
},
{
name = m.uni0308_1;
position = "{158, 567}";
}
);
layerId = "E645874F-62C6-4FA6-A4CB-DCB795EB9F1B";
shapes = (
{
closed = 1;
nodes = (
(215,-8,o),
(251,6,o),
(281,33,cs),
(310,60,o),
(328,101,o),
(334,156,c),
(336,166,l),
(297,166,l),
(295,154,l),
(284,67,o),
(246,25,o),
(173,25,cs),
(99,25,o),
(65,67,o),
(79,176,cs),
(100,346,ls),
(113,453,o),
(156,497,o),
(233,497,cs),
(303,497,o),
(333,455,o),
(322,368,c),
(320,355,l),
(359,355,l),
(361,366,l),
(375,477,o),
(329,531,o),
(235,531,cs),
(143,531,o),
(79,471,o),
(66,360,cs),
(41,162,ls),
(27,50,o),
(75,-8,o),
(170,-8,cs)
);
}
);
width = 407;
}
);
leftKerningGroup = c;
rightKerningGroup = b;
unicode = 99;
},
{
glyphname = ccedilla;
layers = (
{
layerId = "1B3EF96C-8CB6-4FB7-BF3A-0EF12B3D4F9E";
name = "#instance";
shapes = (
{
closed = 1;
nodes = (
(90,-220,l),
(137,-220,l),
(194,-221,o),
(268,-197,o),
(268,-128,cs),
(268,-85,o),
(233,-58,o),
(175,-54,c),
(195,-6,l),
(283,4,o),
(325,73,o),
(334,156,c),
(336,166,l),
(297,166,l),
(295,154,l),
(284,67,o),
(246,25,o),
(173,25,cs),
(76,25,o),
(70,101,o),
(79,176,cs),
(100,346,ls),
(113,453,o),
(156,497,o),
(233,497,cs),
(320,497,o),
(328,436,o),
(322,368,c),
(320,355,l),
(359,355,l),
(361,366,l),
(375,459,o),
(340,531,o),
(235,531,cs),
(143,531,o),
(79,471,o),
(66,360,c),
(41,162,l),
(27,73,o),
(61,-4,o),
(162,-8,c),
(138,-61,l),
(136,-83,l),
(155,-83,ls),
(201,-83,o),
(234,-99,o),
(234,-130,cs),
(234,-175,o),
(177,-186,o),
(142,-186,cs),
(95,-186,l)
);
}
);
width = 407;
},
{
layerId = "A4AEBACF-46F5-4C7E-8680-4ABD111F4CF9";
shapes = (
{
closed = 1;
nodes = (
(122,-220,l),
(196,-220,l),
(269,-222,o),
(329,-187,o),
(329,-109,cs),
(329,-66,o),
(306,-39,o),
(257,-34,c),
(271,-1,l),
(377,16,o),
(440,88,o),
(454,194,cs),
(455,203,l),
(302,203,l),
(301,196,l),
(297,160,o),
(274,139,o),
(235,139,cs),
(197,139,o),
(176,167,o),
(183,223,cs),
(195,317,ls),
(201,368,o),
(225,401,o),
(267,401,cs),
(306,401,o),
(324,377,o),
(319,340,c),
(319,333,l),
(472,333,l),
(473,346,l),
(495,475,o),
(411,548,o),
(284,548,cs),
(145,548,o),
(55,470,o),
(36,318,cs),
(24,224,ls),
(9,100,o),
(52,4,o),
(191,-5,c),
(171,-52,l),
(167,-85,l),
(213,-85,ls),
(230,-85,o),
(249,-93,o),
(249,-113,cs),
(249,-132,o),
(219,-133,o),
(207,-133,cs),
(133,-133,l)
);
}
);
width = 498;
},
{
layerId = "9252B17A-7510-4296-BE17-39E6376BAFDF";
shapes = (
{
closed = 1;
nodes = (
(50,-220,l),
(124,-220,l),
(197,-222,o),
(257,-187,o),
(257,-109,cs),
(257,-66,o),
(234,-39,o),
(185,-34,c),
(197,-6,l),
(299,7,o),
(345,79,o),
(358,177,c),
(360,197,l),
(219,197,l),
(216,178,l),
(212,143,o),
(198,127,o),
(180,127,cs),
(164,127,o),
(157,150,o),
(162,190,cs),
(183,357,ls),
(189,402,o),
(199,420,o),
(217,420,cs),
(237,420,o),
(244,403,o),
(241,372,c),
(238,351,l),
(379,351,l),
(382,376,ls),
(398,485,o),
(355,556,o),
(235,556,cs),
(115,556,o),
(52,497,o),
(34,350,cs),
(15,197,ls),
(1,108,o),
(14,14,o),
(120,-5,c),
(99,-52,l),
(95,-85,l),
(141,-85,ls),
(158,-85,o),
(177,-93,o),
(177,-113,cs),
(177,-132,o),
(147,-133,o),
(135,-133,cs),
(61,-133,l)
);
}
);
width = 397;
},
{
layerId = "EA56A89A-B866-4D06-B6B2-64326ABDBB58";
shapes = (
{
closed = 1;
nodes = (
(126,-220,l),
(194,-220,l),
(264,-221,o),
(326,-189,o),
(326,-113,cs),
(326,-69,o),
(303,-42,o),
(253,-37,c),
(268,-2,l),
(366,15,o),
(431,84,o),
(443,183,cs),
(444,190,l),
(326,190,l),
(325,184,l),
(319,135,o),
(285,106,o),
(232,106,cs),
(174,106,o),
(146,141,o),
(156,218,cs),
(168,314,ls),
(177,389,o),
(212,426,o),
(272,426,cs),
(325,426,o),
(352,396,o),
(345,345,c),
(345,339,l),
(463,339,l),
(464,349,ls),
(475,474,o),
(412,539,o),
(284,539,cs),
(151,539,o),
(64,464,o),
(45,316,cs),
(33,217,ls),
(18,98,o),
(58,4,o),
(193,-5,c),
(174,-50,l),
(169,-85,l),
(211,-85,ls),
(231,-85,o),
(254,-92,o),
(254,-113,cs),
(254,-139,o),
(224,-143,o),
(204,-143,cs),
(136,-143,l)
);
}
);
width = 499;
},
{
layerId = "134B4203-AF9A-4952-80B5-5BBA28114A85";
shapes = (
{
closed = 1;
nodes = (
(75,-220,l),
(143,-220,l),
(213,-221,o),
(275,-189,o),
(275,-113,cs),
(275,-69,o),
(252,-42,o),
(202,-37,c),
(217,-2,l),
(304,19,o),
(340,86,o),
(351,171,cs),
(353,188,l),
(241,188,l),
(239,171,ls),
(233,122,o),
(212,98,o),
(178,98,cs),
(146,98,o),
(131,126,o),
(138,186,cs),
(159,354,ls),
(167,417,o),
(187,442,o),
(222,442,cs),
(256,442,o),
(270,418,o),
(264,371,c),
(261,352,l),
(374,352,l),
(376,373,l),
(391,477,o),
(352,549,o),
(235,549,cs),
(123,549,o),
(60,489,o),
(43,353,cs),
(22,187,ls),
(11,92,o),
(26,4,o),
(141,-7,c),
(123,-50,l),
(118,-85,l),
(160,-85,ls),
(180,-85,o),
(203,-92,o),
(203,-113,cs),
(203,-139,o),
(173,-143,o),
(153,-143,cs),
(85,-143,l)
);
}
);
width = 400;
},
{
layerId = "5E600FEC-E230-456C-858E-F50E50395600";
shapes = (
{
closed = 1;
nodes = (
(132,-220,l),
(190,-220,ls),
(257,-220,o),
(322,-192,o),
(322,-117,cs),
(322,-72,o),
(296,-47,o),
(248,-42,c),
(264,-2,l),
(354,15,o),
(415,74,o),
(427,167,c),
(427,171,l),
(360,171,l),
(360,166,l),
(351,97,o),
(301,56,o),
(226,56,cs),
(126,56,o),
(103,127,o),
(115,211,cs),
(128,309,ls),
(142,420,o),
(193,463,o),
(278,463,cs),
(353,463,o),
(392,424,o),
(383,353,c),
(383,348,l),
(450,348,l),
(450,353,l),
(464,460,o),
(399,526,o),
(283,526,cs),
(162,526,o),
(78,456,o),
(60,313,cs),
(47,207,ls),
(33,96,o),
(65,4,o),
(194,-5,c),
(176,-48,l),
(171,-85,l),
(207,-85,ls),
(233,-85,o),
(263,-93,o),
(263,-119,cs),
(263,-150,o),
(222,-157,o),
(198,-157,cs),
(140,-157,l)
);
}
);
width = 499;
},
{
layerId = "CE7D5885-7D4C-4AC1-9EEB-BF5BBC0FBEB6";
shapes = (
{
closed = 1;
nodes = (
(83,-220,l),
(141,-220,ls),
(208,-220,o),
(273,-192,o),
(273,-117,cs),
(273,-72,o),
(247,-47,o),
(199,-42,c),
(215,-3,l),
(295,15,o),
(332,86,o),
(341,162,c),
(343,175,l),
(274,175,l),
(273,161,l),
(264,89,o),
(232,54,o),
(174,54,cs),
(101,54,o),
(93,124,o),
(102,180,cs),
(124,349,ls),
(135,438,o),
(169,475,o),
(228,475,cs),
(284,475,o),
(308,440,o),
(299,369,cs),
(297,354,l),
(365,354,l),
(367,369,ls),
(382,465,o),
(342,538,o),
(235,538,cs),
(135,538,o),
(72,478,o),
(56,357,cs),
(33,172,ls),
(21,85,o),
(40,4,o),
(144,-7,c),
(127,-48,l),
(122,-85,l),
(158,-85,ls),
(184,-85,o),
(214,-93,o),
(214,-119,cs),
(214,-150,o),
(173,-157,o),
(149,-157,cs),
(91,-157,l)
);
}
);
width = 404;
},
{
layerId = "5F4732EF-903E-4848-ACC1-4EB306E3746F";
shapes = (
{
closed = 1;
nodes = (
(129,-220,l),
(176,-220,l),
(233,-221,o),
(307,-197,o),
(307,-128,cs),
(307,-85,o),
(272,-58,o),
(214,-54,c),
(235,-6,l),
(328,0,o),
(403,61,o),
(415,156,c),
(416,158,l),
(384,158,l),
(384,154,l),
(374,71,o),
(312,23,o),
(223,23,cs),
(97,23,o),
(76,101,o),
(88,206,cs),
(101,306,ls),
(118,441,o),
(179,488,o),
(283,488,cs),
(373,488,o),
(420,442,o),
(409,358,c),
(409,354,l),
(440,354,l),
(440,356,l),
(453,455,o),
(389,517,o),
(283,517,cs),
(167,517,o),
(87,450,o),
(69,311,cs),
(55,200,ls),
(40,89,o),
(76,3,o),
(202,-5,c),
(177,-61,l),
(175,-83,l),
(194,-83,ls),
(240,-83,o),
(273,-99,o),
(273,-130,cs),
(273,-175,o),
(216,-186,o),
(181,-186,cs),
(134,-186,l)
);
}
);
width = 500;
},
{
layerId = "E645874F-62C6-4FA6-A4CB-DCB795EB9F1B";
shapes = (
{
closed = 1;
nodes = (
(90,-220,l),
(137,-220,l),
(194,-221,o),
(268,-197,o),
(268,-128,cs),
(268,-85,o),
(233,-58,o),
(175,-54,c),
(195,-6,l),
(283,4,o),
(325,73,o),
(334,156,c),
(336,166,l),
(297,166,l),
(295,154,l),
(284,67,o),
(246,25,o),
(173,25,cs),
(76,25,o),
(70,101,o),
(79,176,cs),
(100,346,ls),
(113,453,o),
(156,497,o),
(233,497,cs),
(320,497,o),
(328,436,o),
(322,368,c),
(320,355,l),
(359,355,l),
(361,366,l),
(375,459,o),
(340,531,o),
(235,531,cs),
(143,531,o),
(79,471,o),
(66,360,cs),
(41,162,ls),
(27,73,o),
(61,-4,o),
(162,-8,c),
(138,-61,l),
(136,-83,l),
(155,-83,ls),
(201,-83,o),
(234,-99,o),
(234,-130,cs),
(234,-175,o),
(177,-186,o),
(142,-186,cs),
(95,-186,l)
);
}
);
width = 407;
}
);
leftKerningGroup = c;
rightKerningGroup = b;
unicode = 231;
},
{
glyphname = d;
layers = (
{
anchors = (
{
name = b.uni0324_2;
position = "{217, 0}";
},
{
name = m.uni0308_1;
position = "{283, 530}";
},
{
name = t.uni031B_2;
position = "{554, 800}";
}
);
layerId = "A4AEBACF-46F5-4C7E-8680-4ABD111F4CF9";
shapes = (
{
closed = 1;
nodes = (
(215,-6,o),
(254,8,o),
(285,36,c),
(281,0,l),
(437,0,l),
(525,707,l),
(365,707,l),
(339,499,l),
(315,531,o),
(281,548,o),
(234,548,cs),
(130,548,o),
(56,471,o),
(37,323,cs),
(24,219,ls),
(6,74,o),
(66,-6,o),
(168,-6,cs)
);
},
{
closed = 1;
nodes = (
(197,317,ls),
(204,373,o),
(226,401,o),
(268,401,cs),
(303,401,o),
(324,376,o),
(317,321,cs),
(305,222,ls),
(298,165,o),
(273,139,o),
(233,139,cs),
(194,139,o),
(178,168,o),
(185,223,cs)
);
}
);
width = 508;
},
{
anchors = (
{
name = b.uni0324_2;
position = "{199, 0}";
},
{
name = m.uni0308_1;
position = "{267, 543}";
},
{
name = t.uni031B_2;
position = "{518, 800}";
}
);
layerId = "9252B17A-7510-4296-BE17-39E6376BAFDF";
shapes = (
{
closed = 1;
nodes = (
(145,-8,o),
(175,5,o),
(203,31,c),
(199,0,l),
(339,0,l),
(428,707,l),
(281,707,l),
(257,511,l),
(246,538,o),
(216,556,o),
(181,556,cs),
(104,556,o),
(53,502,o),
(38,385,cs),
(11,164,ls),
(-4,47,o),
(34,-8,o),
(113,-8,cs)
);
},
{
closed = 1;
nodes = (
(183,357,ls),
(189,404,o),
(199,420,o),
(219,420,cs),
(240,420,o),
(247,406,o),
(241,358,cs),
(220,191,ls),
(214,147,o),
(203,127,o),
(185,127,cs),
(161,127,o),
(156,143,o),
(162,190,cs)
);
}
);
width = 400;
},
{
anchors = (
{
name = b.uni0324_2;
position = "{218, 0}";
},
{
name = m.uni0308_1;
position = "{284, 530}";
},
{
name = t.uni031B_2;
position = "{555, 800}";
}
);
layerId = "EA56A89A-B866-4D06-B6B2-64326ABDBB58";
shapes = (
{
closed = 1;
nodes = (
(231,-6,o),
(274,12,o),
(306,49,c),
(300,0,l),
(421,0,l),
(510,707,l),
(387,707,l),
(358,478,l),
(335,518,o),
(297,539,o),
(245,539,cs),
(140,539,o),
(65,463,o),
(47,319,cs),
(34,214,ls),
(16,71,o),
(75,-6,o),
(178,-6,cs)
);
},
{
closed = 1;
nodes = (
(170,314,ls),
(179,389,o),
(211,426,o),
(267,426,cs),
(320,426,o),
(347,386,o),
(338,314,cs),
(326,218,ls),
(317,146,o),
(281,106,o),
(224,106,cs),
(170,106,o),
(149,145,o),
(158,218,cs)
);
}
);
width = 508;
},
{
anchors = (
{
name = b.uni0324_2;
position = "{167, 0}";
},
{
name = m.uni0308_1;
position = "{236, 550}";
},
{
name = t.uni031B_2;
position = "{453, 800}";
}
);
layerId = "134B4203-AF9A-4952-80B5-5BBA28114A85";
shapes = (
{
closed = 1;
nodes = (
(163,-8,o),
(195,7,o),
(223,38,c),
(218,0,l),
(330,0,l),
(418,707,l),
(303,707,l),
(277,498,l),
(264,530,o),
(233,549,o),
(194,549,cs),
(115,549,o),
(60,491,o),
(46,374,cs),
(20,167,ls),
(5,50,o),
(46,-8,o),
(127,-8,cs)
);
},
{
closed = 1;
nodes = (
(159,354,ls),
(167,415,o),
(186,442,o),
(220,442,cs),
(255,442,o),
(269,417,o),
(261,354,cs),
(240,186,ls),
(232,127,o),
(212,98,o),
(178,98,cs),
(143,98,o),
(130,123,o),
(138,186,cs)
);
}
);
width = 403;
},
{
anchors = (
{
name = b.uni0324_2;
position = "{219, 0}";
},
{
name = m.uni0308_1;
position = "{285, 530}";
},
{
name = t.uni031B_2;
position = "{556, 800}";
}
);
layerId = "5E600FEC-E230-456C-858E-F50E50395600";
shapes = (
{
closed = 1;
nodes = (
(255,-6,o),
(303,19,o),
(339,69,c),
(330,0,l),
(398,0,l),
(486,707,l),
(418,707,l),
(386,446,l),
(363,499,o),
(322,526,o),
(260,526,cs),
(154,526,o),
(79,452,o),
(61,313,cs),
(48,207,ls),
(30,67,o),
(90,-6,o),
(192,-6,cs)
);
},
{
closed = 1;
nodes = (
(130,309,ls),
(143,412,o),
(188,463,o),
(265,463,cs),
(346,463,o),
(380,402,o),
(368,303,cs),
(357,212,ls),
(345,117,o),
(292,56,o),
(210,56,cs),
(136,56,o),
(105,108,o),
(117,211,cs)
);
}
);
width = 507;
},
{
anchors = (
{
name = b.uni0324_2;
position = "{118, 0}";
},
{
name = m.uni0308_1;
position = "{188, 560}";
},
{
name = t.uni031B_2;
position = "{355, 800}";
}
);
layerId = "CE7D5885-7D4C-4AC1-9EEB-BF5BBC0FBEB6";
shapes = (
{
closed = 1;
nodes = (
(190,-8,o),
(226,11,o),
(253,48,c),
(247,0,l),
(314,0,l),
(402,707,l),
(335,707,l),
(306,478,l),
(289,518,o),
(258,538,o),
(215,538,cs),
(132,538,o),
(71,474,o),
(56,357,cs),
(33,172,ls),
(19,55,o),
(64,-8,o),
(146,-8,cs)
);
},
{
closed = 1;
nodes = (
(124,349,ls),
(134,433,o),
(167,475,o),
(220,475,cs),
(278,475,o),
(301,433,o),
(290,348,cs),
(269,179,ls),
(259,98,o),
(225,54,o),
(168,54,cs),
(114,54,o),
(92,93,o),
(102,180,cs)
);
}
);
width = 407;
},
{
anchors = (
{
name = b.uni0324_2;
position = "{220, 0}";
},
{
name = m.uni0308_1;
position = "{286, 530}";
},
{
name = t.uni031B_2;
position = "{557, 800}";
}
);
layerId = "5F4732EF-903E-4848-ACC1-4EB306E3746F";
shapes = (
{
closed = 1;
nodes = (
(271,-6,o),
(324,23,o),
(359,82,c),
(349,0,l),
(382,0,l),
(471,707,l),
(440,707,l),
(404,425,l),
(384,486,o),
(337,517,o),
(270,517,cs),
(162,517,o),
(87,444,o),
(70,309,cs),
(57,202,ls),
(39,65,o),
(100,-6,o),
(202,-6,cs)
);
},
{
closed = 1;
nodes = (
(103,306,ls),
(118,427,o),
(173,488,o),
(264,488,cs),
(362,488,o),
(403,412,o),
(388,296,cs),
(377,208,ls),
(363,99,o),
(299,23,o),
(201,23,cs),
(112,23,o),
(75,85,o),
(90,206,cs)
);
}
);
width = 507;
},
{
anchors = (
{
name = b.uni0324_2;
position = "{86, 0}";
},
{
name = m.uni0308_1;
position = "{157, 567}";
},
{
name = t.uni031B_2;
position = "{289, 800}";
}
);
layerId = "E645874F-62C6-4FA6-A4CB-DCB795EB9F1B";
shapes = (
{
closed = 1;
nodes = (
(208,-8,o),
(245,13,o),
(273,55,c),
(266,0,l),
(304,0,l),
(393,707,l),
(357,707,l),
(326,465,l),
(308,510,o),
(276,531,o),
(228,531,cs),
(143,531,o),
(78,463,o),
(64,346,cs),
(42,175,ls),
(28,58,o),
(77,-8,o),
(160,-8,cs)
);
},
{
closed = 1;
nodes = (
(100,346,ls),
(112,445,o),
(155,497,o),
(221,497,cs),
(292,497,o),
(323,444,o),
(310,344,cs),
(289,174,ls),
(277,78,o),
(234,25,o),
(161,25,cs),
(96,25,o),
(66,73,o),
(79,176,cs)
);
}
);
width = 410;
}
);
leftKerningGroup = c;
rightKerningGroup = a;
unicode = 100;
},
